<?xml version="1.0" encoding="UTF-8"?>
<svg width="136px" height="18px" viewBox="0 0 136 18" version="1.1" xmlns="http://www.w3.org/2000/svg" xmlns:xlink="http://www.w3.org/1999/xlink">
    <title>17 3</title>
    <g id="Playground" stroke="none" stroke-width="1" fill="none" fill-rule="evenodd">
        <g id="LP" transform="translate(-188.000000, -528.000000)" fill="#434B69">
            <g id="Group-8" transform="translate(188.000000, 517.000000)">
                <g id="17-3" transform="translate(0.000000, 11.000000)">
                    <path d="M129.035374,4.08536453 C129.096462,4.64318933 129.10868,4.99816875 129.450771,5.03620225 C129.756211,5.03620225 131.405582,5.09959144 131.576628,5.0869136 C131.56441,6.10114051 131.61328,7.01394473 131.61328,7.3182128 C131.61328,7.93942678 131.478887,7.92674894 132.309682,7.97746029 C132.602903,7.99013812 133.348174,8.05352731 133.507003,7.88871543 C133.714701,7.67319222 133.690266,5.94900647 133.702484,5.06155793 C134.802065,5.01084658 135.87721,5.12494711 135.938298,4.78264553 C136.036039,4.47837746 135.962733,3.59092891 135.999386,3.10917113 C136.011603,2.67812469 135.840558,2.72883604 135.571771,2.7161582 L133.726919,2.75419171 C133.726919,2.60205768 133.739137,2.32314528 133.739137,2.32314528 C133.739137,1.13142866 133.726919,0.294693996 133.653614,0.155237796 C133.543656,-0.0349297492 132.126418,0.00310502759 131.96759,0.00310502759 C131.820979,0.0157828639 131.735456,0.117206823 131.723238,1.06803948 L131.723238,2.31046744 L131.723238,2.76686955 C131.271189,2.76686955 129.353031,2.74151388 129.328596,2.74151388 C128.949851,2.76686955 128.974286,3.52753973 129.035374,4.08536453 Z" id="Path" fill-rule="nonzero"></path>
                    <path d="M125.983033,3.50986995 C126.02206,3.23863663 126.100115,3.28795178 124.825222,3.14000633 C123.53732,2.99206088 123.862548,2.83178664 123.745466,3.39891087 C123.589356,4.2495972 123.329174,5.21124261 123.277137,5.49480472 C123.160055,6.14823046 122.782791,7.17151981 122.444554,8.44138491 C121.885163,7.1838486 121.416835,6.44412135 121.143643,6.00028501 C120.154951,4.43452901 120.545224,4.44685779 119.504495,4.77973505 C119.088204,4.91535172 118.69793,5.00165323 118.802003,5.23590019 C118.919085,5.49480472 118.984131,5.54411987 118.971122,5.55644866 C118.41173,6.32083348 117.709238,7.29480768 117.52711,7.56604101 C117.227901,7.99754857 117.058782,8.2564531 116.954709,8.41672734 L116.746563,6.96193042 L116.642491,6.06192894 C116.603463,5.65507896 116.551427,5.34685927 116.525409,5.14959868 C116.486381,4.90302293 116.460363,4.66877597 116.421336,4.44685779 C116.304254,3.71945934 116.330272,3.84274721 115.887962,3.84274721 C115.588752,3.84274721 114.938297,4.00302145 114.613069,4.0523366 C113.663404,4.21261083 114.066686,4.85370778 114.196778,5.55644866 C114.261823,5.92631228 114.30085,6.09891531 114.326869,6.19754561 C114.561033,8.07152129 114.678115,9.76056516 114.665106,11.2276909 C114.652096,11.449609 114.639087,11.6715272 114.639087,11.8934454 C114.626078,12.1646787 114.60006,12.7934469 114.626078,12.9783787 C114.730151,13.5331741 115.250516,13.4098862 116.109117,13.4098862 C116.564436,13.4098862 116.876655,13.4345438 116.928691,13.3112559 C117.058782,12.9660499 117.540119,11.9920757 118.216593,10.6235803 C118.619876,9.8222091 119.062185,8.93453641 119.530513,8.19480916 C119.673614,7.98521978 119.803705,7.7633016 119.829723,7.73864403 C119.842732,7.75097282 120.180969,8.37974097 120.206987,8.41672734 C120.376106,8.66330309 121.000543,9.97015455 121.533917,11.1290606 C122.3665,12.9413923 122.548627,14.1865998 123.225101,13.9770105 C123.940602,13.7550923 124.539021,13.7797499 124.486985,13.2372832 C124.421939,12.497556 124.656103,11.5852257 124.682122,11.3509787 L125.176468,8.82357732 C125.57975,6.45645014 125.904978,4.95233808 125.930996,4.21261083 C125.957014,4.11398053 125.983033,3.59617146 125.983033,3.50986995 Z" id="Path" fill-rule="nonzero"></path>
                    <path d="M115.938051,3.95077064 C115.297906,3.94314917 114.668086,3.99395898 114.048591,4.01936388 C113.965992,4.02190437 113.996967,4.05239026 114.079566,4.04984977 C114.688736,4.02698535 115.308231,3.97617554 115.938051,3.98379701 C116.02065,3.98379701 116.02065,3.95331113 115.938051,3.95077064 Z" id="Path" fill-rule="nonzero"></path>
                    <path d="M119.936813,4.00975285 C119.774977,4.11188767 119.61314,4.23444946 119.451304,4.35701125 C119.306503,4.47957304 119.170219,4.60213482 119.033936,4.74512358 C118.974312,4.80640447 118.999865,5.05152805 119.059489,4.99024715 C119.195772,4.8472584 119.340573,4.72469661 119.476857,4.60213482 C119.638693,4.47957304 119.80053,4.35701125 119.962366,4.25487642 C120.030508,4.19359553 119.996437,3.94847195 119.936813,4.00975285 Z" id="Path" fill-rule="nonzero"></path>
                    <path d="M123.934521,13.0045984 C123.773081,13.1072649 123.61164,13.2304646 123.4502,13.3536644 C123.305753,13.4768641 123.169803,13.6000639 123.033853,13.7437969 C122.974375,13.8053968 122.999865,14.0517963 123.059343,13.9901964 C123.195293,13.8464634 123.33974,13.7232636 123.47569,13.6000639 C123.637131,13.4768641 123.798571,13.3536644 123.960012,13.2509979 C124.027987,13.2099313 124.002496,12.9635319 123.934521,13.0045984 Z" id="Path" fill-rule="nonzero"></path>
                    <path d="M119.048952,5.82096411 C119.040938,5.71397607 119.030252,5.5891567 119.022237,5.48216866 C119.00888,5.33951795 118.995523,5.19686723 118.982166,5.05421651 C118.976823,5.0007225 118.966137,4.98289116 118.958123,5.01855384 C118.950108,5.05421651 118.947437,5.12554187 118.95278,5.17903589 C118.966137,5.32168661 118.979494,5.46433732 118.992851,5.60698804 C119.003537,5.71397607 119.011552,5.83879545 119.019566,5.94578349 C119.024909,5.9992775 119.035595,6.01710884 119.043609,5.98144616 C119.048952,5.94578349 119.051623,5.87445813 119.048952,5.82096411 Z" id="Path" fill-rule="nonzero"></path>
                    <path d="M122.964254,13.8423356 C122.917978,13.8026637 122.848564,13.670424 122.813857,13.6043042 C122.721305,13.4323926 122.640322,13.260481 122.559339,13.0753455 C122.31639,12.5596108 122.096579,12.0306521 121.876768,11.5016802 C121.40244,10.351195 120.93968,9.18748589 120.488489,8.0105528 C120.372799,7.70641478 120.233971,7.38902634 120.141419,7.05842716 C120.118281,6.95263543 119.979453,7.00553129 120.002591,7.09809907 C120.072005,7.37580238 120.187695,7.64028172 120.291816,7.90476107 C120.488489,8.44694372 120.696731,8.97590241 120.904973,9.5048611 C121.367733,10.6950182 121.842061,11.8851752 122.374235,13.0488975 C122.466787,13.260481 122.570908,13.4720645 122.675029,13.683648 C122.732874,13.7894397 122.790719,13.9216794 122.883271,13.9877992 C122.975823,14.0406951 123.045237,13.9084554 122.964254,13.8423356 Z" id="Path" fill-rule="nonzero"></path>
                    <path d="M114.006866,4.08270182 C114.06439,4.2169422 114.093152,4.35119478 114.121914,4.48543515 C114.165056,4.71730489 114.193818,4.94916243 114.22258,5.18103217 C114.308865,5.85223405 114.366389,6.5356518 114.409532,7.21905735 C114.524579,8.69570149 114.610865,10.1723334 114.711531,11.6489776 C114.740293,12.076106 114.740293,12.5154382 114.826579,12.9425666 C114.840959,13.040196 115.01353,13.003585 114.99915,12.9059556 C114.927245,12.5764565 114.927245,12.1737354 114.898483,11.8320326 C114.85534,11.1608307 114.812198,10.4896289 114.769055,9.81842697 C114.668388,8.34178284 114.582103,6.85294724 114.423913,5.3763031 C114.395151,5.09561868 114.352008,4.81493426 114.308865,4.53424984 C114.280104,4.37560212 114.265723,4.20475073 114.179437,4.05830669 C114.136294,3.96067732 113.963723,3.99727613 114.006866,4.08270182 Z" id="Path" fill-rule="nonzero"></path>
                    <path d="M122.871005,3.06213928 C122.684916,3.79509952 122.478151,4.51448641 122.271386,5.2338733 C122.002591,6.1704336 121.723458,7.12056724 121.392634,8.02998086 C121.299589,8.30144761 121.196207,8.65435439 121.020456,8.85795445 C120.958427,8.92582114 121.051471,9.04798118 121.113501,8.98011449 C121.258236,8.8036611 121.351281,8.53219435 121.444325,8.30144761 C121.599399,7.89424748 121.733796,7.47347401 121.868194,7.05270055 C122.178341,6.08899358 122.457474,5.11171327 122.726269,4.13443296 C122.819314,3.79509952 122.912358,3.46933941 122.995064,3.13000597 C123.026079,2.9942726 122.90202,2.95355258 122.871005,3.06213928 Z" id="Path" fill-rule="nonzero"></path>
                    <path d="M123.846024,3.03896378 C123.709508,3.26595179 123.627599,3.53077115 123.532037,3.78298006 C123.38187,4.2117352 123.245354,4.64049035 123.108837,5.06924549 C122.808502,6.0150289 122.53547,6.97342276 122.262438,7.93181661 C122.166877,8.2596882 122.084967,8.57494933 122.003057,8.90282091 C121.975754,9.00370448 122.139573,9.04153581 122.166877,8.94065225 C122.344347,8.2344673 122.549122,7.52828236 122.753896,6.83470786 C123.026928,5.88892445 123.29996,4.94314104 123.627599,4.00996808 C123.72316,3.71992783 123.818721,3.39205625 123.98254,3.12723689 C124.050798,3.02635333 123.900631,2.95069066 123.846024,3.03896378 Z" id="Path" fill-rule="nonzero"></path>
                    <path d="M117.151736,13.9580456 C118.005446,11.9680876 118.898559,9.99157538 119.988682,8.12262841 C120.041218,8.02850878 119.896744,7.94783481 119.844208,8.04195444 C118.754085,9.91090141 117.860972,11.8874137 117.007262,13.8773716 C116.96786,13.9714912 117.0992,14.0521652 117.151736,13.9580456 Z" id="Path" fill-rule="nonzero"></path>
                    <path d="M113.450211,12.0456026 L112.725287,10.5863322 C112.079446,9.29642997 111.499507,7.98045603 110.972289,6.6514658 L109.403818,2.6514658 C109.16657,2.13029316 109.351096,2 108.889781,2 C108.612992,2 107.255408,2.05211726 107.03134,2.18241042 C106.675469,2.40390879 106.925897,2.61237785 106.991799,3.00325733 C107.01816,3.12052117 107.044521,3.23778502 107.097243,3.36807818 L105.344245,7.57656026 C104.896111,8.64496417 104.197548,9.98697068 103.354,11.6026059 C103.024489,12.2410423 102.971768,12.4885993 103.011309,12.5276873 C103.274918,12.762215 103.419902,12.8925081 103.709872,13.0228013 C104.118465,13.2052117 104.092104,13.1921824 104.382074,13.2442997 C104.935652,13.3355049 104.856569,13.1009772 105.225621,12.9055375 C106.899536,12.0586319 108.507549,11.3680782 109.944216,11.0032573 C110.418711,12.1628664 110.708681,12.8794788 110.840485,13.1270358 C111.143635,13.713355 111.539048,14 112.000363,14 C112.382596,14 112.422137,13.9869707 112.857091,13.8697068 C114.201495,13.5179153 114.306939,13.713355 113.450211,12.0456026 Z M109.298375,9.33551792 C108.402105,9.47884039 107.532197,9.68729642 106.688649,9.94788274 C107.294949,8.48859935 107.795805,7.26384365 108.178038,6.3257329 C108.53391,7.31596091 108.902962,8.31923127 109.298375,9.33551792 Z" id="Shape" fill-rule="nonzero"></path>
                    <path d="M106.98455,4.88070505 C106.784503,4.65348158 106.651138,4.3861465 106.534444,4.11882477 C106.384409,3.77130654 106.267715,3.4237883 106.201033,3.06290397 C106.184362,2.95597529 105.984315,2.99607354 106.000986,3.10300223 C106.067668,3.47725264 106.184362,3.83813697 106.351068,4.18565521 C106.467762,4.45297693 106.617797,4.72031201 106.817844,4.96090156 C106.884526,5.05446417 107.051232,4.96090156 106.98455,4.88070505 Z" id="Path" fill-rule="nonzero"></path>
                    <path d="M109.910564,12.0052836 C108.483076,12.406916 107.032376,12.8557993 105.686126,13.5054989 C105.46562,13.6118134 105.245114,13.7299405 105.036213,13.8598805 C104.954974,13.9071313 105.024607,14.0370712 105.105846,13.9898204 C105.662915,13.6354388 106.289618,13.375559 106.91632,13.1393046 C107.902796,12.7612976 108.924089,12.4423542 109.945381,12.1470362 C110.038226,12.1234107 110.003409,11.9698454 109.910564,12.0052836 Z" id="Path" fill-rule="nonzero"></path>
                    <path d="M112.899651,13.9507396 C112.6337,13.9672528 112.367749,13.983766 112.101798,13.9936739 C111.75986,14.0068845 111.417923,14.0068845 111.075986,14.0101871 C110.974671,14.0101871 110.974671,14.0531214 111.075986,14.0498188 C111.430588,14.0498188 111.785189,14.0465161 112.127126,14.0333056 C112.405742,14.0233977 112.671693,14.0068845 112.950308,13.9903713 C113.038959,13.983766 113.000966,13.9441343 112.899651,13.9507396 Z" id="Path" fill-rule="nonzero"></path>
                    <path d="M108.912487,2.97069028 C108.480911,2.96575168 108.064217,2.95093587 107.632641,2.95093587 C107.111773,2.94599726 106.590905,2.96081308 106.070038,2.9904447 C105.950982,2.9953833 105.995628,3.05464655 106.114684,3.04970795 C106.620669,3.02501493 107.141537,3.01019912 107.662404,3.01513772 C108.079098,3.02007633 108.480911,3.02995353 108.897605,3.03489214 C109.031542,3.03489214 109.031542,2.97069028 108.912487,2.97069028 Z" id="Path" fill-rule="nonzero"></path>
                    <path d="M107.834584,6.05855787 C107.699262,6.6762739 107.482747,7.28056132 107.279765,7.87142013 C107.022654,8.63685086 106.752011,9.40228159 106.413707,10.1408551 C106.30545,10.3825701 106.197192,10.6511423 106.021274,10.8525714 C105.953613,10.9331431 106.061871,11.0540005 106.143064,10.9734289 C106.30545,10.798857 106.400175,10.5705706 106.4949,10.3691415 C106.657286,10.0334262 106.792607,9.697711 106.927929,9.34856715 C107.225636,8.56970781 107.49628,7.77741986 107.753391,6.98513191 C107.848116,6.6897025 107.929309,6.40770171 107.996969,6.1122723 C108.024034,6.00484343 107.861648,5.95112899 107.834584,6.05855787 Z" id="Path" fill-rule="nonzero"></path>
                    <path d="M109.002973,3.09724094 C109.122431,3.53903659 109.348073,3.96856013 109.533897,4.39808368 C109.905544,5.23258656 110.277191,6.06708944 110.648838,6.90159233 C111.485045,8.74240752 112.321251,10.5832227 113.157457,12.4240379 C113.3831,12.927194 113.635289,13.4303502 113.834385,13.9457784 C113.874205,14.0439553 114.033482,13.9948669 113.993663,13.9089621 C113.834385,13.4794386 113.622016,13.0621872 113.436192,12.6326636 C113.064545,11.7981607 112.679625,10.9759299 112.307977,10.1414271 C111.471771,8.30061187 110.622292,6.45979668 109.812632,4.6067094 C109.666628,4.26309056 109.520624,3.93174383 109.37462,3.58812499 C109.294981,3.41631558 109.215342,3.23223406 109.16225,3.04815254 C109.135704,2.96224783 108.976426,2.99906413 109.002973,3.09724094 Z" id="Path" fill-rule="nonzero"></path>
                    <path d="M106.824295,6.05567886 C106.666182,6.43967103 106.450575,6.81166344 106.249341,7.18365585 C105.94749,7.72364483 105.631265,8.26363381 105.31504,8.80362279 C104.682591,9.88360075 104.035767,10.951579 103.432066,12.0435567 C103.331449,12.223553 103.216458,12.4155491 103.130215,12.6075332 C103.087093,12.7035312 103.015224,12.811529 103.00085,12.907527 C102.986476,13.0035251 103.158962,13.0395243 103.173336,12.9435263 C103.18771,12.859528 103.245206,12.7755297 103.273953,12.7035312 C103.360196,12.5475464 103.446439,12.3795498 103.532683,12.223553 C103.805786,11.7435628 104.078889,11.2755723 104.351992,10.7955821 C105.013189,9.6556054 105.68876,8.52762842 106.335584,7.38765168 C106.565565,6.96766025 106.824295,6.53566907 106.996781,6.10367788 C107.025529,5.99568009 106.853042,5.95968082 106.824295,6.05567886 Z" id="Path" fill-rule="nonzero"></path>
                    <path d="M103.040732,13.1455294 C103.333147,13.313265 103.639487,13.468098 103.959751,13.6229309 C104.26609,13.7648611 104.57243,13.9067912 104.892694,13.9971104 C105.004091,14.0229159 105.045864,13.868083 104.934468,13.8422775 C104.614204,13.7648611 104.307864,13.6100281 104.015449,13.4810007 C103.709109,13.3390705 103.416694,13.1842376 103.124279,13.016502 C103.040732,12.9519882 102.94326,13.0939184 103.040732,13.1455294 Z" id="Path" fill-rule="nonzero"></path>
                    <path d="M109.007561,12.0986757 C109.261648,12.5968027 109.563376,13.0824765 109.865104,13.5556971 C110.039789,13.8545733 110.230354,14.1409963 110.420919,14.4398725 C110.547963,14.6266701 110.675006,14.8134677 110.833811,14.975359 C110.913213,15.050078 111.056137,14.9379995 110.976735,14.8632804 C110.81793,14.7013891 110.706767,14.5145915 110.579724,14.3277939 C110.389159,14.0413709 110.214474,13.7549479 110.039789,13.4685249 C109.753941,12.9953043 109.452213,12.5345368 109.214007,12.048863 C109.150485,11.9616908 108.95992,11.9990503 109.007561,12.0986757 Z" id="Path" fill-rule="nonzero"></path>
                    <path d="M101.506941,12.6182815 C100.671168,11.9499813 99.691747,11.2423693 98.4903234,10.6657966 C100.723404,9.08022158 101.872592,7.50775048 101.937887,5.97459116 C101.950946,5.7911362 101.937887,5.62078516 101.911769,5.45043413 C101.755061,4.54626325 101.089055,3.87796303 99.9268081,3.44553348 C99.1171531,3.15724711 98.1769085,3 97.1321923,3 C95.5912359,3 93.7368647,3.36690992 92.4179105,3.77313162 C91.8433166,3.94348266 91.9608472,4.17935332 92.1828494,4.70351036 C92.30038,4.99179672 92.3787337,5.31939487 92.6007359,5.46353805 C92.9010918,5.66009694 92.9272097,5.63388909 92.9663865,5.64699301 C93.0186224,7.86155648 92.6660306,12.6969051 92.6529717,13.0245032 C92.6268538,13.417621 92.5876769,13.9810898 92.9794455,14.0335055 C93.658511,14.0859212 93.7629826,14.0728173 94.0894564,14.0728173 C94.8991115,14.0728173 95.3300569,13.5355564 95.3953517,12.4741384 C95.3822927,12.3430991 95.3822927,12.3299952 95.7348844,12.3037873 C95.8132381,12.3037873 96.1397119,12.2644756 96.2180657,12.2644756 C96.9101901,12.2513716 96.5837163,12.0941245 97.4717251,12.7755287 C98.4250286,13.4831407 99.2346836,14.1121291 99.8876312,14.64939 C100.187987,14.8983646 100.475284,15.1735471 100.710345,14.8590529 C100.945406,14.5576626 102.303537,13.2603739 101.937887,12.9458797 C101.689767,12.7624247 101.859533,12.893464 101.506941,12.6182815 Z M98.7384434,5.09662813 C99.143271,5.25387524 99.3652732,5.54216161 99.417509,5.85665583 C99.5219806,6.48564427 99.0649173,7.08842485 97.9679653,8.04501144 C97.2366639,8.66089595 96.387832,9.18505298 95.4084106,9.53885898 C95.3953517,8.29398603 95.3561748,6.86565812 95.2778211,5.18835561 C96.2441836,4.96558887 96.9754849,4.92627709 97.6284325,4.92627709 C98.046319,4.93938102 98.4250286,4.9786928 98.7384434,5.09662813 Z" id="Shape" fill-rule="nonzero"></path>
                    <path d="M92.986136,5.88218692 C92.7923299,5.64966863 92.6469754,5.3783973 92.5339218,5.12004365 C92.3885673,4.7841839 92.2755137,4.42248879 92.1947612,4.06079368 C92.1786107,3.95745222 91.9848046,3.99620527 92.0009551,4.09954673 C92.0655571,4.47415952 92.1947612,4.83585463 92.3401157,5.18463206 C92.4531693,5.45590339 92.5985239,5.71425704 92.7923299,5.95969301 C92.8730825,6.05011679 93.0507381,5.9726107 92.986136,5.88218692 Z" id="Path" fill-rule="nonzero"></path>
                    <path d="M94.9934924,13.9348223 C95.0389161,13.3393059 95.0633751,12.6883926 95.0424103,12.0651777 C95.0389161,11.954384 94.9969866,11.9959316 95.0004807,12.1067254 C95.0214455,12.7022418 94.9934924,13.3254566 94.9515628,13.8932746 C94.9410804,14.0040684 94.9865042,14.045616 94.9934924,13.9348223 Z" id="Path" fill-rule="nonzero"></path>
                    <path d="M94.9219601,5.95016839 C94.5910266,5.95871095 94.260093,5.97010103 93.9418877,5.98433864 C93.6491388,5.99857624 93.3691182,6.0071188 93.0763693,6.01566136 C92.9745436,6.01850888 92.9745436,6.05267913 93.0763693,6.04983161 C93.7000517,6.03559401 94.3110059,5.99857624 94.9346883,5.98433864 C95.0237858,5.98149112 95.0237858,5.94732087 94.9219601,5.95016839 Z" id="Path" fill-rule="nonzero"></path>
                    <path d="M94.9130435,13.950288 C94.4202899,13.97128 93.942029,13.987024 93.4492754,13.987024 C93,13.987024 92.5362319,13.97128 92.0869565,13.960784 C91.9710145,13.955536 91.9710145,14.02376 92.0869565,14.02376 C92.5362319,14.034256 93,14.05 93.4492754,14.05 C93.942029,14.05 94.4202899,14.034256 94.9130435,14.013264 C95.0289855,14.013264 95.0289855,13.94504 94.9130435,13.950288 Z" id="Path" fill-rule="nonzero"></path>
                    <path d="M101.826634,13.0321602 C101.636632,13.2804728 101.432014,13.5157163 101.21278,13.7378907 C100.832776,14.1299633 100.438155,14.5089667 100.02892,14.861832 C99.9412264,14.9402465 100.072766,15.0447992 100.16046,14.9794538 C100.584311,14.6135194 100.978931,14.234516 101.358936,13.8424434 C101.578169,13.6071999 101.797403,13.3719564 101.987405,13.1236438 C102.045867,13.0321602 101.885096,12.9537457 101.826634,13.0321602 Z" id="Path" fill-rule="nonzero"></path>
                    <path d="M93.0133229,6.07977315 C92.9992163,7.07693748 92.996395,8.07410182 92.987931,9.07126615 C92.9794671,10.334341 92.9710031,11.6107246 92.9597179,12.8737861 C92.9568966,13.0998101 92.9568966,13.325834 92.9540752,13.5518579 C92.9540752,13.631631 92.9512539,13.6981087 92.9512539,13.7778818 C92.9512539,13.8044729 92.9512539,13.8310639 92.9512539,13.857655 C92.9512539,13.8709505 92.9484326,13.9241326 92.9512539,13.8975415 C92.9484326,14.0039057 92.9822884,14.0437923 92.9851097,13.9374281 C92.9935737,13.6582221 92.9935737,13.3657206 92.996395,13.0865145 C93.0020376,12.5281158 93.0048589,11.956395 93.0105016,11.3979829 C93.0189655,10.081726 93.0274295,8.76546909 93.0387147,7.46250769 C93.0415361,6.99716433 93.0443574,6.5451165 93.05,6.07977315 C93.05,5.97340895 93.0133229,5.97340895 93.0133229,6.07977315 Z" id="Path" fill-rule="nonzero"></path>
                    <path d="M94.966345,5.09902922 C94.9902716,5.52101386 94.9932624,5.96937254 94.9962532,6.4045442 C95.0052257,7.09026925 95.0082165,7.77599429 95.0112073,8.46171934 C95.0141982,9.8859175 95.0141982,11.3101289 94.9932624,12.72114 C94.9902716,12.9716934 94.9842899,13.2354338 94.9753174,13.4859872 C94.9723266,13.5651093 94.9693358,13.6442314 94.9633542,13.7365406 C94.9603633,13.7761016 94.9543817,13.8420367 94.9543817,13.8552237 C94.9394276,13.9343459 94.966345,14.053029 94.9812991,13.9739069 C94.9962532,13.8815978 95.0022349,13.7629146 95.0052257,13.6574184 C95.0141982,13.4596131 95.0201798,13.2486208 95.0231706,13.0376285 C95.0351339,12.4046383 95.0411156,11.7716746 95.0441064,11.1386976 C95.0530789,9.63537731 95.0530789,8.13204383 95.0351339,6.64191056 C95.0291523,6.12761678 95.0261615,5.58696215 94.999244,5.07266836 C94.9962532,4.95398518 94.9603633,4.99353305 94.966345,5.09902922 Z" id="Path" fill-rule="nonzero"></path>
                    <path d="M101.967499,12.8653203 C101.466941,12.4321896 100.966384,12.0117981 100.440157,11.6168848 C99.6829035,11.0563627 98.8999803,10.5340581 98.1170572,10.0117535 C98.0272136,9.96079692 97.9502047,10.0881883 98.0400484,10.151884 C98.8101367,10.6741886 99.5930598,11.1837541 100.337479,11.731537 C100.863706,12.1264503 101.364263,12.5468418 101.851986,12.9799725 C101.941829,13.0436682 102.057342,12.9417551 101.967499,12.8653203 Z" id="Path" fill-rule="nonzero"></path>
                    <path d="M99.9666687,14.8569285 C98.8613989,14.0729253 97.8131017,13.2286143 96.7192264,12.4325496 C96.5141248,12.2878106 96.3204177,12.1430715 96.1039215,12.0103941 C96.0241598,11.9621477 95.9557926,12.0948252 96.0355543,12.1430715 C96.4685466,12.420488 96.8787499,12.7340893 97.2889531,13.0476905 C97.8700744,13.4819076 98.4398011,13.9161247 99.0209224,14.3503418 C99.3057857,14.5674504 99.6020436,14.7845589 99.8983015,14.9896059 C99.9666687,15.0378523 100.04643,14.9051748 99.9666687,14.8569285 Z" id="Path" fill-rule="nonzero"></path>
                    <path d="M95.3325103,9.99378316 C96.1086589,9.64463058 96.8605529,9.21168138 97.5275557,8.62510505 C98.0005212,8.20612195 98.4613595,7.73127445 98.7645425,7.11676591 C98.9585797,6.72571502 99.0919802,6.23690141 98.9221977,5.80395221 C98.7402879,5.32910471 98.2794496,5.13357926 97.8671207,5.06374875 C96.9333169,4.88218941 95.9510037,5.11961316 95.0535819,5.38496912 C94.9565633,5.41290133 95.0050726,5.58049456 95.0899638,5.55256236 C95.8903671,5.3151386 96.7392797,5.11959919 97.5760649,5.18942971 C97.9762666,5.23132802 98.4977414,5.34307081 98.7281606,5.7620539 C98.9343251,6.12517259 98.8251792,6.57208789 98.667524,6.92124046 C98.4128502,7.47988459 98.0005212,7.94075203 97.5760649,8.33180292 C96.8848076,8.96027756 96.0965316,9.43512506 95.2718737,9.79824375 C95.2112371,9.85412213 95.247619,10.0356815 95.3325103,9.99378316 Z" id="Path" fill-rule="nonzero"></path>
                    <path d="M101.721759,6.95896918 C102.165148,6.14369043 102.071096,5.18376544 101.493347,4.46053429 C100.646879,3.4085617 99.1420453,3.07982027 97.8387522,3.01407198 C96.5757671,2.94832369 95.2993461,3.11926924 94.0632331,3.39541204 C93.955745,3.42171136 93.996053,3.57950725 94.1035411,3.55320793 C95.9174026,3.15871821 97.9731123,2.90887472 99.7601018,3.52690862 C100.700623,3.85565005 101.627707,4.52628258 101.802375,5.53880619 C101.882992,5.9990442 101.788939,6.47243186 101.560527,6.88007124 C101.533655,6.97211884 101.681451,7.05101678 101.721759,6.95896918 Z" id="Path" fill-rule="nonzero"></path>
                    <path d="M87.4950112,4.09141372 C85.9821425,3.54496733 84.4087591,3.20964796 82.2060224,3.02335942 C81.4798454,2.96126323 81.3709189,3.03577865 81.2619923,3.09787483 C80.8746979,3.30900185 81.0078304,4.45157157 81.092551,4.6006024 C81.1772717,4.737214 81.5282572,4.82414865 81.7945221,4.87382559 C81.818728,6.48832629 81.5040513,12.8842329 81.5524631,13.890191 C82.3996695,13.7659986 85.6190541,15.0824377 89.6372332,11.0461859 C91.0532783,9.59313531 91.4042638,7.4570267 90.5086456,6.20268386 C90.0003217,5.4947874 89.2983506,4.74963323 87.4950112,4.09141372 Z M88.6811002,8.12766545 C88.2938059,9.80426232 85.2680685,11.8658555 83.7673028,11.6423093 C83.7551999,10.4252241 83.973053,6.71187254 83.9125382,5.25882191 C85.401201,5.4947874 86.1999956,5.74317212 86.9624814,6.06607226 C88.1969823,6.58768018 88.8747474,7.30799587 88.6811002,8.12766545 Z" id="Shape" fill-rule="nonzero"></path>
                    <path d="M80.9885213,4.93670424 C81.0439814,4.3449335 81.0602932,3.71281475 81.0439814,3.08069601 C81.040719,2.97310133 81.0015707,2.97310133 81.0048331,3.08069601 C81.0211449,3.69936542 81.0048331,4.31803483 80.9526354,4.89635623 C80.9395859,5.00395091 80.9787342,5.04429892 80.9885213,4.93670424 Z" id="Path" fill-rule="nonzero"></path>
                    <path d="M91.646124,7.08992753 C91.8883268,7.90416271 91.9138218,8.75432003 91.620629,9.55658116 C91.3529312,10.3109461 90.8430306,10.9695187 90.2311499,11.5203248 C88.8671658,12.7297035 87.0187761,13.4241983 85.183134,13.7115754 C84.1633328,13.867238 83.1180366,13.9031601 82.0982354,13.7355235 C81.9962553,13.7235494 81.9580127,13.867238 82.0599928,13.879212 C83.946625,14.1905372 85.9607324,13.879212 87.7198894,13.1847173 C89.3643189,12.5381188 90.9832533,11.4484805 91.6843666,9.85593233 C92.066792,8.95787883 92.0922871,7.98798104 91.8118417,7.06597944 C91.7735992,6.95821302 91.620629,6.99413516 91.646124,7.08992753 Z" id="Path" fill-rule="nonzero"></path>
                    <path d="M83.9331722,4.77412081 C83.4787775,4.66986888 83.0101829,4.60036759 82.5415884,4.51349098 C82.058794,4.40923905 81.5901994,4.25286115 81.1358047,4.00960664 C81.0364058,3.95748067 80.937007,4.13123389 81.0506057,4.20073518 C81.5050004,4.44398969 81.9593951,4.61774291 82.4563893,4.72199485 C82.9391837,4.82624678 83.4219781,4.87837274 83.8905727,5 C84.0041714,5 84.0467709,4.79149613 83.9331722,4.77412081 Z" id="Path" fill-rule="nonzero"></path>
                    <path d="M89.8348287,8.0584287 C89.6978608,8.83866325 88.9582347,9.48665465 88.3692731,9.96272997 C87.5474662,10.6107214 86.6023884,11.1529183 85.6025234,11.5099748 C85.1094393,11.6818908 84.6026584,11.814134 84.0821807,11.8405826 C83.9726064,11.8405826 83.9726064,12.0124987 84.0821807,11.9992744 C85.0957425,11.9596014 86.0819107,11.5496477 86.9585047,11.0735724 C87.8624922,10.5842727 88.752783,9.97595428 89.4102284,9.18249542 C89.6704673,8.86511188 89.9307061,8.49483107 89.99919,8.09810164 C90.0128868,8.00553144 89.8485254,7.95263418 89.8348287,8.0584287 Z" id="Path" fill-rule="nonzero"></path>
                    <path d="M83.9502183,7.08890189 C83.9760876,7.67725597 83.9797833,8.28868277 83.9908701,8.87703685 C84.001957,9.6268999 84.0093482,10.3882993 83.9982613,11.1496987 C83.9945657,11.3919622 83.9945657,11.6688347 83.9686964,11.9110981 C83.9576095,12.0033889 84.001957,12.037998 84.0130438,11.9457072 C84.0352175,11.7495891 84.0389131,11.5188621 84.0426088,11.2996713 C84.05,10.9420443 84.05,10.5959537 84.05,10.2383267 C84.05,9.45385458 84.0389131,8.68091882 84.0241307,7.89644671 C84.0167394,7.60803784 84.0130438,7.33116533 83.9982613,7.05429282 C83.9908701,6.96200199 83.9465227,6.99661105 83.9502183,7.08890189 Z" id="Path" fill-rule="nonzero"></path>
                    <path d="M82.0166667,8.0558641 C81.9884615,8.89035895 81.9807692,9.73749767 81.9705128,10.5719925 C81.9602564,11.4823506 81.95,12.3927086 81.95,13.3030666 C81.95,13.4421491 81.95,13.5938754 81.9525641,13.7456018 C81.9525641,13.8214649 81.9525641,13.8973281 81.9602564,13.9605474 C81.9705128,14.0490544 81.9961538,13.9731913 81.9884615,13.8846842 C81.9910256,13.909972 81.9884615,13.8593965 81.9884615,13.8467527 C81.9884615,13.8088211 81.9858974,13.7708895 81.9858974,13.7329579 C81.9858974,13.6065193 81.9833333,13.4800807 81.9833333,13.3536421 C81.9833333,12.9616824 81.9858974,12.5697227 81.9884615,12.1904068 C81.9961538,11.2294733 82.0064103,10.2811837 82.0217949,9.32025025 C82.0294872,8.91564668 82.0346154,8.49839925 82.05,8.09379568 C82.05,8.00528865 82.0192308,7.9547132 82.0166667,8.0558641 Z" id="Path" fill-rule="nonzero"></path>
                    <path d="M90.9993364,7.92583281 C90.9388077,7.26729901 90.7693274,6.60876522 90.4303669,6.05559683 C90.1035121,5.50242843 89.6555999,5.06779613 89.1471591,4.72535855 C87.8034226,3.82975259 86.1691485,3.51365636 84.6317202,3.30292555 C83.4453583,3.14487744 82.2589963,3.0526827 81.0726344,3 C80.9757885,3 80.9757885,3.15804811 81.0726344,3.15804811 C82.9732347,3.25024284 84.8980464,3.3819496 86.7502237,3.88243529 C87.9971143,4.21170219 89.3408508,4.7516999 90.1398293,5.89754871 C90.5514242,6.49022913 90.7693274,7.18827496 90.8419618,7.92583281 C90.8540676,8.01802754 91.0114421,8.03119822 90.9993364,7.92583281 Z" id="Path" fill-rule="nonzero"></path>
                    <path d="M79.9604764,8.63576421 C79.9330521,6.27198713 79.9056277,4.66664121 79.9056277,4.11045836 C79.850779,3.74388331 79.9604764,3.45315137 79.7410816,3.28882462 C79.5628232,3.13713839 79.1925944,3.12449787 78.8086534,3.08657631 C77.7528156,2.97281164 77.176904,2.92224957 77.1083431,3.25090306 C77.0260701,3.70596175 77.0123579,10.7593714 77.0123579,11.3787569 C77.0260701,12.6680898 77.0123579,12.8450571 77.0123579,12.9335407 C76.9986457,13.3506778 76.943797,13.6287693 77.2591771,13.8183771 C77.5471329,14.0079848 78.1778931,14.0079848 78.5206976,13.9953443 C79.3434284,13.9700633 79.6862329,13.9953443 79.8919156,13.4391615 C80.0564617,13.0220243 79.9879008,11.9981423 79.9741886,10.8731361 L79.9604764,8.63576421 Z" id="Path" fill-rule="nonzero"></path>
                    <path d="M76.2888906,13.9272665 C76.2247303,13.5491604 76.3102773,13.1458473 76.3316641,12.7677411 C76.3958243,12.0241325 76.4599846,11.2805364 76.5455316,10.5495312 C76.7166256,8.77243253 76.9091063,6.99532122 76.9732666,5.20561897 C76.9946533,4.4998209 77.0374268,3.78141929 76.9304931,3.07562122 C76.9091063,2.97479293 76.6524653,2.97479293 76.6738521,3.07562122 C76.7593991,3.680591 76.7380123,4.31078045 76.7380123,4.91575022 C76.7166256,5.77279074 76.6524653,6.62981865 76.5669183,7.48685916 C76.4385978,9.16312957 76.2461171,10.8520035 76.0964099,12.5282739 C76.0536364,12.9820013 75.9467026,13.4609357 76.0322496,13.9020595 C76.0322496,14.0280948 76.3102773,14.0280948 76.2888906,13.9272665 Z" id="Path" fill-rule="nonzero"></path>
                    <path d="M78.8979442,13.9510074 C78.3698744,13.9799522 77.8418045,13.9944246 77.3137347,13.9896005 C76.9015826,13.9847764 76.4894306,13.9606557 76.0772785,13.9510074 C75.9742405,13.9461832 75.9742405,14.0088971 76.0772785,14.0088971 C76.5023103,14.0185454 76.9273421,14.0426661 77.352374,14.0474902 C77.8933235,14.0571385 78.4213934,14.0378419 78.9494632,14.0088971 C79.0396215,14.0040729 79.0009822,13.9413591 78.8979442,13.9510074 Z" id="Path" fill-rule="nonzero"></path>
                    <path d="M78.9333333,2.99289033 C78.5888889,2.99289033 78.2333333,2.98815414 77.8888889,2.97868176 C77.6111111,2.97394557 77.3333333,2.95973226 77.0666667,2.95025987 C76.9777778,2.94552368 76.9777778,3.00709417 77.0666667,3.00709417 C77.3444444,3.01656656 77.6111111,3.02603894 77.8888889,3.03551132 C78.2333333,3.04498371 78.5888889,3.04498371 78.9333333,3.0497199 C79.0222222,3.05445609 79.0222222,2.99762653 78.9333333,2.99289033 Z" id="Path" fill-rule="nonzero"></path>
                    <path d="M74.6994614,10.5694956 C74.686535,10.5694956 74.6736086,10.5572573 74.6477558,10.5572573 C74.2987433,10.4593512 73.794614,10.4103981 73.135368,10.4103981 C71.7780969,10.4103981 69.9425494,10.7775462 68.5982047,11.1814091 L68.5982047,8.19527127 C68.5206463,6.09028888 68.6628366,4.32797803 68.6369838,3.70382628 C68.6240575,3.44682261 68.6240575,3.1286276 68.4818671,3.09191279 C68.3267504,3.03072144 66.529982,2.85938566 66.2714542,3.23877202 C66.1938959,3.33667818 66.2197487,3.75277935 66.2068223,3.92411513 C66.2068223,4.07097437 66.0517056,11.3160301 66,12.7601459 C66,12.9070051 66.0129264,13.0049113 66.0129264,13.0783409 C65.9741472,13.7514457 66.2197487,14.1675469 67.486535,13.9350198 C67.7450628,13.9227815 68.1199282,13.763684 68.7274686,13.6168248 C69.6840215,13.3842976 70.0588869,13.2863915 70.162298,13.2496767 C71.648833,12.8825286 71.7263914,12.8213372 72.8768402,12.7111928 C73.0061041,12.6989545 73.9885099,12.6255249 74.2728905,12.6500015 C74.4280072,12.6622397 74.5443447,12.6622397 74.6606822,12.674478 C75.1260323,12.7111928 75.0872531,10.67964 74.6994614,10.5694956 Z" id="Path" fill-rule="nonzero"></path>
                    <path d="M68.9862662,10.9267092 C69.0100538,10.5602551 68.99816,10.1938011 68.9862662,9.83956213 C68.9624786,9.24102049 68.938691,8.65469399 68.8911157,8.05615235 C68.807859,6.77356313 68.7008147,5.49097391 68.4867261,4.23281495 C68.4153632,3.84193062 68.3677879,3.36554034 68.1418055,3.03573168 C68.0823364,2.95022573 67.9633983,3.03573168 68.0109736,3.10902249 C68.2012746,3.38997061 68.2488498,3.79307008 68.3083189,4.12287873 C68.4153632,4.6969901 68.4867261,5.2833166 68.5580889,5.86964311 C68.6889209,7.12780206 68.7840714,8.39817615 68.8316466,9.66855023 C68.8435405,10.0838648 68.8673281,10.5113946 68.8435405,10.9267092 C68.8316466,11.0244303 68.9743724,11.0244303 68.9862662,10.9267092 Z" id="Path" fill-rule="nonzero"></path>
                    <path d="M69,10.9255142 C69,10.0192705 68.9576486,9.10061253 68.8941215,8.19436884 C68.8305944,6.92811053 68.7458917,5.66185222 68.5553104,4.39559391 C68.4917833,3.94867921 68.4494319,3.48935022 68.2588507,3.05484982 C68.2164993,2.95553544 67.9623909,3.00519263 68.0047423,3.09209271 C68.1741479,3.46452162 68.2164993,3.84936483 68.2800263,4.22179375 C68.3647291,4.81768001 68.4282562,5.40115198 68.4917833,5.99703824 C68.5976618,7.23846796 68.6611889,8.47989768 68.724716,9.72132739 C68.7458917,10.1185849 68.7458917,10.5282567 68.7670673,10.9255142 C68.724716,11.0248286 69,11.0248286 69,10.9255142 Z" id="Path" fill-rule="nonzero"></path>
                    <path d="M65.987607,12.9190199 C65.987607,11.7435302 66.0000856,10.5548328 66.0063249,9.37934304 C66.0188035,7.84724409 66.0281624,6.30193739 66.040641,4.76983844 C66.0437607,4.20190521 66.05,3.63397198 66.05,3.0792465 C66.05,2.9735845 66.0125642,2.9735845 66.0125642,3.0792465 C66.0094445,4.28115171 65.9969659,5.49626467 65.987607,6.69816988 C65.9751284,8.23026883 65.9657694,9.76236778 65.9564105,11.2944667 C65.9532908,11.8359845 65.9501712,12.3907099 65.9501712,12.9322277 C65.9470515,13.0246819 65.987607,13.0246819 65.987607,12.9190199 Z" id="Path" fill-rule="nonzero"></path>
                    <path d="M74.9921708,12.9535223 C75.0144944,12.7010561 75.0272507,12.4380706 75.036818,12.1856045 C75.0527634,11.8069053 75.0559525,11.4176867 75.036818,11.0495069 C75.0336289,10.9653515 74.9953599,10.9969098 74.998549,11.0810652 C75.0176835,11.4492449 75.0113053,11.8174247 74.9953599,12.1856045 C74.9857927,12.4275512 74.9730363,12.6800173 74.9507128,12.921964 C74.9443346,12.9956 74.9826036,13.0376776 74.9921708,12.9535223 Z" id="Path" fill-rule="nonzero"></path>
                    <path d="M74.9206384,10.0008826 C73.3281483,10.0974808 71.7491539,10.355076 70.1701595,10.6126712 C69.8057762,10.67707 69.4278972,10.7414688 69.0635139,10.8058676 C68.9555484,10.8219673 68.9960355,11.0151476 69.1040009,10.9990479 C70.6694996,10.6770539 72.248494,10.4838736 73.8274884,10.3067769 C74.1918718,10.2584778 74.5562551,10.2262784 74.9071427,10.2101787 C75.0286038,10.194079 75.0286038,9.98478287 74.9206384,10.0008826 Z" id="Path" fill-rule="nonzero"></path>
                    <path d="M66.1050032,3.04926387 C66.4362964,3.02625464 66.7675895,3.01310651 67.0988827,3.00324542 C67.3639172,2.99667135 67.6422034,2.98681026 67.9204896,2.99009729 C68.0265035,2.99009729 68.0265035,2.9506529 67.9204896,2.9506529 C67.6422034,2.94736587 67.3506654,2.95722697 67.0723792,2.96380103 C66.7278343,2.97366213 66.3832895,2.98681026 66.0519963,3.00981948 C65.9592343,3.01639355 65.9989894,3.05583793 66.1050032,3.04926387 Z" id="Path" fill-rule="nonzero"></path>
                    <path d="M74.9931355,10.3384641 C74.931057,10.119445 74.6703273,10.0995342 74.5461703,10.0796234 C74.2109464,9.99998009 73.8757226,10 73.5404987,10 C72.5596584,10 71.5912339,10.119445 70.6228093,10.3185533 C70.10135,10.4181074 69.5674749,10.5574832 69.0584312,10.7565915 C68.9591056,10.7964131 68.9963527,11.0353629 69.0956783,10.9955413 C70.0020244,10.6570573 70.9332018,10.4778399 71.8519636,10.358375 C72.6713997,10.2588208 73.4908359,10.1791775 74.310272,10.2787317 C74.4468447,10.2986425 74.5710017,10.3185533 74.7075744,10.358375 C74.7448215,10.3782858 74.7820686,10.3782858 74.8193157,10.4181074 C74.8565628,10.4380183 74.8565628,10.4579291 74.8565628,10.4579291 C74.9062256,10.6172157 75.0303826,10.4977507 74.9931355,10.3384641 Z" id="Path" fill-rule="nonzero"></path>
                    <path d="M64.9792626,13.5815699 C64.9550997,13.4671239 64.9309369,13.3653941 64.8946926,13.2763805 L64.1939695,11.7758657 C63.5778165,10.4533781 63.0099892,9.09274181 62.5025691,7.73210552 L60.9923901,3.62476419 C60.9682273,3.54846683 60.6903543,3.29414229 60.3520742,3.07796643 C60.1829342,2.97623661 60.1950156,2.97623661 59.8325727,3.0652502 C59.5546997,3.12883133 59.1680939,3.26870983 58.6123481,3.51031814 C58.5398595,3.6756291 58.6365109,3.79007514 58.6727552,4.006251 C58.6969181,4.12069704 58.721081,4.24785931 58.7694067,4.37502158 L57.0780063,8.68582254 C56.6430747,9.77941807 56.0027588,11.1654868 55.1570586,12.8185963 C55.0483257,13.022056 55,13.2127994 55,13.4035428 C55.2174658,13.8613269 56.4860161,14.4717058 56.6672376,14.3191111 C56.8001333,14.2173813 57.0900877,13.9503405 57.2713092,13.6070024 C58.7089995,13.0347722 60.1346085,12.5642718 61.5239731,12.1955012 C61.9830675,13.4035428 62.2609404,14.1156515 62.3817548,14.3826923 C62.5025691,14.6243006 62.6354648,14.815044 62.780442,14.9549225 C63.0703964,15.0820847 64.290621,14.9422062 64.7738782,14.5098545 C64.9671811,14.2300975 65.0396697,13.9121919 64.9792626,13.5815699 Z M58.3707194,11.1146219 C58.9627096,9.61410712 59.4338854,8.36791687 59.7963284,7.40149633 C60.1466899,8.41879449 60.5091329,9.44879617 60.8836572,10.4915268 C60.0258756,10.6314053 59.1801754,10.8475811 58.3707194,11.1146219 Z" id="Shape" fill-rule="nonzero"></path>
                    <path d="M60.9991026,10.8893196 C60.9233903,10.5186931 60.7719657,10.1480533 60.6356835,9.77741347 C60.4236891,9.16850523 60.1965522,8.57282088 59.9694153,7.97714978 C59.4848566,6.70638475 58.9851554,5.43563297 58.5308816,4.16486794 C58.4400268,3.9265995 58.3643145,3.70156819 58.2886022,3.46329975 C58.2431748,3.34416553 58.1977475,3.17208276 58.182605,3.07942281 C58.1674625,2.97352573 57.985753,2.97352573 58.0008955,3.07942281 C58.0311804,3.38387693 58.182605,3.68833106 58.2886022,3.99278518 C58.4854542,4.56198201 58.7125911,5.13117884 58.9245855,5.70037568 C59.4242867,7.01085211 59.9239879,8.30809141 60.4085466,9.61856784 C60.5599712,10.0553933 60.7416808,10.4922188 60.847678,10.9422814 C60.8325355,11.0481785 61.0142451,10.9952167 60.9991026,10.8893196 Z" id="Path" fill-rule="nonzero"></path>
                    <path d="M55.1456846,12.9512864 C55.320822,12.5043428 55.5193111,12.0698143 55.7178001,11.647701 C56.0330475,10.9400403 56.3599707,10.2447948 56.675218,9.53713415 C57.3290644,8.10939777 57.9945866,6.68166138 58.5900538,5.2290948 C58.6951363,4.98079282 58.8002187,4.73249084 58.8936254,4.47177376 C58.9403287,4.34762277 59.0103836,4.21105668 58.9987078,4.07449059 C58.9987078,3.9751698 58.846922,3.9751698 58.8585979,4.07449059 C58.8585979,4.14898119 58.8002187,4.29796238 58.7651913,4.38486807 C58.6834605,4.60833985 58.6017297,4.81939653 58.508323,5.03045322 C58.239779,5.67603836 57.9595591,6.30920841 57.6793392,6.94237846 C57.013817,8.43217793 56.336619,9.89717202 55.659421,11.3869839 C55.4375803,11.8835879 55.1923879,12.3926069 55.0055746,12.901626 C54.9705471,13.0009468 55.1106571,13.0381921 55.1456846,12.9512864 Z" id="Path" fill-rule="nonzero"></path>
                    <path d="M55.0270962,13.1076163 C55.3536458,13.3330606 55.7210141,13.5303244 56.1019886,13.7088011 C56.2652634,13.7839492 56.4285382,13.8590973 56.591813,13.9154584 C56.6870566,13.9530324 56.7959065,14 56.9183626,14 C57.0272125,14 57.0272125,13.8872779 56.9183626,13.8872779 C56.9183626,13.8872779 56.9047564,13.8872779 56.8775439,13.8778843 C56.8503314,13.8778843 56.8367252,13.8684908 56.8095127,13.8590973 C56.7414816,13.8403103 56.6870566,13.8215233 56.6326317,13.7933427 C56.4693569,13.7275881 56.3196883,13.6618336 56.1564135,13.5866855 C55.7890453,13.4176022 55.4488894,13.2203385 55.1359461,13.0136812 C55.0679149,12.9667137 54.9454588,13.0512553 55.0270962,13.1076163 Z" id="Path" fill-rule="nonzero"></path>
                    <path d="M57.0132011,13.9683606 C57.058255,14.0624177 57.1213303,13.9213321 57.1573734,13.8743035 C57.2204487,13.7645703 57.2835241,13.6391609 57.3556102,13.5137515 C57.5178039,13.200228 57.6890084,12.8867044 57.8421914,12.5418286 C57.896256,12.4164191 57.9593314,12.2910097 57.9953744,12.1499241 C58.0224067,12.0401909 57.9232883,11.9304577 57.896256,12.0558671 C57.8692237,12.1656003 57.8241699,12.2596574 57.7881269,12.3380383 C57.7250515,12.4791238 57.6529654,12.6358856 57.5808793,12.7769712 C57.4367071,13.0591424 57.2925348,13.3569897 57.1393518,13.6234847 C57.1123196,13.6705133 57.0852873,13.7175418 57.058255,13.7645703 C57.0492442,13.7802465 57.0402334,13.7959227 57.0312227,13.8115988 C57.0312227,13.8115988 57.0222119,13.8115988 57.0222119,13.827275 C57.0312227,13.7959227 57.0852873,13.8115988 57.094298,13.827275 C57.0492442,13.733218 56.9681473,13.8743035 57.0132011,13.9683606 Z" id="Path" fill-rule="nonzero"></path>
                    <path d="M63.9972831,9.89147953 C63.9121925,9.5280434 63.8027902,9.16460726 63.6933879,8.80117113 C63.5110508,8.20409748 63.3287137,7.60702382 63.1342208,7.02293004 C62.7209234,5.7379237 62.2833143,4.45291737 61.7606146,3.20685062 C61.5904333,2.8044749 61.420252,2.33719987 61.1285127,2.02568318 C61.0555778,1.94780401 60.9583314,2.06462277 61.0191104,2.14250194 C61.2622266,2.40209918 61.4080962,2.79149504 61.5539659,3.12897145 C61.8092379,3.70008537 62.0280424,4.28417916 62.2346911,4.86827295 C62.684456,6.12731956 63.1099092,7.39934603 63.4867392,8.68435237 C63.6082973,9.09970795 63.7420112,9.51506353 63.8392576,9.94339898 C63.875725,10.0472379 64.0215947,9.99531843 63.9972831,9.89147953 Z" id="Path" fill-rule="nonzero"></path>
                    <path d="M58.9951951,3.93304373 C58.9737826,3.90769348 58.9737826,3.88234322 58.9523702,3.85699297 C58.9523702,3.8400928 58.9523702,3.86544306 58.9523702,3.85699297 L58.9523702,3.84854289 C58.9523702,3.8400928 58.9523702,3.8400928 58.9523702,3.83164272 C58.9523702,3.81474255 58.9523702,3.80629247 58.9523702,3.79784238 C58.9523702,3.78094222 58.9309578,3.76404205 58.9095454,3.74714188 C58.8453081,3.68799129 58.7810708,3.62039062 58.7382459,3.56124003 C58.5669465,3.38378827 58.4170595,3.21478659 58.2671725,3.03733482 C58.2029352,2.96973415 57.9459861,3.00353448 58.0102234,3.06268507 C58.2243476,3.29928743 58.4170595,3.52743969 58.6525962,3.76404205 C58.6740086,3.78094222 58.6740086,3.80629247 58.7168335,3.82319264 C58.7168335,3.83164272 58.7168335,3.80629247 58.7168335,3.81474255 C58.7168335,3.82319264 58.7168335,3.82319264 58.7168335,3.83164272 C58.7168335,3.87389314 58.7382459,3.92459364 58.7596584,3.96684406 C58.7810708,4.02599465 59.0380199,4.0006444 58.9951951,3.93304373 Z" id="Path" fill-rule="nonzero"></path>
                    <path d="M63,6.92722146 C63,6.74157827 62.9458954,6.54355887 62.905317,6.35791568 C62.8241601,6.04851036 62.729477,5.73910504 62.634794,5.42969972 C62.3913233,4.66237453 62.0937481,3.90742556 61.7555943,3.17722901 C61.5797544,2.79356642 61.3903883,2.40990382 61.1604438,2.03861744 C61.1063392,1.95198395 60.9575516,2.02624123 61.0116562,2.11287472 C61.4174406,2.7811902 61.728542,3.48663433 62.0125912,4.20445466 C62.2831141,4.87277015 62.5265848,5.55346185 62.7024247,6.24652976 C62.7565293,6.45692538 62.8241601,6.69207342 62.8241601,6.91484525 C62.8376862,7.02623116 63,7.02623116 63,6.92722146 Z" id="Path" fill-rule="nonzero"></path>
                    <path d="M60.9810438,2.21060327 C61.0333367,2.09828152 60.9705853,2 60.8764582,2 C60.7300382,2 60.5836183,2.09828152 60.4476569,2.15444239 C59.9770214,2.37908588 59.5168444,2.61778362 59.0462089,2.82838688 C58.9625403,2.85646732 59.0043746,3.02493589 59.0775846,2.99685545 C59.4854687,2.82837284 59.8828943,2.61776958 60.2803198,2.42120653 C60.4267398,2.35100544 60.5836183,2.26676414 60.7404968,2.21060327 C60.7823311,2.19656305 60.8346239,2.18252283 60.8764582,2.16848261 C60.8973753,2.16848261 60.8973753,2.16848261 60.8973753,2.16848261 C60.8973753,2.18252283 60.8659996,2.11233578 60.8764582,2.11233578 C60.8764582,2.11233578 60.8869167,2.09829556 60.8659996,2.11233578 C60.8241653,2.22465752 60.928751,2.30888479 60.9810438,2.21060327 Z" id="Path" fill-rule="nonzero"></path>
                    <path d="M53.8728373,11.2398696 C53.7810558,10.9923232 53.6892742,10.6457458 53.3877062,10.0516343 C53.1385848,9.5689188 53.1254732,9.2842404 52.8107935,9.40801362 C52.4567789,9.53178683 52.115876,9.69269202 51.7487497,9.87835184 C50.4113612,10.5219726 49.5591039,11.2027253 47.8414775,11.0789521 C46.5303123,10.9799335 45.7698365,9.54416416 45.6256083,9.03669396 C45.3633753,8.08364019 45.900953,7.15534105 46.6220938,6.44983371 C47.4612396,5.64530779 47.9857056,5.39776136 49.2837592,5.22447885 C50.0049,5.12546028 50.7653758,5.39777374 51.4865167,5.74433875 C51.9716478,6.09090376 52.1683226,6.07851406 52.5485605,5.73194905 C52.7452353,5.54628922 53.0861382,5.44728302 53.0861382,5.24924587 C53.0992499,5.06358605 52.9550217,4.70463134 52.5223372,4.2838024 C51.9454245,3.72682292 51.6307449,3.51640845 51.1849487,3.34312594 C50.9227157,3.23173004 50.4506962,3.10795683 50.1491282,3.07082486 C49.3755407,2.97180629 47.6448027,2.79852378 45.8747297,3.98674667 C44.0522101,5.19972421 43.0688362,6.70975747 43.0032779,8.55397841 C42.9901663,9.01193932 43.0163896,9.43276826 43.0819478,9.81646524 C43.2523993,10.7447644 43.6850838,11.5864223 44.3537781,12.3290616 C45.3502636,13.4306432 46.6483171,14 48.1954921,14 C49.4935456,14 50.7784875,13.4925298 52.1945459,12.7003812 C54.2006286,11.5987996 54.1219587,11.9329996 53.8728373,11.2398696 Z" id="Path" fill-rule="nonzero"></path>
                    <path d="M52.8551719,5.03525778 C52.6353978,5.34863915 52.3545753,5.62586114 52.0371237,5.8548706 C52.0004947,5.87897686 51.988285,5.91514831 52.0127044,5.96336082 C52.0371237,5.99952021 52.0859624,6.01156129 52.1225915,5.98745503 C52.4522526,5.74639244 52.7574945,5.44506419 52.9894783,5.10757656 C53.038317,5.03525778 52.9040106,4.95088587 52.8551719,5.03525778 Z" id="Path" fill-rule="nonzero"></path>
                    <path d="M51.0490475,4.16008874 C51.5247239,4.31747163 51.9581179,4.66855654 52.3280884,5.05596058 C52.4760767,5.21334347 52.6240649,5.38283274 52.7403413,5.57653476 C52.7826237,5.63706664 52.8143354,5.7097049 52.8460472,5.78234316 C52.8566178,5.80655591 52.8566178,5.83076867 52.8671883,5.84287504 C52.8671883,5.86708779 52.8671883,5.87919417 52.8671883,5.86708779 C52.8143354,5.93972605 52.9094707,6.04868344 52.9623236,5.97604518 C53.0997412,5.77023678 52.824906,5.43125825 52.7192001,5.28598173 C52.4443649,4.92279044 52.1166767,4.60802466 51.7572768,4.35379076 C51.5458651,4.20851424 51.3344533,4.08745048 51.0913299,4.00270585 C50.9961946,3.97849309 50.9644828,4.12376961 51.0490475,4.16008874 Z" id="Path" fill-rule="nonzero"></path>
                    <path d="M53.877142,12.0281753 C53.7787715,12.1563291 53.6435121,12.2417651 53.5082526,12.3414403 C53.2992154,12.4980728 53.0778818,12.6262267 52.8688445,12.7686199 C52.413881,13.0534063 51.9466211,13.3239534 51.4793613,13.5945005 C51.3318056,13.6799364 51.1842499,13.7653723 51.0489904,13.8223296 C50.9629163,13.8650476 50.9998052,14.0359194 51.0858794,13.9932014 C51.4424724,13.8365689 51.7744728,13.6229791 52.1064732,13.4236286 C52.5860293,13.1388422 53.0655854,12.8540558 53.5328453,12.5265515 C53.680401,12.4126369 53.8648457,12.3129617 53.9755125,12.1563291 C54.0492903,12.0708932 53.9386235,11.9427393 53.877142,12.0281753 Z" id="Path" fill-rule="nonzero"></path>
                    <path d="M53.0175221,10.0987096 C53.2663251,10.3882922 53.4045489,10.7558393 53.5427728,11.0788352 C53.6118847,11.2570399 53.6948191,11.4352445 53.7501086,11.624587 C53.763931,11.6914137 53.7915758,11.7582405 53.8053981,11.8250672 C53.8053981,11.8473428 53.8053981,11.8584806 53.8192205,11.8807562 C53.8192205,11.891894 53.8192205,11.9030317 53.8192205,11.9030317 C53.8192205,11.9141695 53.8192205,11.891894 53.8192205,11.9141695 C53.7915758,12.0032719 53.9574444,12.0366852 53.9850892,11.9475829 C54.0265563,11.8473428 53.9712668,11.7136893 53.943622,11.6134492 C53.8883325,11.4241067 53.8192205,11.2459021 53.7362862,11.0565597 C53.6533519,10.8560794 53.5565952,10.6555992 53.4598385,10.4662567 C53.3769042,10.3103277 53.2939698,10.1543986 53.1833907,10.0207451 C53.1004564,9.96505615 52.9484102,10.0318829 53.0175221,10.0987096 Z" id="Path" fill-rule="nonzero"></path>
                    <path d="M51.958427,6.60982299 C50.273174,5.65230972 47.8758424,5.75051621 46.6178367,7.42002653 C46.2974013,7.84967992 46.0837777,8.36526399 46.0007018,8.90539968 C45.9888338,9.00360617 46.1312496,9.04043361 46.1431176,8.94222712 C46.2855333,8.02154128 46.8077244,7.22361355 47.567275,6.73258111 C48.3505615,6.22927285 49.3118678,6.05741149 50.2257021,6.1801696 C50.8072331,6.25382447 51.3531601,6.45023745 51.8634831,6.74485692 C51.9702949,6.79396016 52.0533708,6.65892624 51.958427,6.60982299 Z" id="Path" fill-rule="nonzero"></path>
                    <path d="M46,8.07003695 C46.0358748,9.09724557 46.3467901,10.2528553 47.363244,10.7431139 C48.128574,11.1166443 49.0493617,11.0349346 49.8386082,10.8014781 C50.2332315,10.6847498 50.6158965,10.5330031 50.9626866,10.3228922 C51.0463946,10.2762009 50.9746449,10.1477998 50.8909369,10.1944911 C49.659234,10.9298791 47.5784931,11.3150824 46.6577055,9.93768899 C46.2869987,9.3890662 46.1793742,8.71204234 46.1554577,8.07003695 C46.1554577,7.97665435 46,7.97665435 46,8.07003695 Z" id="Path" fill-rule="nonzero"></path>
                    <path d="M42.1479685,12.3013634 L42.1479685,12.3012997 C42.0374447,12.1433217 41.9044311,11.9531904 41.7097215,11.6703556 C40.9400231,10.587966 40.2665371,9.59471427 39.7012898,8.70333454 C41.4795336,5.58806425 41.8090607,4.79407412 41.901665,4.57110185 C41.9123687,4.54525184 41.9199454,4.52708043 41.9261992,4.5138498 C41.9622788,4.43744583 42.1547034,3.99175596 42.0584911,3.94081998 C41.9865724,3.8951686 41.938346,3.86315534 41.8948099,3.8342619 L41.8948099,3.83421096 L41.8948099,3.83421096 L41.8946897,3.83418549 L41.8946897,3.83417276 L41.8946897,3.83416003 L41.8946897,3.83414729 L41.8946897,3.83413456 C41.7924641,3.76636423 41.7160956,3.71563199 41.4210846,3.5460661 C41.1685273,3.39325814 40.7716516,3.17678021 40.4469351,3.06217424 C40.160463,2.95453377 40.1580577,2.95967831 39.9976237,3.29714194 L39.9976237,3.29714194 L39.9976237,3.29715467 L39.9976237,3.29718014 C39.949277,3.39888657 39.8866187,3.5307853 39.7975021,3.69887405 C39.7732085,3.74460183 39.7489149,3.78993486 39.7246213,3.83488586 L39.2923875,4.47564782 C39.2088031,4.60312785 39.1253389,4.73112998 39.041514,4.85945046 C38.7234121,5.34690783 38.4023035,5.83891124 38.0671239,6.32352893 C37.2708469,5.19930808 36.5848532,4.32120991 36.0091429,3.71160805 C35.9730633,3.67340606 35.9490102,3.64793807 35.9129306,3.62247007 C35.6345163,3.32775447 34.3564562,4.41905794 34.206365,4.89590789 C34.1896481,4.91270403 34.173292,4.92966571 34.1570562,4.94681841 C34.1013733,5.00576408 34.1530874,5.0798632 34.2127391,5.08141675 C34.253028,5.23151236 34.320136,5.38020723 34.42164,5.5198355 C35.2485847,6.67139624 35.9689743,7.7438534 36.5623636,8.70528284 C36.3525005,9.1816107 36.0632623,9.61973657 35.7752268,10.0561434 C35.7003014,10.1696415 35.6254964,10.2830377 35.5521345,10.3969433 C35.4360784,10.5794597 35.3182183,10.7609955 35.2003583,10.9426332 L35.200238,10.9427351 C35.1179765,11.0695148 35.0355947,11.1963581 34.9539345,11.3236089 C34.8950045,11.4053102 34.8418472,11.4784543 34.7944627,11.5430157 C34.7698083,11.5787855 34.7405838,11.6195597 34.7087134,11.6639886 L34.7085932,11.6640141 C34.5576601,11.8742397 34.3477971,12.166383 34.2994504,12.399899 C34.2773216,12.4412972 34.2532685,12.4837269 34.2287343,12.5271116 L34.2287343,12.5271498 L34.2287343,12.5272008 C34.1330031,12.6963337 34.0292141,12.8797033 34.0007112,13.0710952 C33.9886847,13.1729672 34.1330031,13.2111692 34.1450296,13.1092972 C34.1476755,13.0866307 34.1517645,13.0638368 34.1569359,13.0412977 C34.4577196,13.2887192 34.7592249,13.5346127 35.071073,13.758731 L35.1215845,13.7959143 L35.1215845,13.7959143 L35.1215845,13.7960416 C35.3828009,13.9885796 35.6546006,14.1890127 35.9369837,14.3444948 C35.9816021,14.3714909 36.0263409,14.3447495 36.0440199,14.3060382 C36.0997027,14.3253938 36.1562275,14.3424574 36.213594,14.3572288 C36.3098063,14.3826968 36.3458859,14.2298889 36.2496736,14.2044209 C35.8167183,14.0898149 35.4438957,13.847869 35.1191792,13.5167851 C35.0389622,13.4318493 34.969569,13.3470409 34.9000557,13.2621052 L34.9000557,13.2621052 C34.8705906,13.2261953 34.8412459,13.1902854 34.8110593,13.1543756 L34.8185157,13.1602332 C35.0354745,13.3455128 35.313528,13.5437812 35.5815995,13.7347911 C35.7741444,13.8720636 35.9615178,14.0056432 36.1173817,14.1280169 C36.3460062,14.3120231 36.5814858,13.9144678 36.8133574,13.5230247 C36.8864788,13.399505 36.9593596,13.2767493 37.0313986,13.1729672 C37.4282743,12.5744694 37.8852827,11.8358976 38.2220257,11.2883358 L40.4589616,14.5991748 C40.5918549,14.7680275 40.6872253,14.859203 40.774538,14.8980416 C40.7614291,14.9536892 40.7967871,15.02067 40.8558374,14.9939286 C41.1805539,14.8665887 41.5172969,14.7265147 41.8299869,14.5609728 C41.9911425,14.4852055 42.1551844,14.4030712 42.3134537,14.3099857 C42.3811631,14.2372746 42.4192872,14.167747 42.4192872,14.1025489 C42.4313137,13.822401 42.1186238,12.8673513 42.1186238,12.8673513 L42.5996853,14.0134109 C42.6137563,14.0430811 42.624941,14.0710959 42.6329988,14.0978373 C42.6793009,14.0626915 42.7244005,14.0261449 42.7680568,13.9879429 C42.7788807,13.9797932 42.7865776,13.9708794 42.7915085,13.9618382 C42.9150211,13.8761385 42.9804454,13.8038094 42.9962002,13.7210384 C43.0231396,13.579691 42.9055201,13.4075274 42.6851939,13.08523 L42.6851939,13.08523 L42.6851939,13.0851026 C42.6307137,13.0053878 42.5698594,12.9163772 42.503473,12.8164153 C42.3741877,12.624896 42.2762917,12.4847711 42.1479685,12.3013634 Z M34.5030597,12.8565274 C34.478285,12.8263478 34.4559156,12.7974416 34.4341476,12.7692995 L34.4341476,12.7692995 C34.4106959,12.7388653 34.3878454,12.7093224 34.3633113,12.6800342 C34.6668611,12.1376678 35.1392635,11.444531 35.6311488,10.7229718 L35.6311488,10.7229591 L35.6312691,10.7229336 C35.9953124,10.1888316 36.3700593,9.63915591 36.6946555,9.12355641 C36.033196,9.8239262 34.8064892,11.6703556 34.3735339,12.3834594 C34.3013746,12.5107994 34.2412419,12.6508733 34.1931358,12.7909473 C34.1811093,12.8291493 34.1690827,12.8800853 34.1811093,12.9182873 L34.2171889,12.9564893 C34.224044,12.9424819 34.2311397,12.9283471 34.2383556,12.9139577 C34.4167091,13.0658743 34.5953032,13.2102778 34.7760621,13.3494604 C34.7499645,13.3162246 34.7241074,13.2828616 34.6983706,13.2494985 L34.6982504,13.2494985 L34.6982504,13.2493712 C34.6810524,13.2282327 34.6639747,13.2063303 34.6466565,13.1841731 L34.6466565,13.1841731 C34.5910939,13.1132447 34.5339679,13.0401516 34.4697462,12.9819572 C34.4194752,12.9376429 34.4508645,12.8686247 34.5030597,12.8565274 Z M36.6505181,8.84876951 L36.6588164,8.86226754 C36.6394537,8.89096997 36.6202113,8.91969787 36.6010891,8.94845123 C36.6179262,8.91539378 36.6344026,8.88217078 36.6505181,8.84876951 Z M38.8821624,5.49402369 C38.6469233,5.87624732 38.4063926,6.26688812 38.1017604,6.58949118 C38.0296011,6.66589515 37.9213623,6.55128919 37.9935215,6.48761921 C38.1979727,6.25842001 38.3663442,6.00374009 38.5347157,5.7490729 L38.5347157,5.74904743 C38.672179,5.53553652 38.8061547,5.32016644 38.94001,5.10506378 L38.94001,5.10503831 L38.94001,5.10501284 C39.1574498,4.75568113 39.3742883,4.40704978 39.6050775,4.06815994 C39.6229971,4.04280655 39.6410369,4.01723669 39.6590767,3.99157769 C39.7858364,3.81111149 39.916204,3.62574271 40.0741125,3.46966212 C40.1703248,3.36779015 40.3026167,3.24045019 40.4589616,3.25318419 C40.5551739,3.25318419 40.5551739,3.40599214 40.4589616,3.40599214 C40.3089907,3.40599214 40.1685208,3.57781195 40.0715869,3.69633999 C40.0596806,3.71085674 40.0484959,3.72457126 40.0380328,3.73707604 C39.7200512,4.11583602 39.4595564,4.54674172 39.2023088,4.97235007 L39.2023088,4.9723628 L39.2023088,4.97238827 L39.2021885,4.97242647 C39.1480691,5.06193373 39.0941902,5.15119905 39.0398303,5.23968758 C38.9870338,5.32346455 38.9347183,5.40851491 38.8821624,5.49399822 L38.8821624,5.49402369 Z" id="Shape"></path>
                    <path d="M32.1515534,2.12899772 C32.1584774,2.14436096 32.1652755,2.15984148 32.1719477,2.17542624 C31.9518905,2.07683568 31.6862607,2.04633072 31.4465645,2.02475182 C30.9555902,1.98565961 30.4646158,1.99869034 29.9736415,2.02475182 C28.6895547,2.10293625 27.4054679,2.32445879 26.1591484,2.67628872 C25.6504234,2.81733343 25.1482447,2.98553419 24.6620542,3.18576451 C24.2765764,3.28268714 24.0874883,3.36317801 24.0246688,3.50405332 C23.9569395,3.65580929 24.0358731,3.87763154 24.1737236,4.26553055 L24.1737236,4.26554358 L24.1737236,4.26558267 C24.2072105,4.35972975 24.2442225,4.46367595 24.2833745,4.57877646 C24.3017546,4.63574685 24.3260515,4.72959422 24.3489637,4.81852901 L24.3489637,4.81854204 L24.3489637,4.81854204 C24.3733865,4.91270215 24.3962986,5.00135026 24.4092654,5.03485229 C24.5759449,5.5407316 24.6347359,5.53940246 24.9575201,5.53207919 L24.9575201,5.53207919 C24.9725011,5.53174039 24.9881116,5.53138856 25.0043515,5.53107582 C24.9090521,6.08816593 24.8890354,6.66729102 24.8695224,7.23328112 C24.8671304,7.29989425 24.8648644,7.36632495 24.8624725,7.4325211 C24.824957,8.23401573 24.8123679,9.04833261 24.7997788,9.85003573 L24.799527,9.86925607 L24.799527,9.8694385 C24.799527,10.0863612 24.799527,10.3032709 24.7910924,10.5114239 C24.926425,10.2010317 24.9761519,9.85285037 25.0135415,9.51742614 C25.0489168,9.20618697 25.0688076,8.89334501 25.0791306,8.58002092 C25.0782494,8.59728664 25.0773682,8.614396 25.0764869,8.63133596 C25.0676746,8.82376087 25.0276413,9.21594699 24.9609191,9.79882493 C24.9628075,9.69199894 24.9644441,9.58518598 24.9659548,9.47835999 C24.9688503,9.29157739 24.9716199,9.1047948 24.9757743,8.91802523 C24.980684,8.75146634 24.9852161,8.58541564 24.9896222,8.41967769 C25.0073729,7.75918867 25.0249976,7.10356012 25.0728361,6.44024344 C25.0704442,6.24203288 25.0689335,6.04470842 25.0764869,5.84275804 C25.0816485,5.81092395 25.0825297,5.77262661 25.0835368,5.73135826 C25.0850475,5.67124747 25.0866841,5.60485586 25.1016651,5.54305107 L25.2653232,5.54305107 C25.2606653,5.5576064 25.2576439,5.57395998 25.2544966,5.59146026 C25.2492092,5.62094882 25.2434182,5.653669 25.227556,5.68638919 C25.2149669,5.84275804 25.2149669,5.98609616 25.2149669,6.12943428 C25.2149669,6.43194286 25.2202543,6.73628877 25.2255417,7.04109076 C25.23448,7.55030594 25.2432923,8.0607851 25.227556,8.56618227 C25.2149669,8.98316589 25.1897887,9.4001495 25.1268433,9.81713312 C25.0928528,10.0638832 24.9665842,10.2576633 24.8313774,10.4653341 C24.8177812,10.4862485 24.8040591,10.5072931 24.790337,10.5285463 C24.7893299,10.5521449 24.7881969,10.5756263 24.786938,10.5989904 C24.786938,10.6491848 24.8219356,10.6752072 24.8583181,10.6770576 C24.7727123,11.4808977 24.7243702,12.1583658 24.7491707,12.6969262 L24.7491707,12.7751106 C24.7491707,12.8445645 24.7547099,12.9025512 24.7584866,12.9411222 C24.760375,12.9604077 24.7617598,12.9748718 24.7617598,12.9836024 C24.7704463,13.0669992 24.7718311,13.1544354 24.7732159,13.2406989 C24.7778738,13.5319359 24.78228,13.8093603 25.0638979,13.8696926 C25.4289814,13.947877 25.8570103,14 26.1591484,14 C26.2388373,14 26.3148753,13.9941362 26.3871367,13.9827994 C26.744415,14.005082 27.1196956,13.9504832 27.4684133,13.8957541 C27.8497367,13.8415462 28.226654,13.7736561 28.6016828,13.6945595 C29.0634505,13.6682374 29.5482562,13.6275815 30.049176,13.5439242 C31.5220991,13.2963402 33.1335021,12.6969262 33.1335021,12.6969262 C33.2621625,12.6440214 33.3749608,12.6008897 33.472778,12.5632308 L33.4729038,12.5632308 C33.9782298,12.3694638 34.0868736,12.3277654 33.9392036,11.9020512 C33.8888473,11.7587131 33.8259018,11.5502213 33.7377782,11.2505143 C33.7249374,11.2059492 33.711467,11.1588821 33.697619,11.1099648 L33.6973673,11.1093002 C33.5194835,10.4860009 33.2553644,9.56033636 33.0453785,9.60864131 C33.019445,9.60864131 32.8098367,9.69451387 32.5343875,9.80736006 L32.5343875,9.80738612 L32.5338839,9.80759462 L32.533758,9.80760765 L32.5333803,9.80777705 C32.4076154,9.85928755 32.2682542,9.91640128 32.1263752,9.97350197 C31.4339755,10.2471475 30.7919321,10.46867 29.8477506,10.6380696 C29.7436389,10.6534589 29.6371352,10.6703337 29.5267289,10.6878079 C28.9826286,10.7739411 28.3453691,10.8748251 27.4558242,10.8856536 C27.4684133,10.1040048 27.4684133,9.47864667 27.4684133,9.0225969 L27.4684133,9.0222581 C29.2686526,8.86588925 30.2506014,8.52709006 31.1570156,8.18829087 C31.4087973,8.09707571 31.7612917,7.95373759 31.7487026,7.77130726 C31.7348546,7.70328681 31.6591942,7.5250654 31.5526905,7.30343861 C31.4323389,6.97868656 31.3010347,6.65504212 31.1318374,6.35095682 C31.0059465,6.12943428 30.7919321,5.77760435 30.489794,5.84275804 C30.4496348,5.85836887 30.4315065,5.89265274 30.4306253,5.92657175 L30.4254638,5.92857848 C30.4145113,5.92730147 30.4022998,5.92882607 30.3890813,5.93397321 C29.80457,6.13563691 29.2077215,6.29019449 28.6126354,6.444296 L28.6126354,6.44430903 C28.2075186,6.54920647 27.803283,6.65389542 27.4044608,6.77306152 C27.3795344,5.98084477 27.3547339,5.34099645 27.3299334,4.87848343 C28.2461671,4.66773731 29.1319352,4.57271717 29.9963018,4.4799774 C30.0938672,4.46950069 30.1913068,4.45905004 30.2883686,4.44846908 C31.117234,4.35747544 31.7080399,4.47397023 31.9734178,4.52627562 L31.9753062,4.52665351 L32.0099261,4.53318191 C32.1247386,4.55489112 32.1822707,4.56574572 32.239677,4.56574572 C32.2459715,4.56651454 32.2522661,4.56702273 32.2584347,4.56729638 C32.2291021,4.65311682 32.3556225,4.72958119 32.4033351,4.63089941 C32.4101332,4.61665681 32.4168054,4.6023621 32.4232258,4.58800222 C32.4544468,4.64133703 32.5477319,4.64566324 32.5669932,4.56574572 C32.5951928,4.46852339 32.6023685,4.35679784 32.6094184,4.24679235 L32.6094184,4.24671416 L32.6094184,4.24663598 L32.6094184,4.2465578 L32.6094184,4.24646658 L32.6094184,4.2463884 C32.6118104,4.20909442 32.6142023,4.17199591 32.6173496,4.13573137 C32.6203709,4.08345205 32.6218816,4.03045604 32.6223852,3.9770691 C32.7442475,3.39608062 32.696409,2.77749846 32.4788696,2.23324363 C32.4577199,2.17478774 32.4009432,2.16140517 32.3617911,2.17929637 C32.3435369,2.13160387 32.3237721,2.08440654 32.3026224,2.03778256 C32.239677,1.94656739 32.1137861,2.03778256 32.1515534,2.12899772 Z M25.0866841,8.24836257 C25.0866841,8.15494521 25.0873136,8.06141058 25.0886984,7.96795412 C25.0885725,8.06141058 25.087943,8.15488006 25.0866841,8.24836257 Z M31.2393482,2.18191555 C31.4369968,2.19004673 31.6668735,2.19952008 31.8778666,2.25088725 C31.8500448,2.25033996 31.8214675,2.24984479 31.7920091,2.24933659 C31.7422822,2.24846353 31.6900375,2.24756441 31.6354008,2.24627437 C29.7255106,2.18251497 28.2016017,2.43080265 26.0721578,2.8690003 C26.6656073,2.69967889 27.2698834,2.56681749 27.8712641,2.45476617 C28.9665146,2.2593051 30.1121214,2.11596699 31.219961,2.18112068 L31.2393482,2.18191555 Z M26.8325386,13.82617 C27.0314461,13.8124877 27.2302278,13.7832988 27.4228408,13.7512432 C27.2391661,13.7616678 27.0610305,13.7741773 26.8893153,13.7915082 C26.8706835,13.8034965 26.8517999,13.8150938 26.8325386,13.82617 Z" id="Shape"></path>
                    <path d="M17.9545883,14.286586 C17.9143458,14.2626793 17.8741033,14.2507259 17.8204466,14.2626793 C16.814384,12.9358557 15.5266239,11.6807642 14.2925204,10.4615209 L14.0913079,10.2583137 C14.0913079,10.234407 14.0778937,10.2105002 14.0644795,10.1985469 C14.0376512,10.1746401 14.0108229,10.1626868 13.9839945,10.1507334 L13.943752,10.1148733 C13.9303379,10.1029199 13.9303379,10.1029199 13.9169237,10.0909666 C13.8766812,10.0192464 13.782782,9.97143293 13.6888828,10.0192464 C13.3132861,10.1865935 12.9645177,10.4376142 12.6291635,10.6766815 C12.1865094,10.987469 11.7438419,11.2982565 11.3280026,11.6449041 C11.1536185,11.7883445 10.9926484,11.9317849 10.8585068,12.0871667 C10.7914359,12.1708403 10.8450926,12.2425605 10.9255776,12.2784206 C10.6304659,12.5413946 10.3353542,12.8043686 10.0402425,13.0792961 C10.0134142,13.1032028 10,13.1390629 10,13.174923 C10,13.2107831 10.0268283,13.2466432 10.0536567,13.2585965 L10.5768092,13.6171975 C10.5768092,13.6171975 10.5768092,13.6171975 10.5768092,13.6291509 C11.3145885,14.286586 12.6157494,15.1830884 13.9974087,16.151311 C14.1986212,16.2947514 14.4132479,16.4381918 14.6144604,16.5816322 C14.7083596,16.6772591 14.8022588,16.7848394 14.8827438,16.8804663 C14.9229863,16.9282798 15.0168855,16.9402332 15.0705421,16.9043731 C15.0973705,16.9282798 15.137613,16.9521865 15.1644413,16.9760933 C15.1912697,16.9880466 15.218098,17 15.2449263,17 C15.2851688,17 15.3254113,16.9880466 15.3522397,16.9521865 C15.3656538,16.9282798 15.379068,16.9043731 15.379068,16.8804663 C15.3924822,16.8804663 15.3924822,16.8924197 15.4058964,16.8924197 C15.4461389,16.8924197 15.4863814,16.8804663 15.5132097,16.8565596 L17.9545883,14.4778398 C18.0216591,14.418073 18.008245,14.3343995 17.9545883,14.286586 Z M10.9255776,13.4618038 C10.9389918,13.4857105 10.9524059,13.4976639 10.9792343,13.5215706 C11.2609318,13.7367312 11.5560435,13.9518917 11.8645694,14.1909591 L10.6304659,13.3542235 C10.6304659,13.3542235 10.5499809,13.30641 10.5097384,13.2825033 C10.4829101,13.2705499 10.4560817,13.2466432 10.4292534,13.2346898 L10.3353542,13.1629696 C10.3487684,13.1510162 10.3487684,13.1510162 10.3621825,13.1390629 C10.3755967,13.1271095 10.3755967,13.1271095 10.3890109,13.1151561 C10.402425,13.1032028 10.4292534,13.0792961 10.4426675,13.0673427 C10.8585068,12.6967884 11.5694577,12.0752253 11.9316402,11.7644378 C11.5426293,12.1110734 10.7646076,13.1271095 10.9255776,13.4618038 Z M15.137613,16.4262384 L14.1181362,15.7329432 C13.7157112,15.3623889 13.299872,15.0037879 12.8572044,14.6571403 C13.4071853,15.0276947 13.8766812,15.3504355 13.943752,15.4102024 C14.4803187,15.8285702 14.4534904,15.75685 14.815673,16.0317774 L15.2583405,16.3186582 C15.2315122,16.3545183 15.1912697,16.3903783 15.137613,16.4262384 Z M15.4058964,16.6055389 L15.379068,16.5935856 C15.4193105,16.5696788 15.459553,16.5457721 15.4997955,16.509912 L15.4058964,16.6055389 Z" id="Shape" fill-rule="nonzero"></path>
                    <path d="M0.455284307,2.20031612 C0.481300568,2.36565799 0.520326261,2.53099985 0.546342522,2.68362311 C0.702440088,3.52305104 0.858538955,4.28616734 1.14471783,4.85850457 L1.2617884,5.29093714 C1.30081279,5.456279 1.36585344,5.65977668 1.4308941,5.7106511 C2.09430875,6.28298833 3.10894293,7.13513486 4.20162589,7.94912558 C4.25365841,7.9872814 4.31869907,7.9872814 4.37073159,7.94912558 C4.37073159,7.94912558 4.37073159,7.96184419 4.38373972,7.96184419 C4.40975598,7.9872814 4.43577224,8 4.47479663,8 C4.51382102,8 4.55284542,7.9872814 4.57886168,7.96184419 C5.97073164,6.44833019 7.01138208,5.2019069 7.75284552,4.15898129 C7.80487804,4.10810687 7.81788617,4.03179524 7.81788617,3.96820222 C7.86991869,3.9173278 7.90894309,3.85373477 7.96097561,3.81557896 C8.01300813,3.76470454 8.01300813,3.6756743 7.96097561,3.63751849 L7.94796748,3.62479988 C7.94796748,3.59936267 7.93495935,3.56120686 7.90894309,3.54848825 C7.58373982,3.24324173 7.34959347,3.02702545 7.102439,2.79809056 C6.67317069,2.4038138 6.23089425,1.99681844 5.29430886,1.08107888 L5.28130072,1.06836028 C5.26829259,1.05564167 5.25528446,1.04292307 5.2292682,1.04292307 C4.96910559,0.953892831 4.43577224,0.864862596 3.77235759,0.750398967 C2.78373967,0.585057102 1.44390223,0.35612094 0.234148691,0 C0.234148691,0 0.156098607,0 0.143090476,0.0127198769 C0.130082346,0.0254384819 0.117075516,0.0381570869 0.104067385,0.0508756919 C0.091059255,0.0635942969 0.078048783,0.0763129018 0,0.101750112 C0.0130081305,0.101750112 0.0130098216,0.101750112 0.0260179521,0.101750112 L0,0.101750112 C0.0130081305,0.178061742 0.013010602,0.22893489 0.0390268631,0.317965125 C0.0390268631,0.343402335 0.0910579542,0.546900015 0.0910579542,0.572337225 L0.455284307,2.20031612 Z M7.67479674,3.70111151 L7.51869917,3.54848825 C7.55772356,3.59936267 7.60975608,3.63751849 7.67479674,3.70111151 Z M6.02276416,5.83783715 C6.00975603,5.85055576 6.00975603,5.85055576 5.9967479,5.86327436 C5.9967479,5.85055576 6.00975603,5.83783715 6.02276416,5.83783715 Z M5.07317064,1.25913935 C5.15121942,1.33545098 5.47642268,1.6406975 5.55447147,1.70429053 C5.21626007,1.55166727 4.37073159,1.17010912 3.98048767,1.04292307 C4.37073159,1.1192347 4.90406494,1.19554633 5.07317064,1.25913935 Z M0.611383174,0.623212917 C0.806505132,0.953892831 0.962602698,2.09856728 1.11870026,3.21780452 C1.02764335,2.86168358 0.962603999,2.50556264 0.884555216,2.17487891 C0.767482041,1.58982308 0.650408867,1.06836028 0.494311301,0.610494312 C0.520327562,0.610494312 0.559350652,0.610494312 0.611383174,0.623212917 Z M0.533334391,0.356122212 C0.481301869,0.356122212 0.429268046,0.343404879 0.390243655,0.343404879 C0.390243655,0.330686274 0.390243655,0.317965125 0.377235524,0.317965125 C0.442276177,0.317965125 0.481301869,0.330685002 0.533334391,0.356122212 Z" id="Shape" fill-rule="nonzero"></path>
                    <path d="M17.9310054,0.590781318 C17.9437597,0.540501997 17.6759206,0.314245053 17.7652003,0.301675222 C17.9565139,0.289105392 17.9565139,0 17.7652003,0 C17.5101155,0.0125698805 17.2422764,0.075418152 16.9999458,0.113127643 C16.5535474,0.20111658 16.0943947,0.289105392 15.6479963,0.389664034 C14.6404113,0.603351149 13.6455805,0.829608093 12.6507497,1.09357453 C12.3446479,1.18156334 12.0002834,1.24441249 11.7069359,1.39525423 C11.6049019,1.44553355 11.6176562,1.54609219 11.6686732,1.60894134 C11.6431647,1.62151117 11.6304104,1.62151117 11.6049019,1.634081 C11.5156223,1.64665083 11.4390968,1.65922066 11.3498171,1.67179049 C11.2732917,1.68436032 11.235029,1.74720947 11.2477832,1.82262845 C11.2477832,1.83519829 11.2605374,1.86033795 11.2605374,1.87290778 C10.7248593,2.57681827 10.12541,3.31843826 9.47494372,4.11033756 C8.83723168,4.83938772 8.16125691,5.60614736 7.48528215,6.39804667 C5.32981544,8.88687306 2.89375543,11.7150849 0.202604227,14.2039113 C0.151587263,14.2541906 0.151587263,14.3296096 0.202604227,14.3798889 C0.215358468,14.3924587 0.228115259,14.4050285 0.2408695,14.4050285 C0.202606777,14.442738 0.16434533,14.4678777 0.126082608,14.5055872 C0.100574126,14.5307268 0.0878173342,14.5558665 0.0878173342,14.5810062 C0.0750630933,14.593576 0.0495558869,14.6187157 0.0368012634,14.6438553 C-0.0142157001,14.6941346 -0.0142149348,14.7821235 0.0495558869,14.8198329 C0.10057285,14.8701123 0.189852537,14.8701123 0.228115259,14.8072631 C0.2408695,14.7946933 0.240870776,14.7821235 0.253625016,14.7821235 C0.330150462,14.7067045 0.45769032,14.7067045 0.534215765,14.7821235 C0.687266655,14.9455312 0.840317546,15.108939 0.980614196,15.2472072 L0.661758174,14.9832407 C0.61074121,14.9329614 0.521462799,14.9455312 0.483200077,14.9958106 C0.432183113,15.0460899 0.444937354,15.1340787 0.495954318,15.1717882 L3.88858622,17.9748603 C3.9140947,18 3.93960318,18 3.9778659,18 C4.01612863,18 4.04163711,17.9874302 4.06714559,17.9622905 C4.09265407,17.9371508 4.11816255,17.9120112 4.14367104,17.8868715 C4.15642528,17.8994414 4.18193376,17.8994414 4.194688,17.8994414 C4.23295072,17.8994414 4.2584592,17.8868715 4.28396768,17.8617319 C8.8754944,13.3114533 12.5742243,9.87988965 16.8086322,6.81285107 C16.8468949,6.78771141 16.8596492,6.73743209 16.8596492,6.6997226 C16.9106662,6.6997226 16.9489289,6.66201311 16.9744374,6.61173378 C17.7524461,4.26117553 17.9054969,2.1745837 17.9565139,1.14385385 L17.9565139,1.13128528 C17.9565139,1.11871545 17.9692681,1.10614436 17.9692681,1.09357453 C17.9820224,1.06843487 17.9820224,1.05586504 17.9820224,1.05586504 C18.0202851,0.905027075 17.9947766,0.729049451 17.9310054,0.590781318 Z M9.7172743,4.28631519 C9.92134215,4.06005824 10.12541,3.82123147 10.3294779,3.60754435 C9.01579105,5.31704127 6.83481586,7.94413579 3.74828957,11.0740235 C5.85273931,8.77374459 7.9699433,6.39804667 9.7172743,4.28631519 Z M2.28155187,16.1773746 C2.29430611,16.1773746 2.31981459,16.1773746 2.31981459,16.1773746 C2.30706035,16.1773746 2.29430611,16.1773746 2.28155187,16.1773746 Z M3.86307774,17.6229051 C3.85032349,17.6103353 3.85032349,17.6103353 3.86307774,17.6103353 C3.86307774,17.6103353 3.86307774,17.6103353 3.86307774,17.6229051 Z M5.76345963,16.001397 C5.86549355,15.8882685 5.96752748,15.7877099 6.08231565,15.6745814 C6.08231565,15.6745814 6.08231565,15.6871512 6.09506989,15.6871512 C5.98028172,15.7877099 5.87824779,15.8882685 5.76345963,16.001397 Z M6.2863835,15.4986038 C6.35015471,15.4357546 6.41392591,15.3477658 6.49045136,15.2723468 C6.49045136,15.2723468 6.49045136,15.2723468 6.5032056,15.259777 C7.25570581,14.4930174 8.0337145,13.7262577 8.82447744,12.9469282 L8.83723168,12.9343584 C9.02854529,12.7835204 9.25812163,12.6201126 9.46218948,12.4692747 C8.41634173,13.4371516 7.37049398,14.442738 6.2863835,15.4986038 Z M11.235029,2.91620369 C10.814139,3.45670639 10.3422321,4.17318671 9.94685063,4.73882908 C8.69693503,6.52374497 4.67934915,10.8854761 4.59006947,10.9608951 C3.96511166,11.5516771 2.10299249,13.3114533 0.916842991,14.4175984 C0.891334509,14.442738 0.865824752,14.4678777 0.840316271,14.4930174 C0.776545066,14.4175984 0.776546342,14.3044699 0.853071787,14.2416208 C6.52871408,8.97486187 9.97235912,4.58799111 11.3625714,2.66480708 C11.3243086,2.75279589 11.2988002,2.82821488 11.235029,2.91620369 Z M13.4415126,5.49301889 C12.931343,5.20391279 12.6890124,4.75139891 12.8293091,4.31145485 L12.8675718,4.16061688 C12.880326,4.12290739 12.9058345,4.07262807 12.931343,4.03491858 C13.0716396,3.80866164 13.2757075,3.62011418 13.5052838,3.50698571 C13.5180381,3.50698571 13.5307923,3.50698571 13.5435466,3.49441588 C13.5307923,3.46927622 13.5307923,3.43156673 13.5307923,3.39385724 C13.5435466,3.31843826 13.5945635,3.26815893 13.6838432,3.26815893 C13.8368941,3.26815893 14.308801,3.40642707 14.4873604,3.55726503 C14.5383774,3.59497452 14.5893943,3.64525384 14.6404113,3.69553316 C14.7041825,3.77095215 14.8062164,3.89665045 14.8572334,3.99720909 C14.8827419,4.00977892 14.9082503,4.13547722 14.9465131,4.19832637 C14.9720215,4.29888502 14.99753,4.41201349 14.9847758,4.51257213 C14.9720215,4.52514196 14.9847758,4.60056094 14.9720215,4.60056094 C14.9465131,4.76396874 14.8954961,4.92737653 14.8062164,5.06564466 C14.7934622,5.07821449 14.7934622,5.09078432 14.7807079,5.10335415 C14.7807079,5.10335415 14.7807079,5.10335415 14.7679537,5.11592398 C14.7041825,5.21648263 14.6149028,5.30447144 14.5256231,5.36732059 C14.2322756,5.56843787 13.9006653,5.63128702 13.569055,5.54329821 C13.569055,5.54329821 13.4797754,5.50558872 13.4415126,5.49301889 Z M17.165751,5.11592398 C17.0509628,5.5810077 16.9234204,6.05866125 16.7576153,6.54888463 C16.7576153,6.56145446 16.744861,6.58659412 16.7576153,6.59916395 C16.7321068,6.59916395 16.7193525,6.61173378 16.6938441,6.62430361 C15.686259,7.35335377 14.7041825,8.12011342 13.7221059,8.89944289 C14.5638858,8.15782291 15.4056657,7.40363309 16.2857084,6.66201311 C16.5407932,6.43575616 16.7193525,6.14665006 16.7703695,5.81983448 L16.8979119,5.06564466 C16.8979119,5.05307483 16.8979119,5.05307483 16.8979119,5.040505 C16.9616831,4.88966704 17.2040137,4.95251619 17.165751,5.11592398 Z" id="Shape" fill-rule="nonzero"></path>
                </g>
            </g>
        </g>
    </g>
</svg>