<svg width="178" height="30" xmlns="http://www.w3.org/2000/svg" xmlns:xlink="http://www.w3.org/1999/xlink"><defs><path d="M.102 14.474c0 3.067.958 5.915 2.594 8.24L.907 28.08l5.366-1.788a14.317 14.317 0 008.24 2.593c7.959 0 14.41-6.452 14.41-14.41 0-7.96-6.451-14.411-14.41-14.411-7.96 0-14.41 6.452-14.41 14.41z" id="a"/><path d="M4.94.039h8.144c2.197 0 3.997 1.88 3.935 4.25v.991c.571.18.956.644.956 1.275v3.825c0 .631-.372 1.095-.956 1.275v.992c.062 2.357-1.738 4.25-3.935 4.25H4.941c-2.198 0-3.998-1.88-3.936-4.25v-.992c-.57-.18-.955-.644-.955-1.275V6.555c0-.63.384-1.094.955-1.275V4.29C.943 1.932 2.743.039 4.941.039zM2.633 6.13c0 1.88 1.44 3.4 3.19 3.4h6.38c1.751 0 3.191-1.52 3.191-3.4s-1.44-3.4-3.19-3.4h-6.38c-1.751 0-3.191 1.52-3.191 3.4zm10.862 6.092c0 .232.186.425.41.425.223 0 .41-.193.41-.425v-.85c-.013-.232-.187-.425-.41-.425a.421.421 0 00-.41.425v.85zm-9.782 0c0 .232.186.425.41.425.223 0 .409-.193.409-.425v-.85a.413.413 0 00-.41-.425.421.421 0 00-.41.425v.85zm8.143.85c0 .232.187.425.41.425.223 0 .41-.193.41-.425v-1.133c0-.245-.174-.425-.41-.425a.421.421 0 00-.41.425v1.133zm-6.505 0c0 .232.187.425.41.425.223 0 .41-.193.41-.425v-1.133c-.013-.245-.187-.425-.41-.425a.421.421 0 00-.41.425v1.133zm4.879.425c0 .232.186.425.41.425.223 0 .41-.193.41-.425v-1.133a.413.413 0 00-.41-.425.421.421 0 00-.41.425v1.133zm-1.626 0c0 .232.186.425.41.425.223 0 .41-.193.41-.425v-1.133a.413.413 0 00-.41-.425.421.421 0 00-.41.425v1.133zm-1.626 0c0 .232.186.425.41.425.223 0 .409-.193.409-.425v-1.133a.413.413 0 00-.41-.425.421.421 0 00-.41.425v1.133zM9.968 6.13c0-1.249.969-2.266 2.173-2.266 1.204 0 2.172 1.017 2.172 2.266-.012 1.25-.98 2.267-2.172 2.267-1.204 0-2.173-1.017-2.173-2.267zm1.626 0c0 .31.236.567.547.567a.562.562 0 00.546-.567.562.562 0 00-.546-.566.562.562 0 00-.547.566zm-7.87 0c0-1.249.968-2.266 2.173-2.266 1.204 0 2.172 1.017 2.172 2.266-.012 1.25-.98 2.267-2.172 2.267-1.205 0-2.173-1.017-2.173-2.267zm1.626 0c0 .31.236.567.547.567a.562.562 0 00.546-.567.562.562 0 00-.546-.566.562.562 0 00-.547.566z" id="c"/></defs><g fill="none" fill-rule="evenodd"><mask id="b" fill="#fff"><use xlink:href="#a"/></mask><path fill="#05ABFF" mask="url(#b)" d="M-2.427 31.427h33.893V-2.466H-2.427z"/><g transform="translate(5 6)"><mask id="d" fill="#fff"><use xlink:href="#c"/></mask><path fill="#FFF" mask="url(#d)" d="M-2.408 19.447h22.854V-2.511H-2.408z"/></g><g fill="#003F66"><path d="M177.611 23.582V20.19h-6.66l6.397-6.633v-3.291H166.07v3.367h5.97l-6.208 6.532v3.417h11.778zM165.57 11.62a5.189 5.189 0 00-.94-.734 6.061 6.061 0 00-1.192-.557 11.194 11.194 0 00-1.355-.367 7.58 7.58 0 00-1.418-.14 8.397 8.397 0 00-2.897.494c-.903.33-1.694.798-2.359 1.418a6.604 6.604 0 00-1.568 2.24c-.376.874-.577 1.861-.577 2.95 0 1.101.189 2.101.577 2.975.377.873.904 1.62 1.568 2.24a6.631 6.631 0 002.359 1.405 8.797 8.797 0 002.923.481c.965 0 1.894-.152 2.76-.455.865-.304 1.567-.722 2.119-1.254l-2.408-2.974c-.264.316-.615.57-1.054.734a3.687 3.687 0 01-1.317.253c-.477 0-.903-.088-1.292-.266a2.937 2.937 0 01-.979-.734 3.33 3.33 0 01-.627-1.088 4.073 4.073 0 01-.213-1.317c0-.468.075-.899.226-1.316.15-.405.364-.773.627-1.089.263-.316.59-.557.953-.747.377-.19.79-.278 1.242-.278.44 0 .878.1 1.305.29.426.203.765.457 1.003.773l2.534-2.937zm-14.79 7.734a2.634 2.634 0 00-1.868-.746c-.377 0-.715.076-1.054.215-.326.139-.615.329-.865.57-.251.24-.44.518-.59.848a2.528 2.528 0 00-.213 1.012c0 .38.075.722.213 1.025.138.317.339.583.59.81.25.228.539.418.865.545.326.14.677.202 1.054.202.727 0 1.342-.253 1.869-.746.527-.494.778-1.127.778-1.874a2.426 2.426 0 00-.778-1.86zm-5.895-7.645c-.652-.62-1.455-1.089-2.396-1.405a9.099 9.099 0 00-2.91-.469c-.64 0-1.28.09-1.92.254-.639.164-1.228.43-1.768.784-.527.355-.966.81-1.304 1.38-.339.557-.502 1.24-.502 2.05 0 .621.113 1.165.339 1.608.225.443.526.823.89 1.127.364.304.778.544 1.23.721.464.178.915.317 1.38.43.903.216 1.567.419 1.994.621.426.203.64.506.64.912 0 .43-.176.721-.515.898a2.39 2.39 0 01-1.053.253 3.88 3.88 0 01-1.807-.43 4.959 4.959 0 01-1.43-1.076l-2.446 2.595c.69.684 1.556 1.19 2.584 1.544a9.754 9.754 0 003.174.52c.665 0 1.342-.077 2.02-.241a5.734 5.734 0 001.818-.772c.54-.355.979-.823 1.317-1.405.339-.583.502-1.292.502-2.127 0-.646-.125-1.19-.376-1.658a3.71 3.71 0 00-.979-1.177 5.177 5.177 0 00-1.367-.773 8.725 8.725 0 00-1.493-.455c-.853-.19-1.467-.38-1.844-.532-.376-.164-.564-.43-.564-.797 0-.393.176-.671.514-.836.339-.164.715-.24 1.13-.24.526 0 1.028.114 1.505.341.476.228.89.52 1.241.861l2.396-2.506zm-17.373 11.873h4.428V3.354h-4.428v20.228zm-7.263 0h4.428V3.354h-4.428v20.228zm-7.213 0h4.353V10.253h-4.353v13.33zm4.466-18.531a2.73 2.73 0 00-.527-.76 2.571 2.571 0 00-1.756-.696c-.351 0-.677.063-.978.202-.302.14-.565.304-.79.52a2.288 2.288 0 00-.527.759 2.34 2.34 0 00-.189.924c0 .658.239 1.228.715 1.696.477.469 1.066.71 1.781.71.34 0 .653-.064.966-.19.314-.127.577-.292.79-.507.226-.215.402-.468.527-.76.138-.29.201-.607.201-.949a2.44 2.44 0 00-.213-.95zm-10.775 11.227l5.093-6.025h-5.281l-4.215 5.405h-.075V3.354H97.87v20.228h4.378V17.19h.075l4.328 6.392h5.38l-5.305-7.304zm-10.612-4.57c-.653-.62-1.455-1.088-2.396-1.404a9.1 9.1 0 00-2.91-.469c-.64 0-1.28.09-1.92.254-.64.164-1.229.43-1.768.784-.527.355-.966.81-1.305 1.38-.339.557-.502 1.24-.502 2.05 0 .621.113 1.165.34 1.608.225.443.526.823.89 1.127.363.304.777.544 1.229.721.464.178.916.317 1.38.43.903.216 1.568.419 1.994.621.427.203.64.506.64.912 0 .43-.176.721-.514.898a2.39 2.39 0 01-1.054.253 3.88 3.88 0 01-1.806-.43 4.963 4.963 0 01-1.43-1.076l-2.446 2.595c.69.684 1.555 1.19 2.584 1.544a9.699 9.699 0 003.173.52c.678 0 1.343-.077 2.02-.241a5.732 5.732 0 001.819-.772c.54-.355.978-.823 1.317-1.405.339-.583.502-1.292.502-2.127 0-.646-.126-1.19-.377-1.658a3.709 3.709 0 00-.978-1.177 5.18 5.18 0 00-1.367-.773 8.725 8.725 0 00-1.493-.455c-.853-.19-1.468-.38-1.844-.532-.376-.164-.565-.43-.565-.797 0-.393.176-.671.515-.836.338-.164.715-.24 1.129-.24.527 0 1.028.114 1.517.341.477.228.891.52 1.242.861l2.384-2.506zM78.79 23.583h4.352V10.253h-4.352v13.33zm4.478-18.531a2.728 2.728 0 00-.527-.76 2.57 2.57 0 00-1.756-.696c-.351 0-.678.063-.979.202a2.86 2.86 0 00-.79.52 2.287 2.287 0 00-.527.759 2.34 2.34 0 00-.188.924c0 .658.238 1.228.715 1.696.477.469 1.066.71 1.781.71.339 0 .665-.064.966-.19.314-.127.577-.292.79-.507.226-.215.402-.468.527-.76.138-.29.201-.607.201-.949a2.441 2.441 0 00-.213-.95zm-11.691 13.1c-.15.406-.364.773-.64 1.077a3.281 3.281 0 01-1.003.734c-.402.19-.84.279-1.343.279-.489 0-.928-.09-1.317-.279a3.151 3.151 0 01-.966-.747 3.547 3.547 0 01-.614-1.088 3.96 3.96 0 01-.213-1.279c0-.468.075-.899.213-1.316.138-.405.351-.773.614-1.076.264-.304.59-.545.966-.722.377-.177.816-.266 1.317-.266.49 0 .941.089 1.33.266a2.91 2.91 0 011.004.734c.288.317.501.671.652 1.089.15.405.226.835.226 1.291 0 .456-.076.899-.226 1.304zm4.353-7.898h-4.115v1.709h-.05a4.203 4.203 0 00-1.831-1.582 5.763 5.763 0 00-2.384-.507c-.99 0-1.869.19-2.646.57a5.975 5.975 0 00-1.982 1.544 6.696 6.696 0 00-1.23 2.216 8.066 8.066 0 00-.426 2.645c0 .924.138 1.81.426 2.633.289.835.69 1.557 1.23 2.177a5.846 5.846 0 001.982 1.481c.777.367 1.668.545 2.684.545.878 0 1.668-.165 2.358-.481.69-.317 1.242-.747 1.643-1.279h.076v.798c0 1.126-.301 2.025-.916 2.708-.615.684-1.555 1.013-2.822 1.013-.74 0-1.493-.14-2.27-.418a6.47 6.47 0 01-2.108-1.266l-2.17 3.127c.903.684 1.97 1.19 3.198 1.557 1.23.354 2.421.532 3.588.532 1.167 0 2.233-.152 3.199-.469.965-.316 1.78-.784 2.458-1.417.678-.633 1.192-1.43 1.568-2.393.377-.962.552-2.101.552-3.392v-12.05h-.012zm-21.162 13.33h4.353v-13.33h-4.353v13.33zM59.247 5.05a2.728 2.728 0 00-.527-.76 2.57 2.57 0 00-1.756-.696c-.351 0-.677.063-.978.202a2.86 2.86 0 00-.79.52 2.287 2.287 0 00-.527.759A2.34 2.34 0 0054.48 6c0 .658.238 1.228.715 1.696.476.469 1.066.71 1.78.71.34 0 .666-.064.967-.19.313-.127.577-.292.79-.507.226-.215.401-.468.527-.76.138-.29.2-.607.2-.949a2.994 2.994 0 00-.213-.95zM47.356 16.709c-.352.709-.803 1.278-1.38 1.709a5.57 5.57 0 01-1.995.924c-.752.19-1.53.278-2.345.278H39.49V8.544h2.258c.777 0 1.53.089 2.27.266a5.446 5.446 0 011.957.899c.577.418 1.028.987 1.38 1.683.338.71.514 1.595.514 2.659.013 1.063-.163 1.949-.514 2.658zm4.315-7.152c-.615-1.215-1.43-2.177-2.446-2.899-1.004-.721-2.158-1.24-3.45-1.557a16.413 16.413 0 00-3.926-.468h-6.786v18.95h7c1.291 0 2.558-.178 3.812-.545a10.195 10.195 0 003.387-1.709c1.004-.772 1.807-1.772 2.409-2.975.614-1.202.915-2.632.915-4.29.013-1.786-.3-3.292-.915-4.507z"/></g></g></svg>