<?xml version="1.0" encoding="UTF-8"?>
<svg width="121px" height="21px" viewBox="0 0 121 21" version="1.1" xmlns="http://www.w3.org/2000/svg" xmlns:xlink="http://www.w3.org/1999/xlink">
    <title>digiskills</title>
    <defs>
        <path d="M3.75267736e-16,9.74148063 C3.75267736e-16,11.8148409 0.647628644,13.7401523 1.75360105,15.311904 L0.544197915,18.9394394 L4.17173266,17.7307116 C5.80377207,18.8746089 7.74914103,19.4868147 9.74218984,19.4836497 C15.1225834,19.4836497 19.4836705,15.1219418 19.4836705,9.74215665 C19.4836705,4.3610195 15.1225834,3.75267736e-16 9.74218984,3.75267736e-16 C4.36101889,3.75267736e-16 0.000676022255,4.36169552 0.000676022255,9.74148063 L3.75267736e-16,9.74148063 Z" id="path-1"></path>
        <path d="M3.30574883,0 L8.81124027,0 C10.2964612,0 11.5133012,1.27092184 11.4713878,2.87309458 L11.4713878,3.54303264 C11.8573966,3.66471664 12.1176651,3.97839097 12.1176651,4.40496101 L12.1176651,6.99074614 C12.1176651,7.41731618 11.8661848,7.73099051 11.4713878,7.85267452 L11.4713878,8.52328859 C11.5133012,10.116673 10.2964612,11.3963832 8.81124027,11.3963832 L3.30642485,11.3963832 C1.82052793,11.3963832 0.603687874,10.1254613 0.645601254,8.52328859 L0.645601254,7.85267452 C0.260268568,7.73099051 0,7.41731618 0,6.99074614 L0,4.40496101 C0,3.97906699 0.259592546,3.66539267 0.645601254,3.54303264 L0.645601254,2.87377061 C0.603687874,1.27971013 1.82052793,0 3.30642485,0 L3.30574883,0 Z M1.74616548,4.11765156 C1.74616548,5.3885734 2.71963753,6.41612722 3.90264268,6.41612722 L8.21566466,6.41612722 C9.39937963,6.41612722 10.3728517,5.3885734 10.3728517,4.11765156 C10.3728517,2.84672972 9.39937963,1.81917589 8.21634069,1.81917589 L3.9033187,1.81917589 C2.71963753,1.81917589 1.74616548,2.84672972 1.74616548,4.11765156 Z M9.08908542,8.23597913 C9.08908542,8.3928163 9.21482556,8.52328859 9.36625454,8.52328859 C9.51700751,8.52328859 9.64342367,8.3928163 9.64342367,8.23597913 L9.64342367,7.66136022 C9.63463538,7.50452305 9.51700751,7.37405076 9.36625454,7.37405076 C9.29162169,7.37601122 9.22070695,7.40724345 9.16885604,7.46098722 C9.11700514,7.51473099 9.0884094,7.58665976 9.08908542,7.66136022 L9.08908542,8.23597913 Z M2.47626952,8.23597913 C2.47626952,8.3928163 2.60200966,8.52328859 2.75343864,8.52328859 C2.90419161,8.52328859 3.02993175,8.3928163 3.02993175,8.23597913 L3.02993175,7.66136022 C3.03101338,7.62417899 3.02465877,7.58720058 3.01123973,7.55252063 C2.99782069,7.51784069 2.97760762,7.48613525 2.95179033,7.45936477 C2.92596628,7.43266189 2.89506531,7.41129958 2.86088562,7.3966299 C2.82670594,7.38196022 2.78995061,7.37432117 2.75276262,7.37405076 C2.67810272,7.37601122 2.60720827,7.40724345 2.55535736,7.46098722 C2.50350646,7.51473099 2.47485663,7.58665976 2.4755935,7.66136022 L2.4755935,8.23597913 L2.47626952,8.23597913 Z M7.98108494,8.81059805 C7.98108494,8.96743521 8.1075011,9.09790751 8.25825407,9.09790751 C8.40900703,9.09790751 8.53542319,8.96743521 8.53542319,8.81059805 L8.53542319,8.04466484 C8.53542319,7.87903938 8.41779532,7.75735538 8.25825407,7.75735538 C8.18362121,7.75931584 8.11270648,7.79054807 8.06085557,7.84429184 C8.00900466,7.89803561 7.98040892,7.96996438 7.98108494,8.04466484 L7.98108494,8.81059805 Z M3.58356017,8.81059805 C3.58356017,8.96743521 3.70997633,9.09790751 3.8607293,9.09790751 C4.01148226,9.09790751 4.13789842,8.96743521 4.13789842,8.81059805 L4.13789842,8.04466484 C4.12911013,7.87903938 4.01148226,7.75735538 3.8607293,7.75735538 C3.78609644,7.75931584 3.71518171,7.79054807 3.6633308,7.84429184 C3.61147989,7.89803561 3.58288415,7.96996438 3.58356017,8.04466484 L3.58356017,8.81059805 Z M6.88187276,9.09790751 C6.88187276,9.25474467 7.0076129,9.38521697 7.15904188,9.38521697 C7.30979484,9.38521697 7.436211,9.25474467 7.436211,9.09790751 L7.436211,8.33197429 C7.43729264,8.29479307 7.43093803,8.25781465 7.41755279,8.22313471 C7.40409995,8.18845477 7.38388688,8.15674933 7.35813043,8.12997884 C7.33230638,8.10327596 7.30134456,8.08191366 7.26720544,8.06724398 C7.23299871,8.0525743 7.19629071,8.04493524 7.15904188,8.04466484 C7.08440902,8.0466253 7.01349429,8.07785753 6.96164338,8.1316013 C6.90979247,8.18534507 6.88119673,8.25727383 6.88187276,8.33197429 L6.88187276,9.09790751 Z M5.78266057,9.09790751 C5.78266057,9.25474467 5.90840071,9.38521697 6.05982969,9.38521697 C6.21058266,9.38521697 6.33699882,9.25474467 6.33699882,9.09790751 L6.33699882,8.33197429 C6.33808045,8.29479307 6.33172584,8.25781465 6.3183406,8.22313471 C6.30488776,8.18845477 6.2846747,8.15674933 6.25891825,8.12997884 C6.2330942,8.10327596 6.20213238,8.08191366 6.16799325,8.06724398 C6.13378653,8.0525743 6.09707852,8.04493524 6.05982969,8.04466484 C5.98519684,8.0466253 5.9142821,8.07785753 5.86243119,8.1316013 C5.81058029,8.18534507 5.78198455,8.25727383 5.78266057,8.33197429 L5.78266057,9.09790751 Z M4.68344838,9.09790751 C4.68344838,9.25474467 4.80918852,9.38521697 4.96061751,9.38521697 C5.11137047,9.38521697 5.23711061,9.25474467 5.23711061,9.09790751 L5.23711061,8.33197429 C5.23819224,8.29479307 5.23183764,8.25781465 5.21845239,8.22313471 C5.20499955,8.18845477 5.18478649,8.15674933 5.15903004,8.12997884 C5.13320599,8.10327596 5.10224417,8.08191366 5.06810505,8.06724398 C5.03389832,8.0525743 4.99719031,8.04493524 4.95994148,8.04466484 C4.88530863,8.0466253 4.81439389,8.07785753 4.76254299,8.1316013 C4.71069208,8.18534507 4.68209634,8.25727383 4.68277236,8.33197429 L4.68277236,9.09790751 L4.68344838,9.09790751 Z M6.70475492,4.11765156 C6.70475492,3.27329976 7.35982049,2.58578513 8.17375129,2.58578513 C8.98768208,2.58578513 9.64207162,3.27329976 9.64207162,4.11765156 C9.63395936,4.96267937 8.97956981,5.65019401 8.17375129,5.65019401 C7.35982049,5.65019401 6.70475492,4.96267937 6.70475492,4.11765156 Z M7.80396711,4.11765156 C7.80396711,4.32721845 7.96350836,4.50095617 8.17375129,4.50095617 C8.27326176,4.49811688 8.36763447,4.45640631 8.43665634,4.38474795 C8.50567821,4.31302199 8.54380587,4.21716203 8.54285944,4.11765156 C8.54367066,4.01827628 8.5054078,3.92255153 8.43638593,3.85102838 C8.36743166,3.77950522 8.27312656,3.73786225 8.17375129,3.73502296 C8.07430841,3.73765945 7.9798681,3.77923481 7.91071103,3.85075797 C7.84155395,3.92234873 7.80322349,4.01814108 7.80396711,4.11765156 Z M2.48370577,4.11765156 C2.48370577,3.27329976 3.13809531,2.58578513 3.95266832,2.58578513 C4.76659912,2.58578513 5.42098866,3.27329976 5.42098866,4.11765156 C5.4128764,4.96267937 4.75848685,5.65019401 3.95266832,5.65019401 C3.13809531,5.65019401 2.48370577,4.96267937 2.48370577,4.11765156 Z M3.58288415,4.11765156 C3.58288415,4.32721845 3.7424254,4.50095617 3.95266832,4.50095617 C4.0521788,4.49811688 4.14655151,4.45640631 4.21557338,4.38474795 C4.28459525,4.31302199 4.32272291,4.21716203 4.32177648,4.11765156 C4.3225877,4.01827628 4.28432484,3.92255153 4.21530297,3.85102838 C4.1463487,3.77950522 4.0520436,3.73786225 3.95266832,3.73502296 C3.85322545,3.73765945 3.75878514,3.77923481 3.68962806,3.85075797 C3.62047099,3.92234873 3.58214053,4.01814108 3.58288415,4.11765156 Z" id="path-3"></path>
    </defs>
    <g id="Playground" stroke="none" stroke-width="1" fill="none" fill-rule="evenodd">
        <g id="LP" transform="translate(-1004.000000, -526.000000)">
            <g id="Group-8" transform="translate(188.000000, 517.000000)">
                <g id="digiskills" transform="translate(816.558140, 9.000000)">
                    <path d="M120,15.8986913 L120,13.6056238 L115.497692,13.6056238 L119.822206,9.12156822 L119.822206,6.89677898 L112.198027,6.89677898 L112.198027,9.17294591 L116.23388,9.17294591 L112.037134,13.5887233 L112.037134,15.8986913 L119.999324,15.8986913 L120,15.8986913 Z M111.860016,7.81211311 C111.668026,7.62282688 111.454403,7.4563226 111.224555,7.31591278 C110.970371,7.16150929 110.699962,7.03529594 110.418737,6.93936838 C110.118583,6.83755943 109.813021,6.7547467 109.502726,6.69126821 C109.187024,6.62969611 108.865913,6.59800418 108.544127,6.5966251 C107.876893,6.59195378 107.213715,6.70500499 106.58569,6.93058009 C105.975242,7.15366744 105.440509,7.47004585 104.990954,7.88917965 C104.535991,8.31446525 104.174995,8.83027023 103.930951,9.4034695 C103.676767,9.99431295 103.540886,10.6615469 103.540886,11.3977352 C103.540886,12.1420357 103.668654,12.8180579 103.930951,13.4089014 C104.185811,13.9990688 104.542075,14.5040574 104.990954,14.9231912 C105.450649,15.347598 105.993495,15.6711422 106.58569,15.8730025 C107.221151,16.0923041 107.889061,16.2022929 108.561703,16.1981692 C109.214065,16.1981692 109.84209,16.0954138 110.427525,15.8905791 C111.012284,15.6850683 111.486852,15.402491 111.860016,15.0428472 L110.232154,13.032357 C110.053685,13.24598 109.816401,13.4176897 109.519627,13.5285573 C109.235698,13.6394926 108.934192,13.6974953 108.629306,13.6995909 C108.306843,13.6995909 108.018858,13.640101 107.755885,13.519769 C107.503053,13.402682 107.277261,13.2336088 107.094059,13.0235687 C106.907477,12.807512 106.763484,12.5579245 106.670193,12.2880565 C106.573522,12.0012202 106.524848,11.7003903 106.5262,11.3977352 C106.5262,11.0813567 106.576902,10.7899911 106.678981,10.5080899 C106.780385,10.2343009 106.925054,9.98552466 107.102847,9.77190163 C107.280641,9.5582786 107.501701,9.39535723 107.747097,9.26691301 C108.001957,9.13846878 108.281154,9.07897882 108.586716,9.07897882 C108.884166,9.07897882 109.180264,9.14658104 109.468925,9.27502527 C109.756911,9.41225779 109.986082,9.58396744 110.146976,9.79759048 L111.860016,7.81211311 Z M101.861647,13.0404692 C101.524312,12.7119224 101.070025,12.5306132 100.598837,12.5361566 C100.343977,12.5361566 100.115481,12.5875343 99.8863098,12.6815014 C99.6659266,12.7754685 99.4705562,12.9039127 99.3015506,13.0668341 C99.131869,13.2290794 99.0041008,13.4170136 98.9026975,13.640101 C98.8080543,13.8558197 98.7587047,14.0887093 98.7587047,14.3242355 C98.7587047,14.581124 98.8094064,14.8123236 98.9026975,15.0171583 C98.9959885,15.2314574 99.131869,15.4112793 99.3015506,15.5647363 C99.4705562,15.7188694 99.6659266,15.8473136 99.8863098,15.9331685 C100.106693,16.0278116 100.343977,16.069725 100.598837,16.069725 C101.090305,16.069725 101.506059,15.8986913 101.862323,15.5654124 C102.218587,15.2314574 102.388268,14.8035353 102.388268,14.2985466 C102.395704,14.0634937 102.353115,13.82959 102.261852,13.6126545 C102.171265,13.3956513 102.034709,13.2007541 101.862323,13.0411453 L101.861647,13.0404692 Z M97.8764957,7.87227909 C97.4357292,7.45314529 96.8928833,7.13609086 96.2567464,6.92246782 C95.6226375,6.71056865 94.9581076,6.60347996 94.2895216,6.60538767 C93.8568674,6.60538767 93.4242131,6.66625539 92.9915589,6.77712304 C92.5595806,6.88799069 92.1614035,7.06781261 91.7963515,7.30712449 C91.4400878,7.54711239 91.143314,7.85470251 90.9148185,8.2400352 C90.685647,8.6165796 90.5754553,9.0783028 90.5754553,9.62588082 C90.5754553,10.0456906 90.6518458,10.4134467 90.8046269,10.7129246 C90.9567319,11.0124025 91.1602146,11.2692909 91.4062867,11.4748017 C91.6523588,11.6803125 91.932232,11.8425578 92.2377941,11.9622137 C92.5514684,12.0825457 92.8563544,12.1765128 93.1707048,12.2529033 C93.7811529,12.3989241 94.2300316,12.5361566 94.5186931,12.6727131 C94.8066786,12.8099456 94.9513474,13.0147804 94.9513474,13.2892454 C94.9513474,13.579935 94.8323675,13.7766575 94.6031959,13.8963134 C94.3821366,14.0070459 94.1387686,14.0655894 93.8913445,14.067347 C93.4668025,14.0707948 93.0476687,13.9710139 92.6697723,13.7766575 C92.3060723,13.5948075 91.9782015,13.3483298 91.7030604,13.0492575 L90.04951,14.8035353 C90.5159654,15.2659345 91.1014006,15.6080018 91.7963515,15.8473136 C92.4872463,16.0824342 93.2126181,16.2012113 93.9420462,16.1988799 C94.391601,16.1988799 94.849268,16.1467915 95.3076111,16.0359238 C95.7443215,15.9343853 96.1600752,15.7578083 96.5366196,15.5140347 C96.9016716,15.2740468 97.1984454,14.9576683 97.4269409,14.5642234 C97.6561124,14.1701024 97.7663041,13.6908026 97.7663041,13.1263241 C97.7663041,12.6896137 97.6818013,12.3218576 97.5121197,12.0054792 C97.3491983,11.6971454 97.1240829,11.4261281 96.8502939,11.209801 C96.5704207,10.9896205 96.2587744,10.8134491 95.9261715,10.6872358 C95.5996527,10.5547354 95.2616416,10.4518448 94.9168702,10.3796456 C94.3402233,10.2512014 93.9251456,10.1227572 93.6702852,10.0200018 C93.4161008,9.90913415 93.2890087,9.72931223 93.2890087,9.48121206 C93.2890087,9.21553531 93.4079886,9.02760113 93.6364841,8.91605745 C93.8656556,8.8051898 94.11984,8.75381211 94.4003892,8.75381211 C94.755977,8.75381211 95.0953401,8.83087865 95.4178027,8.9843357 C95.7395893,9.13846878 96.0194625,9.33586728 96.2567464,9.56639086 L97.8764957,7.87227909 Z M86.131961,15.8986913 L89.1253876,15.8986913 L89.1253876,2.22411315 L86.131961,2.22411315 L86.131961,15.8986913 Z M81.2220114,15.8986913 L84.2154379,15.8986913 L84.2154379,2.22411315 L81.2220114,2.22411315 L81.2220114,15.8986913 Z M76.3458629,15.8986913 L79.2885878,15.8986913 L79.2885878,6.88799069 L76.3458629,6.88799069 L76.3458629,15.8993673 L76.3458629,15.8986913 Z M79.3649783,3.37132292 C79.2764194,3.18104969 79.1560874,3.00729845 79.0087145,2.857546 C78.6869279,2.55576967 78.262386,2.38756857 77.8216195,2.38703452 C77.5843356,2.38703452 77.3639524,2.42962392 77.1604697,2.52359101 C76.956311,2.61823413 76.7785171,2.72910178 76.6264121,2.87512258 C76.4743071,3.02014964 76.3526231,3.19474591 76.2701484,3.38822347 C76.1856456,3.58560845 76.1423802,3.79814309 76.1423802,4.01286804 C76.1423802,4.45769068 76.3039495,4.84302337 76.6257361,5.15940178 C76.9481987,5.47645622 77.3463758,5.63937758 77.8297317,5.63937758 C78.0595793,5.63937758 78.2711743,5.59611216 78.4827692,5.51093336 C78.6950402,5.42507853 78.8728341,5.31353486 79.0168268,5.16819007 C79.1696078,5.02284529 79.2885878,4.85181166 79.3730905,4.65441316 C79.4663816,4.4583667 79.508971,4.24406765 79.508971,4.01286804 C79.5049149,3.79129498 79.4555653,3.57287895 79.3649783,3.3706469 L79.3649783,3.37132292 Z M72.0808385,10.9610248 L75.5238198,6.88799069 L71.9537463,6.88799069 L69.1043125,10.541891 L69.0536108,10.541891 L69.0536108,2.22411315 L66.0933094,2.22411315 L66.0933094,15.8986913 L69.0529348,15.8986913 L69.0529348,11.5775571 L69.1036365,11.5775571 L72.0294608,15.8986913 L75.6664605,15.8986913 L72.0801624,10.9610248 L72.0808385,10.9610248 Z M64.9068903,7.87160307 C64.4654478,7.45246927 63.9232779,7.13609086 63.287141,6.92246782 C62.6529645,6.71058217 61.9885022,6.60349348 61.3199162,6.60538802 C60.887262,6.60538802 60.4546077,6.66625539 60.0219535,6.77712304 C59.5892992,6.88799069 59.1911221,7.06781261 58.8267461,7.30712449 C58.4704824,7.54711239 58.1737086,7.85470251 57.9445371,8.2400352 C57.7153656,8.6165796 57.6051739,9.0783028 57.6051739,9.62588082 C57.6051739,10.0456906 57.6815644,10.4134467 57.8350215,10.7129246 C57.9871265,11.0124025 58.1906092,11.2692909 58.4366813,11.4748017 C58.6820774,11.6803125 58.9619506,11.8425578 59.2675126,11.9622137 C59.581187,12.0825457 59.886749,12.1765128 60.2004234,12.2529033 C60.8108715,12.3989241 61.2604263,12.5361566 61.5484117,12.6727131 C61.8370732,12.8099456 61.981066,13.0147804 61.981066,13.2892454 C61.981066,13.579935 61.8620861,13.7766575 61.6335905,13.8963134 C61.4123285,14.0071135 61.1685548,14.065657 60.9210631,14.067347 C60.4965887,14.0706595 60.0775901,13.9709463 59.7001669,13.7766575 C59.3365345,13.5948075 59.0089341,13.3483298 58.7334551,13.0492575 L57.0799046,14.8035353 C57.54636,15.2659345 58.1311192,15.6080018 58.8267461,15.8473136 C59.5172353,16.0830426 60.2422015,16.2018197 60.9717648,16.1988997 C61.4301078,16.1988997 61.8796626,16.1467915 62.3373297,16.0359238 C62.7743105,15.9344529 63.1904022,15.7578759 63.5670142,15.5140347 C63.9320662,15.2740468 64.228164,14.9576683 64.4573355,14.5642234 C64.686507,14.1701024 64.7966987,13.6908026 64.7966987,13.1263241 C64.7966987,12.6896137 64.7115199,12.3218576 64.5418383,12.0054792 C64.3791197,11.697213 64.1540043,11.4261957 63.8806885,11.209801 C63.6010181,10.9896881 63.2893719,10.8134491 62.9565661,10.6872358 C62.6299797,10.5547354 62.2921714,10.4518448 61.9472649,10.3796456 C61.3706179,10.2512014 60.9548642,10.1227572 60.7006798,10.0200018 C60.4464955,9.90913415 60.3187273,9.72931223 60.3187273,9.48121206 C60.3187273,9.21553531 60.4377072,9.02760113 60.6668787,8.91605745 C60.8953742,8.8051898 61.1502346,8.75381211 61.4301078,8.75381211 C61.7863716,8.75381211 62.1250587,8.83087865 62.4556336,8.9843357 C62.7780962,9.13846878 63.0579694,9.33586728 63.2952532,9.56639086 L64.9068903,7.87227909 L64.9068903,7.87160307 Z M53.1948047,15.8993673 L56.1368536,15.8993673 L56.1368536,6.88799069 L53.1948047,6.88799069 L53.1948047,15.8993673 Z M56.2220324,3.37199894 C56.1334059,3.1817122 56.0128711,3.00796096 55.8657687,2.85822203 C55.5441173,2.55638485 55.1197781,2.38817699 54.6786736,2.38771054 C54.4413898,2.38771054 54.2203305,2.43029994 54.0168478,2.52426703 C53.8205309,2.61099393 53.640033,2.72979808 53.4827902,2.87579861 C53.3303472,3.02081214 53.2091364,3.19540841 53.1265265,3.3888995 C53.0422265,3.58633856 52.9989611,3.79886643 52.9994305,4.01354406 C52.9994305,4.4583667 53.1603276,4.84369939 53.4827902,5.16007781 C53.8052528,5.47713224 54.2034299,5.64005361 54.6867858,5.64005361 C54.9159574,5.64005361 55.1363406,5.59678818 55.3398233,5.51160938 C55.5520943,5.42575455 55.7298882,5.31421088 55.8738809,5.16886609 C56.026662,5.02352131 56.1456419,4.85248768 56.2301447,4.65508918 C56.3234357,4.45904273 56.3660251,4.24474367 56.3660251,4.01354406 C56.361631,3.79197777 56.312687,3.57356174 56.2220324,3.37132292 L56.2220324,3.37199894 Z M48.3186562,12.2278905 C48.2172529,12.5023555 48.0725841,12.7504557 47.886002,12.9559665 C47.6936736,13.1630321 47.4634881,13.3314968 47.2079516,13.4521668 C46.9361907,13.580611 46.6400929,13.640777 46.3000538,13.640777 C45.9694789,13.640777 45.6727051,13.579935 45.4097324,13.4521668 C45.1612267,13.3280491 44.9393562,13.1564747 44.7566949,12.9471782 C44.5759266,12.728485 44.4353816,12.4794384 44.3416173,12.2116659 C44.2464333,11.9333476 44.1977597,11.6411708 44.1976245,11.3470335 C44.1976245,11.0306551 44.2483262,10.7392895 44.3416173,10.4573882 C44.4349083,10.1835992 44.5789011,9.93482299 44.7566949,9.72998825 C44.9351648,9.52447748 45.1555481,9.36155612 45.4097324,9.24190018 C45.6645928,9.12224424 45.9613666,9.06207826 46.3000538,9.06207826 C46.6313047,9.06207826 46.9361907,9.12224424 47.1991634,9.24190018 C47.4584855,9.35648595 47.6900231,9.52569432 47.8778897,9.73810052 C48.0725841,9.95239957 48.2165768,10.1917114 48.3186562,10.4742888 C48.4200595,10.7480778 48.4714372,11.0387673 48.4714372,11.3470335 C48.4714372,11.6552996 48.4200595,11.9547775 48.3186562,12.2285665 L48.3186562,12.2278905 Z M51.2613811,6.88866671 L48.4795495,6.88866671 L48.4795495,8.04398875 L48.4457484,8.04398875 C48.1468789,7.57388287 47.7164556,7.20193542 47.2079516,6.97452154 C46.7013406,6.74670204 46.1518021,6.62982455 45.5963146,6.63175416 C44.9270526,6.63175416 44.332829,6.76022248 43.8075597,7.01711094 C43.2920251,7.26615754 42.8353045,7.62194805 42.4676836,8.0608893 C42.0976966,8.50273745 41.8154573,9.01124139 41.6361762,9.55895462 C41.4411438,10.1347904 41.3438642,10.7391543 41.3481907,11.3470335 C41.3481907,11.971678 41.4414818,12.5706338 41.6361762,13.1270001 C41.8315466,13.6914787 42.1026316,14.1795667 42.4676836,14.5987005 C42.8377382,15.0241889 43.294594,15.3655802 43.8075597,15.5998895 C44.332829,15.8479897 44.9351648,15.9683216 45.6220034,15.9683216 C46.215551,15.9683216 46.7496086,15.8567779 47.2160639,15.6431549 C47.6825193,15.4288559 48.0556835,15.1381663 48.3267685,14.7785225 L48.3781462,14.7785225 L48.3781462,15.3179882 C48.3781462,16.0791893 48.1746635,16.6869333 47.7589098,17.1486565 C47.3431561,17.6110557 46.7076952,17.833467 45.851175,17.833467 C45.3509185,17.833467 44.8418737,17.7388239 44.3166045,17.5508897 C43.7912676,17.359305 43.307506,17.0688182 42.8915495,16.6950455 L41.4245812,18.8089671 C42.0350293,19.2713664 42.7563451,19.6134336 43.5865004,19.8615338 C44.4180078,20.1008457 45.2231503,20.2211776 46.0120683,20.2211776 C46.8009862,20.2211776 47.521626,20.1184222 48.1746635,19.9041232 C48.8270249,19.6905002 49.3779831,19.3741217 49.8363262,18.9461997 C50.2946693,18.5182776 50.6421447,17.9794878 50.8963291,17.3284784 C51.1511895,16.678145 51.2694933,15.9081556 51.2694933,15.0354109 L51.2694933,6.88934273 L51.2613811,6.88934273 L51.2613811,6.88866671 Z M36.9553981,15.9000434 L39.898123,15.9000434 L39.898123,6.88866671 L36.9553981,6.88866671 L36.9553981,15.9000434 Z M39.9833018,3.3706469 C39.8946753,3.18036015 39.7741405,3.00660891 39.6270381,2.85686998 C39.3053867,2.55503281 38.8810475,2.38682495 38.439943,2.38635849 C38.2026592,2.38635849 37.9822759,2.42894789 37.7787932,2.52291499 C37.5824764,2.60964188 37.4019784,2.72844603 37.2447356,2.87444656 C37.0922926,3.01946009 36.9710818,3.19405636 36.8884719,3.38754745 C36.8038339,3.585142 36.7603657,3.79791324 36.7607018,4.01286804 C36.7607018,4.45769068 36.921597,4.84302337 37.2440596,5.15940178 C37.5658462,5.47645622 37.9646993,5.63937758 38.4473792,5.63937758 C38.6772268,5.63937758 38.8976101,5.59611216 39.1010928,5.51093336 C39.3126877,5.42507853 39.4911576,5.31353486 39.6351503,5.16819007 C39.7879314,5.02284529 39.9062353,4.85181166 39.9914141,4.65441316 C40.0847051,4.4583667 40.1266185,4.24406765 40.1266185,4.01286804 C40.1139769,3.79237662 40.0653033,3.57543432 39.9826258,3.3706469 L39.9833018,3.3706469 Z M31.9447212,11.2523904 C31.7067613,11.7316901 31.4018753,12.1163468 31.0118105,12.4077124 C30.6082252,12.7034721 30.1497469,12.9158107 29.6631461,13.032357 C29.1547773,13.1608012 28.628832,13.2202912 28.0778739,13.2202912 L26.6271301,13.2202912 L26.6271301,5.73266866 L28.1535884,5.73266866 C28.6788577,5.73266866 29.1879024,5.79283464 29.6881589,5.91249058 C30.1652278,6.0249942 30.6149854,6.23161364 31.0111344,6.52023458 C31.4011993,6.80281189 31.7060853,7.18746855 31.9440451,7.65798004 C32.1725407,8.13795584 32.2915206,8.73623553 32.2915206,9.45552321 C32.3003089,10.1741349 32.181329,10.7730906 31.9440451,11.2523904 L31.9447212,11.2523904 Z M34.8617572,6.4174792 C34.4460035,5.59611216 33.8950454,4.94577875 33.2082068,4.45769068 C32.5294804,3.97027864 31.7493507,3.61942309 30.87593,3.40512403 C30.0072414,3.19310317 29.1160412,3.08687303 28.2218666,3.08872129 L23.6343796,3.08872129 L23.6343796,15.8993673 L28.3665354,15.8993673 C29.2392801,15.8993673 30.0958003,15.7790354 30.9435322,15.5309352 C31.7723355,15.2925022 32.5490175,14.9006121 33.2332196,14.3756132 C33.9119459,13.853724 34.4547918,13.1777018 34.8617572,12.364447 C35.2768349,11.5518682 35.4803176,10.5851564 35.4803176,9.4643115 C35.4891058,8.25693576 35.2775109,7.23884624 34.8617572,6.4174792 Z" id="Shape" fill="#434B69"></path>
                    <g id="Clipped">
                        <mask id="mask-2" fill="white">
                            <use xlink:href="#path-1"></use>
                        </mask>
                        <g id="Path"></g>
                        <g id="Group" mask="url(#mask-2)">
                            <g transform="translate(-1.709695, -1.710336)">
                                <polygon id="Path" fill="#434B69" points="-3.00214189e-16 22.9124223 22.9124223 22.9124223 22.9124223 6.00428378e-16 -3.00214189e-16 6.00428378e-16"></polygon>
                                <g id="Clipped" stroke-width="1" fill="none" transform="translate(5.054652, 5.749569)">
                                    <mask id="mask-4" fill="white">
                                        <use xlink:href="#path-3"></use>
                                    </mask>
                                    <g id="Shape"></g>
                                    <polygon id="Path" fill="#FFFFFF" mask="url(#mask-4)" points="-1.66166946 13.1202399 13.7881161 13.1202399 13.7881161 -1.72385675 -1.66166946 -1.72385675"></polygon>
                                </g>
                            </g>
                        </g>
                    </g>
                </g>
            </g>
        </g>
    </g>
</svg>