<svg width="76" height="180" viewBox="0 0 76 180" fill="none" xmlns="http://www.w3.org/2000/svg">
<g clip-path="url(#clip0_2067_73907)">
<path d="M70.6995 35.46C70.6995 35.7857 70.3103 36.1113 69.857 36.1113C69.4693 36.1113 68.3688 37.9361 67.525 40.1524C64.9349 46.9319 39.0259 98.4944 38.9617 96.8634C38.9617 96.0156 38.5726 95.4289 37.924 95.4289C37.0174 95.4289 36.8877 95.951 37.2769 98.493C37.6646 101.427 37.4066 102.079 28.2081 120.07C23.0266 130.304 17.4559 140.994 15.838 143.863C14.1531 146.861 12.8574 150.12 12.7277 151.489C12.5338 153.835 12.7919 154.161 18.4281 159.05C21.6667 161.919 25.8119 165.504 27.6251 167.133C35.7872 174.629 39.6089 177.628 40.6452 177.432C42.199 177.171 66.2306 151.814 66.2948 150.381C66.2948 149.728 65.1288 139.82 63.7034 128.348C61.243 108.793 58.911 85.9123 59.1704 83.6959C59.3643 82.3274 58.3921 75.4173 57.6794 72.4191C57.0978 70.0723 57.3558 69.0939 62.0199 58.4039C64.7397 52.0819 68.3033 44.324 69.857 41.1953C71.3466 38.0666 72.6424 35.3281 72.6424 35.133C72.6424 34.9379 72.1891 34.8074 71.6716 34.8074C71.1528 34.8074 70.6995 35.0684 70.6995 35.46V35.46ZM55.802 84.1521C56.5148 88.7153 57.9388 99.6665 58.9751 108.467C60.9822 124.633 63.3156 142.557 63.9628 147.122C64.3519 149.403 64.0925 149.859 59.8817 154.553C52.5634 162.831 44.7904 170.979 42.1348 173.065L39.6731 175.021L27.0435 163.157C15.3833 152.336 14.4112 151.228 15.1239 149.925C15.513 149.208 18.8158 143.145 22.4436 136.496C26.0714 129.846 30.8638 120.983 33.0661 116.81C35.3326 112.573 37.4066 108.923 37.7943 108.727C38.2476 108.466 38.3773 115.05 38.2476 129.066C37.9882 149.99 38.0537 150.054 40.1264 149.598C40.3858 149.598 40.5797 139.038 40.5797 126.198V102.861L47.3819 89.1715C51.138 81.6101 54.2469 75.5478 54.3766 75.6138C54.5063 75.6784 55.1549 79.5243 55.802 84.1521ZM28.144 5.27912C23.3516 9.12508 15.9663 15.6436 10.1363 21.2497L5.53773 25.6164L6.38016 31.353C6.83346 34.4817 7.67589 40.6086 8.19336 44.9107C8.77636 49.2129 9.35937 53.2553 9.55325 53.842C9.81267 54.6239 9.55325 55.0155 8.8419 55.0155C7.61035 55.0155 7.54481 54.6884 10.9145 65.4445C11.7397 68.2092 12.5817 70.9688 13.4404 73.7231C13.5701 74.1793 14.0876 74.3744 14.6706 74.1793C15.2536 73.9182 15.5772 73.3961 15.3833 72.9413C15.1895 72.4191 15.513 71.897 16.0305 71.7019C16.7432 71.4408 16.6791 70.92 15.5772 69.0294C13.8296 66.0958 9.35937 41.0648 9.09995 32.9826C8.90607 27.246 8.90607 27.1814 11.3023 23.9222C13.6343 20.7275 19.0111 15.9032 27.3015 9.77637C29.6336 8.0176 31.9656 6.06095 32.6128 5.40966C33.5849 4.23622 34.0382 4.56187 42.199 13.2967C46.9272 18.3161 52.1743 23.4646 53.8591 24.77L56.9681 27.1155L54.5705 32.1994C53.2761 34.9379 48.029 45.4974 42.8475 55.5362C32.0298 76.6553 34.2321 74.6355 21.6667 74.8306L13.5046 74.8965L10.7848 78.0252C7.93394 81.3504 7.54618 82.5871 8.90607 84.6742C9.42491 85.3915 9.81267 86.5649 9.81267 87.2808C9.81267 88.4542 10.266 88.6507 12.8574 88.7813C14.4767 88.8458 15.9663 89.0423 16.1616 89.2374C16.3555 89.4326 16.6135 93.4736 16.8088 98.2319L17.0682 106.838L12.7277 116.222C5.53774 131.869 2.68823 139.038 2.68823 141.385C2.68823 142.623 2.94765 143.666 3.20707 143.666C3.85425 143.666 3.85425 143.602 30.2166 88.2591C42.4584 62.5768 54.053 38.3923 55.9959 34.4158C57.9388 30.4407 59.6878 26.7898 59.8176 26.2677C59.9473 25.681 55.4784 21.1837 48.3526 14.8603C41.9409 9.12508 36.3047 3.9092 35.7872 3.32248C34.2976 1.49775 32.0953 2.08584 28.144 5.27912V5.27912ZM24.9053 90.6706C24.3865 92.0405 23.0266 94.9081 21.9261 97.0599C20.1116 100.709 19.9177 100.84 19.4644 99.3408C19.205 98.4284 19.0111 95.7545 18.9456 93.3431C18.8814 88.5848 18.7517 88.6507 24.1926 88.3251L25.9403 88.2591L24.9053 90.6706V90.6706ZM30.3463 80.2416C27.3657 86.0428 27.2374 86.1087 19.0753 86.499C11.8853 86.8906 11.7569 86.8246 11.7569 85.4561C11.7569 84.6729 11.4975 83.6313 11.1726 83.1092C10.7848 82.5225 11.0442 81.4796 11.9508 80.0451L13.3749 77.8301H19.8522C23.4157 77.7642 27.4954 77.5031 28.9209 77.2434C30.3463 76.9823 31.5765 76.8518 31.7062 76.9164C31.8359 76.9823 31.1874 78.4814 30.3463 80.2416V80.2416ZM30.0869 20.7921C28.9209 21.6399 28.5973 22.4877 28.5973 24.6394C28.5973 27.1814 28.7912 27.5716 30.5402 28.2889C32.2878 29.0061 32.7425 28.9402 34.7509 27.5716C37.4066 25.7469 37.4707 25.2907 35.5278 22.3571C33.8443 19.8152 32.1595 19.359 30.0869 20.7921V20.7921Z" fill="#191919"/>
<path fill-rule="evenodd" clip-rule="evenodd" d="M68.9859 34.2371C69.4665 33.3921 70.4331 32.7463 71.6715 32.7463C72.7693 32.7463 73.6882 33.2134 74.0391 33.5666C74.506 34.0365 74.6903 34.5834 74.6903 35.133C74.6903 35.2553 74.6821 35.5507 74.5279 35.9739C74.2985 36.606 73.086 39.185 71.6879 42.1173C70.1437 45.2267 66.6033 52.9379 63.8944 59.2324C61.6143 64.4634 60.4019 67.3145 59.8393 69.1489C59.4284 70.4886 59.4584 71.0808 59.6714 71.9396C60.4333 75.1411 61.4054 82.5266 61.2033 83.9364C60.948 86.1293 63.3019 108.75 65.7363 128.093C67.1781 139.698 68.3441 149.72 68.3441 150.38L68.3414 150.475C68.3291 150.727 68.2226 151.31 67.7311 152.041C67.0402 153.069 65.0932 155.359 62.5359 158.193C56.7441 164.611 47.7819 173.939 43.8674 177.509C42.9362 178.358 42.2303 178.916 41.8576 179.133C41.6003 179.29 41.3174 179.4 41.022 179.459C40.4622 179.564 39.3494 179.438 37.8134 178.445C35.7722 177.128 32.0925 174.026 26.2624 168.671C24.4506 167.043 20.3095 163.462 17.09 160.611C14.7525 158.583 13.312 157.308 12.4327 156.357C11.5084 155.359 11.0756 154.584 10.8489 153.831C10.6236 153.084 10.6032 152.334 10.6892 151.293C10.8312 149.782 12.1952 146.157 14.0561 142.843C15.67 139.985 21.2202 129.332 26.3867 119.127C30.947 110.208 33.2954 105.589 34.4505 102.832C35.3748 100.63 35.4008 99.9289 35.252 98.8063C35.0062 97.2014 34.9857 96.2176 35.1004 95.635C35.2369 94.9328 35.5387 94.4643 35.8923 94.1235C36.3647 93.6687 37.0024 93.3678 37.924 93.3678C38.1957 93.3678 38.4578 93.4008 38.7077 93.464C44.262 83.476 63.4111 45.1759 65.6121 39.4173C66.4108 37.315 67.4594 35.537 68.0615 34.8994C68.3728 34.5696 68.6923 34.3635 68.9859 34.2371V34.2371ZM53.3921 81.856C51.979 84.5913 50.5863 87.3372 49.2141 90.0935L42.629 103.347V126.198C42.629 137.879 42.4597 147.692 42.2371 149.539C42.0433 151.141 40.869 151.546 40.3475 151.636L40.5659 151.612C39.6498 151.813 38.9084 151.796 38.3172 151.546C37.6413 151.26 36.8726 150.683 36.5013 149.057C36.048 147.079 36.0425 141.909 36.2009 129.046C36.2555 123.176 36.2651 118.617 36.2227 115.328C35.7722 116.127 35.3134 116.96 34.8765 117.776C32.6714 121.953 27.8722 130.83 24.2403 137.488C20.9867 143.452 17.9925 148.944 17.1309 150.532C17.3098 150.788 17.617 151.203 17.9638 151.59C19.5544 153.359 22.6756 156.3 28.432 161.641L39.7863 172.307L40.8759 171.441C43.4933 169.384 51.1406 161.342 58.3634 153.172C59.5895 151.805 60.4715 150.808 61.0941 150.025C61.5993 149.388 61.9051 148.981 62.0157 148.569C62.1072 148.229 62.0212 147.912 61.9461 147.469L61.9365 147.413C61.288 142.846 58.9546 124.904 56.9434 108.709C55.9098 99.9371 54.4899 89.0217 53.7799 84.4722L53.7744 84.4406C53.6529 83.5681 53.5218 82.6928 53.3921 81.856ZM26.8618 3.66871C29.1461 1.82336 30.9579 0.787333 32.3779 0.420463C34.4764 -0.120912 36.0466 0.425959 37.3232 1.95802C37.8625 2.5626 43.4113 7.68092 49.707 13.3131C55.5425 18.4919 59.6263 22.4863 60.963 24.1805C61.9051 25.3731 61.8915 26.3762 61.8164 26.7142C61.8126 26.7317 61.8085 26.7491 61.8041 26.7664C61.6675 27.3133 59.8707 31.1565 57.8336 35.324C55.8907 39.2991 44.3002 63.4754 32.0625 89.1495C10.8762 133.629 6.62177 142.557 5.44074 144.355C4.76215 145.385 4.23239 145.528 3.92382 145.624C3.69114 145.696 3.44888 145.73 3.20564 145.727C2.63219 145.727 1.88944 145.524 1.33783 144.675C1.03336 144.205 0.640137 142.905 0.640137 141.385C0.640137 140.553 0.899555 139.196 1.55493 137.22C2.85884 133.284 5.78754 126.416 10.868 115.359L15.0051 106.41L14.762 98.3171C14.6542 95.8661 14.504 93.4172 14.3115 90.9715C13.7944 90.9082 13.2752 90.8642 12.755 90.8396C11.4169 90.7709 10.5485 90.6582 9.98328 90.4796C9.10263 90.2006 8.59608 89.7458 8.25337 89.2058C7.95163 88.7276 7.76457 88.1203 7.76457 87.2822C7.76457 86.8947 7.52837 86.2722 7.24983 85.8861L7.19522 85.8037C6.34733 84.5052 6.02238 83.3909 6.11659 82.2215C6.23264 80.8159 7.09964 79.1684 9.2337 76.6786L11.4278 74.1545C11.1302 73.2105 10.0679 69.7603 8.96063 66.0641C6.8334 59.2722 6.06334 56.6615 6.02238 55.675C5.97596 54.5345 6.40741 53.9643 6.80063 53.6002C6.96501 53.4499 7.15213 53.327 7.35497 53.236C7.06005 51.5391 6.60402 48.4296 6.16028 45.1594C5.60356 40.6511 5.0014 36.1486 4.35391 31.6525L3.51148 25.9173C3.46345 25.5891 3.49484 25.254 3.603 24.9407C3.71115 24.6273 3.89287 24.3448 4.13272 24.1173L8.72169 19.7588C14.5941 14.1115 22.0326 7.54626 26.8632 3.67008L26.8618 3.66871ZM21.5656 101.652C21.1424 102.039 20.73 102.193 20.3941 102.258C19.9141 102.365 19.4119 102.301 18.9742 102.075L19.1148 106.773V106.798L21.5656 101.651V101.652ZM38.5316 103.676C38.4323 103.93 38.3299 104.184 38.2243 104.436C37.8938 105.215 37.5469 105.988 37.1839 106.752C37.6304 106.601 38.0714 106.623 38.5015 106.773L38.5316 106.784V103.676V103.676ZM40.6124 98.1852L40.5687 98.2361C40.2606 98.5872 39.8476 98.8283 39.3917 98.9231C39.4491 99.4878 39.4696 100.02 39.3917 100.641L40.6124 98.1852ZM22.7617 90.5084C21.9889 90.5854 21.3499 90.6678 21.0318 90.7131C21.0126 90.8753 20.9908 91.0896 20.984 91.2738C20.9676 91.8234 20.9826 92.4953 20.9935 93.2881C21.0017 93.6124 21.0126 93.9422 21.0263 94.2706C21.6953 92.902 22.3507 91.4964 22.7617 90.5084ZM28.8867 86.2818C28.5257 86.6312 28.122 86.9327 27.6851 87.1791C27.8708 87.4828 27.9719 87.8249 27.9869 88.1712L28.3692 87.3673L28.888 86.2818H28.8867ZM28.4784 79.3883C26.5929 79.6177 23.0443 79.8321 19.8903 79.8898H14.489L13.6779 81.1539C13.4185 81.5634 13.1864 82.1157 13.0922 82.3548C13.3858 82.9649 13.637 83.8292 13.7448 84.644H13.764C14.8166 84.6605 16.4455 84.578 18.9783 84.4406C22.5692 84.2689 24.411 84.2895 25.6658 83.5942C26.1109 83.3469 26.4317 82.9718 26.7813 82.4538C27.2919 81.6967 27.8053 80.6991 28.4784 79.3883ZM34.6498 74.2081C34.1971 74.6716 33.6942 75.0827 33.1507 75.4338C33.3637 75.6275 33.5603 75.8913 33.6736 76.2513L34.6485 74.2081H34.6498ZM55.4593 69.9183C54.8175 71.2003 54.1745 72.4823 53.5341 73.7492C54.3533 73.3878 55.1616 73.7038 55.2927 73.7698C55.4005 73.8247 55.7132 73.9759 55.9986 74.3538C55.9059 73.8736 55.804 73.3954 55.6927 72.9192C55.4401 71.9011 55.2981 71.0835 55.4606 69.9183H55.4593ZM33.4961 7.39237C32.4612 8.3171 30.4951 9.9426 28.5139 11.4376C20.4638 17.3872 15.2181 22.0397 12.9488 25.1478C12.1378 26.2512 11.6244 26.9038 11.3418 27.6225C10.9104 28.7244 11.0455 29.9377 11.1466 32.9153C11.3268 38.5008 13.5523 52.2783 15.457 61.0365C16.2148 64.5183 16.8538 67.1634 17.3453 67.9878C18.0662 69.2244 18.398 70.0489 18.4949 70.5834C18.6151 71.2484 18.5168 71.765 18.3338 72.1869C18.2401 72.4076 18.116 72.6139 17.9652 72.7997L21.6352 72.7709C24.1257 72.731 26.0317 72.7818 27.5718 72.7173C28.7965 72.6664 29.7386 72.5661 30.5579 72.1745C31.5273 71.7128 32.2782 70.8444 33.2176 69.4017C35.0103 66.6495 37.1826 62.0986 41.0302 54.5854C46.1967 44.5754 51.4301 34.0434 52.7204 31.3173L54.3997 27.7544L52.6098 26.4023C50.8921 25.0736 45.5345 19.8316 40.7079 14.7092C37.1525 10.9044 34.5365 8.37756 33.4961 7.39237V7.39237ZM17.303 72.2199L17.3016 72.2171L17.2661 72.1292L17.303 72.2212V72.2199ZM15.2508 69.7974L15.3314 69.7644C15.3042 69.7746 15.2774 69.7856 15.2508 69.7974V69.7974ZM72.7406 35.6057L72.7379 35.6359L72.7392 35.6235L72.7406 35.6057V35.6057ZM72.7447 35.5576L72.7474 35.46L72.7447 35.5576ZM28.888 19.1226C27.1936 20.3537 26.5492 21.5134 26.5492 24.638C26.5492 26.9244 26.8932 27.9976 27.5432 28.7643C27.9978 29.3015 28.6641 29.7453 29.7687 30.1974C30.7818 30.6137 31.5082 30.7979 32.1854 30.802C33.1889 30.8089 34.1747 30.453 35.8991 29.2782C37.9404 27.8766 38.7282 26.7705 38.8893 25.685C39.0408 24.6628 38.6326 23.3286 37.2317 21.2139C36.0411 19.4166 34.7673 18.4576 33.5084 18.1003C32.0939 17.6991 30.5729 17.956 28.9263 19.0937L28.888 19.1212V19.1226ZM34.7085 25.0104C34.5338 24.6779 34.1965 24.0623 33.8238 23.5003C33.2777 22.6773 32.8817 22.085 32.2905 22.0493C31.9628 22.0287 31.6447 22.217 31.2747 22.4725C30.6452 22.9356 30.6452 23.4632 30.6452 24.638C30.6452 25.2124 30.6999 25.8527 30.7244 26.1014C30.861 26.1728 31.1095 26.2965 31.3129 26.3803C31.6993 26.5383 31.9546 26.6771 32.214 26.6799C32.3287 26.6799 32.4216 26.6015 32.5622 26.5246C32.8558 26.3666 33.1903 26.1467 33.5958 25.8705C34.0204 25.5779 34.4587 25.222 34.7085 25.0104V25.0104ZM26.8673 3.66733L26.8605 3.67146L26.8673 3.66733Z" fill="#191919"/>
</g>
<defs>
<clipPath id="clip0_2067_73907">
<rect width="75.0947" height="180" fill="white" transform="translate(0.525391)"/>
</clipPath>
</defs>
</svg>
