<?xml version="1.0" encoding="UTF-8"?>
<svg width="34px" height="50px" viewBox="0 0 34 50" version="1.1" xmlns="http://www.w3.org/2000/svg" xmlns:xlink="http://www.w3.org/1999/xlink">
    <title>Figma-logo</title>
    <g id="Playground" stroke="none" stroke-width="1" fill="none" fill-rule="evenodd">
        <g id="LP" transform="translate(-867.000000, -2746.000000)" fill-rule="nonzero">
            <g id="Group-12" transform="translate(772.000000, 2746.000000)">
                <g id="Figma-logo" transform="translate(95.882353, 0.000000)">
                    <path d="M8.19672131,50 C12.7213115,50 16.3934426,46.3278689 16.3934426,41.8032787 L16.3934426,33.6065574 L8.19672131,33.6065574 C3.67213115,33.6065574 0,37.2786885 0,41.8032787 C0,46.3278689 3.67213115,50 8.19672131,50 Z" id="path0_fill" fill="#0ACF83"></path>
                    <path d="M0,25.4098361 C0,20.8852459 3.67213115,17.2131148 8.19672131,17.2131148 L16.3934426,17.2131148 L16.3934426,33.6065574 L8.19672131,33.6065574 C3.67213115,33.6065574 0,29.9344262 0,25.4098361 Z" id="path1_fill" fill="#A259FF"></path>
                    <path d="M0,8.19672131 C0,3.67213115 3.67213115,0 8.19672131,0 L16.3934426,0 L16.3934426,16.3934426 L8.19672131,16.3934426 C3.67213115,16.3934426 0,12.7213115 0,8.19672131 Z" id="path1_fill_1_" fill="#F24E1E"></path>
                    <path d="M16.3934426,0 L24.5901639,0 C29.1147541,0 32.7868852,3.67213115 32.7868852,8.19672131 C32.7868852,12.7213115 29.1147541,16.3934426 24.5901639,16.3934426 L16.3934426,16.3934426 L16.3934426,0 Z" id="path2_fill" fill="#FF7262"></path>
                    <path d="M32.7868852,25.4098361 C32.7868852,29.9344262 29.1147541,33.6065574 24.5901639,33.6065574 C20.0655738,33.6065574 16.3934426,29.9344262 16.3934426,25.4098361 C16.3934426,20.8852459 20.0655738,17.2131148 24.5901639,17.2131148 C29.1147541,17.2131148 32.7868852,20.8852459 32.7868852,25.4098361 Z" id="path3_fill" fill="#1ABCFE"></path>
                </g>
            </g>
        </g>
    </g>
</svg>