<?xml version="1.0" encoding="UTF-8"?>
<svg width="120px" height="14px" viewBox="0 0 120 14" version="1.1" xmlns="http://www.w3.org/2000/svg" xmlns:xlink="http://www.w3.org/1999/xlink">
    <title>Frame</title>
    <g id="Playground" stroke="none" stroke-width="1" fill="none" fill-rule="evenodd">
        <g id="LP" transform="translate(-612.000000, -530.000000)" fill="#434B69" fill-rule="nonzero">
            <g id="Group-8" transform="translate(188.000000, 517.000000)">
                <g id="Frame" transform="translate(424.000000, 13.000000)">
                    <path d="M42.5021332,0 L36.2790698,13.9534884 L38.0977658,13.9534884 L39.429204,10.8320427 L47.0635698,10.8320427 L48.4191799,13.9534884 L50.2325581,13.9534884 L44.0093014,0 L42.5021332,0 Z M46.4564192,9.36694307 L40.0496491,9.36694307 L40.188106,9.02843595 L43.2477405,2.01809497 L46.3073268,9.02843595 L46.4564192,9.36694307 Z" id="Shape"></path>
                    <polygon id="Path" points="8.48849795 0 4.14987046 6.24173216 1.64631732 6.24173216 1.64631732 0 0 0 0 7.71175621 1.64631732 7.71175621 4.08171137 7.71175621 8.43081426 13.9534884 10.3785907 13.9534884 5.55762383 7.02197273 10.4651163 0"></polygon>
                    <polygon id="Path" points="90.6976744 1.47000962 94.3105724 1.47000962 94.3105724 13.9534884 96.0117127 13.9534884 96.0117127 1.47000962 100.465116 1.47000962 100.465116 0 90.6976744 0 90.6976744 0.0800886929"></polygon>
                    <polygon id="Path" points="117.950072 0 113.352252 6.70161989 108.759271 0 106.744186 0 112.515053 8.28269447 112.515053 13.9534884 114.188967 13.9534884 114.188967 8.28269447 120 0"></polygon>
                    <polygon id="Path" points="29.3023256 12.5581395 20.2325581 12.5581395 20.2325581 13.9534884 29.3023256 13.9534884"></polygon>
                    <polygon id="Path" points="21.627907 0 20.2325581 0 20.2325581 12.5581395 21.627907 12.5581395"></polygon>
                    <path d="M70.4651163,13.9534884 L65.9748193,7.5837556 C68.061467,7.10586569 68.9251885,5.51734115 68.9251885,3.82028835 C68.9251885,1.80036402 67.5698986,0 64.5955504,0 L58.6046512,0 L58.6046512,13.9482929 L60.2687899,13.9482929 L60.2687899,7.72066668 L64.1255632,7.72066668 L68.5079549,13.9534884 L70.4651163,13.9534884 Z M60.2687899,6.24057418 L60.2687899,1.40516436 L64.574449,1.40516436 C66.3153203,1.40516436 67.3694347,2.37379824 67.3694347,3.82028835 C67.3694347,5.05239188 66.6563009,6.24317193 65.1082203,6.24317193 L60.2687899,6.24057418 Z" id="Shape"></path>
                    <polygon id="Path" points="80.9302326 0.697674419 79.5348837 0.697674419 79.5348837 12.5581395 80.9302326 12.5581395"></polygon>
                    <polygon id="Path" points="82.3255814 12.5581395 78.1395349 12.5581395 78.1395349 13.9534884 82.3255814 13.9534884"></polygon>
                    <polygon id="Path" points="82.3255814 0 78.1395349 0 78.1395349 1.39534884 82.3255814 1.39534884"></polygon>
                    <rect id="Rectangle" x="0" y="9.06976744" width="3.48837209" height="1.39534884"></rect>
                    <rect id="Rectangle" x="0" y="12.5581395" width="1.39534884" height="1.39534884"></rect>
                </g>
            </g>
        </g>
    </g>
</svg>