<?xml version="1.0" encoding="UTF-8"?>
<svg width="51px" height="50px" viewBox="0 0 51 50" version="1.1" xmlns="http://www.w3.org/2000/svg" xmlns:xlink="http://www.w3.org/1999/xlink">
    <title>Group 11</title>
    <g id="Playground" stroke="none" stroke-width="1" fill="none" fill-rule="evenodd">
        <g id="LP" transform="translate(-1038.000000, -2746.000000)" fill="#434B69" fill-rule="nonzero">
            <g id="Group-12" transform="translate(772.000000, 2746.000000)">
                <g id="Group-11" transform="translate(266.669238, 0.000000)">
                    <path d="M49.8801636,41.8166879 C49.7739681,41.7445882 49.6677726,41.7085384 49.5261786,41.7445882 C46.8712911,37.7430568 43.4730352,33.9578603 40.2163733,30.2807774 L39.6853958,29.6679302 C39.6853958,29.5958305 39.6499973,29.5237309 39.6145988,29.487681 C39.5438018,29.4155814 39.4730048,29.3795315 39.4022078,29.3434817 L39.2960123,29.2353322 C39.2606138,29.1992824 39.2606138,29.1992824 39.2252153,29.1632326 C39.1190198,28.9469336 38.8712303,28.8027342 38.6234408,28.9469336 C37.6322828,29.4516312 36.7119218,30.2086777 35.8269594,30.9296744 C34.6588443,31.86697 33.4906938,32.8042657 32.3933403,33.8497108 C31.9331598,34.2823088 31.5083778,34.7149068 31.1543928,35.1835186 C30.9774003,35.4358675 31.1189943,35.6521664 31.3313853,35.7603159 C30.5526184,36.5534123 29.7738514,37.3465086 28.9950844,38.1756548 C28.9242874,38.2477544 28.8888889,38.3559039 28.8888889,38.4640534 C28.8888889,38.5722029 28.9596859,38.6803524 29.0304829,38.7164023 L30.4110244,39.7978972 C30.4110244,39.7978972 30.4110244,39.7978972 30.4110244,39.8339471 C32.3579418,41.8166879 35.7915609,44.5204254 39.4376063,47.4404619 C39.9685838,47.8730599 40.5349598,48.3056578 41.0659372,48.7382558 C41.3137267,49.0266545 41.5615162,49.351103 41.7739072,49.6395017 C41.8801027,49.783701 42.1278922,49.8197508 42.2694862,49.7116013 C42.3402832,49.783701 42.4464787,49.8558007 42.5172757,49.9279003 C42.5880727,49.9639502 42.6588697,50 42.7296667,50 C42.8358622,50 42.9420577,49.9639502 43.0128547,49.8558007 C43.0482532,49.783701 43.0836517,49.7116013 43.0836517,49.6395017 C43.1190502,49.6395017 43.1190502,49.6755515 43.1544487,49.6755515 C43.2606442,49.6755515 43.3668397,49.6395017 43.4376367,49.567402 L49.8801636,42.3934852 C50.0571561,42.2132361 50.0217576,41.9608872 49.8801636,41.8166879 Z M31.3313853,39.3292494 C31.3667838,39.4013491 31.4021823,39.4373989 31.4729793,39.5094986 C32.2163478,40.1583956 32.9951148,40.8072926 33.8092803,41.5282892 L30.5526184,39.0048009 C30.5526184,39.0048009 30.3402274,38.8606016 30.2340319,38.7885019 C30.1632349,38.7524521 30.0924379,38.6803524 30.0216409,38.6443026 L29.7738514,38.4280036 C29.8092499,38.3919538 29.8092499,38.3919538 29.8446484,38.3559039 C29.8800469,38.3198541 29.8800469,38.3198541 29.9154454,38.2838043 C29.9508439,38.2477544 30.0216409,38.1756548 30.0570394,38.1396049 C31.1543928,37.0220601 33.0305133,35.1475048 33.9862728,34.2102092 C32.9597163,35.2556183 30.9066033,38.3198541 31.3313853,39.3292494 Z M42.4464787,48.269608 L39.7561928,46.1787177 C38.6942378,45.0611729 37.5968843,43.9796779 36.4287338,42.9342327 C37.8800723,44.0517775 39.1190198,45.025123 39.2960123,45.2053722 C40.7119523,46.4671164 40.6411553,46.2508174 41.5969147,47.0799635 L42.7650652,47.9451595 C42.6942682,48.053309 42.5880727,48.1614585 42.4464787,48.269608 Z M43.1544487,48.8103555 L43.0836517,48.7743057 C43.1898472,48.702206 43.2960427,48.6301063 43.4022382,48.5219568 L43.1544487,48.8103555 Z" id="Shape"></path>
                    <path d="M1.2014447,8.02861199 C1.27009872,8.4649308 1.37308319,8.90124961 1.44173721,9.30400543 C1.85366134,11.5191625 2.26558891,13.5329416 3.02078315,15.0432759 L3.32971939,16.1844174 C3.43270042,16.6207363 3.60433547,17.157744 3.77597053,17.291996 C5.52664809,18.8023303 8.20415496,21.0510503 11.0876239,23.1990814 C11.2249319,23.2997703 11.396567,23.2997703 11.533875,23.1990814 C11.533875,23.1990814 11.533875,23.2326444 11.568202,23.2326444 C11.6368561,23.2997703 11.7055101,23.3333333 11.8084911,23.3333333 C11.9114721,23.3333333 12.0144532,23.2997703 12.0831072,23.2326444 C15.7560974,19.2386491 18.5022583,15.9494765 20.4588979,13.1973117 C20.5962059,13.0630598 20.630533,12.8616819 20.630533,12.693867 C20.767841,12.559615 20.870822,12.3918001 21.0081301,12.2911111 C21.1454381,12.1568592 21.1454381,11.9219183 21.0081301,11.8212293 L20.9738031,11.7876664 C20.9738031,11.7205404 20.9394761,11.6198514 20.870822,11.5862884 C20.0126468,10.7807768 19.3947606,10.210206 18.7425473,9.6060723 C17.609756,8.56561975 16.4426376,7.49160422 13.9710928,5.07506927 L13.9367658,5.04150628 C13.9024388,5.0079433 13.8681118,4.97438031 13.7994578,4.97438031 C13.1129175,4.73943942 11.7055101,4.50449852 9.95483252,4.20244172 C7.34597968,3.76612291 3.81029754,3.16198581 0.617892378,2.22222222 C0.617892378,2.22222222 0.411926879,2.22222222 0.377599868,2.25578856 C0.343272857,2.28935155 0.308949278,2.32291453 0.274622267,2.35647752 C0.240295256,2.39004051 0.205962066,2.42360349 0,2.49072946 C0.0343270111,2.49072946 0.0343314736,2.49072946 0.0686584846,2.49072946 L0,2.49072946 C0.0343270111,2.69210737 0.0343335332,2.82635596 0.102987555,3.06129686 C0.102987555,3.12842283 0.240291824,3.66543059 0.240291824,3.73255657 L1.2014447,8.02861199 Z M20.2529358,11.9890443 L19.8410117,11.5862884 C19.9439927,11.7205404 20.0813008,11.8212293 20.2529358,11.9890443 Z M15.8934054,17.6276258 C15.8590784,17.6611888 15.8590784,17.6611888 15.8247514,17.6947518 C15.8247514,17.6611888 15.8590784,17.6276258 15.8934054,17.6276258 Z M13.3875336,5.54495107 C13.5934957,5.74632898 14.451671,6.55184063 14.657633,6.71965555 C13.7651307,6.31689973 11.533875,5.31001017 10.5040647,4.97438031 C11.533875,5.17575823 12.9412825,5.37713614 13.3875336,5.54495107 Z M1.61337227,3.86681186 C2.12827743,4.73943942 2.54020156,7.7601081 2.9521257,10.7136508 C2.71183662,9.77388723 2.540205,8.83412364 2.33424293,7.96148601 C2.02529983,6.41758869 1.71635673,5.04150628 1.3044326,3.83324888 C1.37308662,3.83324888 1.47606422,3.83324888 1.61337227,3.86681186 Z M1.4074102,3.16198917 C1.27010216,3.16198917 1.13279068,3.12842954 1.02980965,3.12842954 C1.02980965,3.09486656 1.02980965,3.06129686 0.995482634,3.06129686 C1.16711769,3.06129686 1.27010216,3.0948632 1.4074102,3.16198917 Z" id="Shape"></path>
                    <path d="M49.8083484,1.64105922 C49.8437768,1.50139444 49.0997795,0.872902924 49.3477786,0.837986729 C49.8792053,0.803070534 49.8792053,0 49.3477786,0 C48.6392097,0.0349163348 47.8952123,0.209494867 47.2220718,0.314243452 C45.9820761,0.558657167 44.706652,0.803070534 43.4666564,1.08240009 C40.6678091,1.67597541 37.9043902,2.30446693 35.1409714,3.03770702 C34.2906887,3.28212039 33.3341206,3.45670137 32.5192663,3.87570618 C32.2358387,4.01537096 32.2712672,4.29470053 32.412981,4.4692815 C32.3421241,4.5041977 32.3066956,4.5041977 32.2358387,4.53911389 C31.9878396,4.57403009 31.7752689,4.60894628 31.5272698,4.64386248 C31.3146991,4.67877867 31.2084138,4.85335965 31.2438422,5.06285682 C31.2438422,5.09777301 31.2792707,5.1676054 31.2792707,5.2025216 C29.7912759,7.15782853 28.1261389,9.21788404 26.3192881,11.4176043 C24.5478658,13.4427437 22.6701581,15.5726316 20.7924504,17.7723519 C14.8050429,24.6857585 8.03820953,32.5419024 0.562789518,39.4553091 C0.421075731,39.5949738 0.421075731,39.804471 0.562789518,39.9441358 C0.598217965,39.979052 0.633653498,40.0139682 0.669081945,40.0139682 C0.562796604,40.1187168 0.456514806,40.1885492 0.350229466,40.2932977 C0.279372572,40.3631301 0.243937039,40.4329625 0.243937039,40.5027949 C0.208508592,40.5377111 0.137655242,40.6075435 0.102225732,40.6773759 C-0.0394880558,40.8170407 -0.0394859301,41.061454 0.137655242,41.1662026 C0.279369029,41.3058674 0.527368157,41.3058674 0.633653498,41.1312864 C0.669081945,41.0963702 0.669085488,41.061454 0.704513934,41.061454 C0.917084616,40.8519569 1.271362,40.8519569 1.48393268,41.061454 C1.90907404,41.5153646 2.33421541,41.9692751 2.72392832,42.3533533 L1.83821715,41.6201132 C1.69650336,41.4804484 1.44850778,41.5153646 1.34222244,41.6550294 C1.20050865,41.7946941 1.23593709,42.0391075 1.37765088,42.1438561 L10.8016284,49.9301676 C10.8724853,50 10.9433422,50 11.0496275,50 C11.1559129,50 11.2267697,49.9650838 11.2976266,49.8952514 C11.3684835,49.825419 11.4393404,49.7555866 11.5101973,49.6857542 C11.5456258,49.7206704 11.6164827,49.7206704 11.6519111,49.7206704 C11.7581964,49.7206704 11.8290533,49.6857542 11.8999102,49.6159219 C24.6541511,36.9762592 34.9284007,27.4441379 46.6906451,18.9245863 C46.7969304,18.8547539 46.8323589,18.7150891 46.8323589,18.6103405 C46.9740727,18.6103405 47.080358,18.505592 47.1512149,18.3659272 C49.3123501,11.8365987 49.7374915,6.04051028 49.8792053,3.1773718 L49.8792053,3.1424591 C49.8792053,3.10754291 49.9146337,3.07262322 49.9146337,3.03770702 C49.9500622,2.96787463 49.9500622,2.93295844 49.9500622,2.93295844 C50.0563475,2.5139641 49.9854906,2.02513736 49.8083484,1.64105922 Z M26.9924286,11.9064311 C27.5592838,11.2779396 28.1261389,10.6145319 28.6929941,10.0209565 C25.043864,14.7695591 18.9855996,22.0670439 10.4119155,30.7611765 C16.2576092,24.3715127 22.1387314,17.7723519 26.9924286,11.9064311 Z M6.33764407,44.9371517 C6.37307252,44.9371517 6.44392942,44.9371517 6.44392942,44.9371517 C6.40850097,44.9371517 6.37307252,44.9371517 6.33764407,44.9371517 Z M10.7307715,48.9525141 C10.695343,48.9175979 10.695343,48.9175979 10.7307715,48.9175979 C10.7307715,48.9175979 10.7307715,48.9175979 10.7307715,48.9525141 Z M16.0096101,44.448325 C16.2930376,44.1340792 16.5764652,43.8547497 16.8953212,43.5405039 C16.8953212,43.5405039 16.8953212,43.5754201 16.9307497,43.5754201 C16.6118937,43.8547497 16.3284661,44.1340792 16.0096101,44.448325 Z M17.4621764,43.0516772 C17.6393186,42.8770962 17.8164609,42.6326828 18.0290315,42.4231856 C18.0290315,42.4231856 18.0290315,42.4231856 18.06446,42.3882695 C20.1547384,40.2583815 22.3158736,38.1284936 24.5124373,35.9636895 L24.5478658,35.9287733 C25.0792925,35.509779 25.7170045,35.0558685 26.2838597,34.6368741 C23.378727,37.3254212 20.4735944,40.1187168 17.4621764,43.0516772 Z M31.2084138,8.1005658 C30.039275,9.60196219 28.7284225,11.5921853 27.6301407,13.1634141 C24.1581529,18.1215138 12.9981921,30.2374335 12.750193,30.4469307 C11.0141991,32.0879919 5.84164582,36.9762592 2.54678609,40.0488844 C2.47592919,40.1187168 2.40506876,40.1885492 2.33421186,40.2583815 C2.15706963,40.0488844 2.15707317,39.7346386 2.36964385,39.5600576 C18.1353169,24.9301719 27.7009975,12.7444198 31.5626983,7.4022419 C31.4564129,7.64665526 31.385556,7.85615243 31.2084138,8.1005658 Z M37.3375351,15.2583858 C35.9203972,14.4553133 35.2472567,13.1983303 35.6369696,11.9762635 L35.743255,11.5572691 C35.7786834,11.4525205 35.8495403,11.3128558 35.9203972,11.2081072 C36.3101101,10.5796157 36.8769653,10.0558727 37.5146773,9.74162697 C37.5501058,9.74162697 37.5855342,9.74162697 37.6209627,9.70671078 C37.5855342,9.63687839 37.5855342,9.5321298 37.5855342,9.42738121 C37.6209627,9.21788404 37.7626765,9.07821926 38.0106756,9.07821926 C38.435817,9.07821926 39.7466695,9.46229741 40.2426677,9.88129175 C40.3843815,9.98604034 40.5260953,10.1257051 40.6678091,10.2653699 C40.8449513,10.4748671 41.1283789,10.824029 41.2700927,11.1033586 C41.3409496,11.1382748 41.4118065,11.4874367 41.5180918,11.6620177 C41.5889487,11.9413473 41.6598056,12.255593 41.6243772,12.5349226 C41.5889487,12.5698388 41.6243772,12.779336 41.5889487,12.779336 C41.5180918,13.2332465 41.376378,13.687157 41.1283789,14.0712352 C41.0929505,14.1061514 41.0929505,14.1410676 41.057522,14.1759838 C41.057522,14.1759838 41.057522,14.1759838 41.0220936,14.2109 C40.8449513,14.4902295 40.5969522,14.7346429 40.3489531,14.9092239 C39.5340988,15.467883 38.6129592,15.642464 37.6918196,15.3980506 C37.6918196,15.3980506 37.4438204,15.293302 37.3375351,15.2583858 Z M47.6826416,14.2109 C47.3637856,15.5027992 47.0095011,16.8296146 46.5489313,18.1913462 C46.5489313,18.2262624 46.5135028,18.2960948 46.5489313,18.331011 C46.4780744,18.331011 46.4426459,18.3659272 46.3717891,18.4008434 C43.5729417,20.4259827 40.8449513,22.5558706 38.1169609,24.7206747 C40.4552384,22.6606192 42.7935159,20.5656475 45.2380788,18.505592 C45.9466477,17.8771004 46.4426459,17.074028 46.5843597,16.1662069 L46.9386442,14.0712352 C46.9386442,14.036319 46.9386442,14.036319 46.9386442,14.0014028 C47.1157864,13.5824084 47.7889269,13.7569894 47.6826416,14.2109 Z" id="Shape"></path>
                </g>
            </g>
        </g>
    </g>
</svg>