<?xml version="1.0" encoding="UTF-8"?>
<svg width="165px" height="21px" viewBox="0 0 165 21" version="1.1" xmlns="http://www.w3.org/2000/svg" xmlns:xlink="http://www.w3.org/1999/xlink">
    <title>growmon-logo</title>
    <g id="Playground" stroke="none" stroke-width="1" fill="none" fill-rule="evenodd">
        <g id="LP" transform="translate(-342.000000, -3097.000000)" fill="#434B69" fill-rule="nonzero">
            <g id="Group-10-Copy-2" transform="translate(286.000000, 3042.000000)">
                <g id="growmon-logo" transform="translate(56.000000, 55.500000)">
                    <path d="M15.2225334,11.4317586 C15.7077092,11.1110865 16,10.5657595 16,9.98208168 C15.9993288,9.39708648 15.7057119,8.85274751 15.2188826,8.53307989 C12.0185489,6.43074619 6.09014066,2.53774361 2.65319456,0.281080911 C2.12625586,-0.0659200742 1.45285744,-0.0932534421 0.899420369,0.208080835 C0.344987932,0.509412807 0,1.09241389 0,1.72575526 L0,18.2497207 C0,18.8934031 0.351284282,19.4843922 0.914332863,19.7900138 C1.47738144,20.0958 2.16106096,20.0658306 2.6962671,19.711797 C4.24258916,18.688393 6.15608371,17.4227641 7.58674349,16.4757655 C7.72758463,16.3824324 7.80845818,16.2204332 7.79850451,16.0504312 C7.78823979,15.8804292 7.68914513,15.729084 7.53769548,15.6524316 C5.51151819,14.5637537 4.13155991,12.417421 4.13155991,9.94842379 C4.13155991,9.48775201 4.50272698,9.11341502 4.96139792,9.11341502 C5.42037991,9.11341502 5.79154697,9.48775201 5.79154697,9.94842379 C5.79154697,12.3537608 7.55260961,14.3504279 9.84589883,14.7090886 C10.0560064,14.7380864 10.2697647,14.6887522 10.4473918,14.5717565 C11.7663675,13.7110926 13.7179741,12.4234149 15.2225334,11.4317586 Z M10.9255936,10.0250926 C10.9255936,10.48476 10.5544265,10.8590805 10.0954445,10.8590805 C9.63678994,10.8590805 9.26527908,10.48476 9.26527908,10.0250926 L9.26527908,8.35441644 C9.26527908,7.89374466 9.63678994,7.51942414 10.0954445,7.51942414 C10.5544265,7.51942414 10.9255936,7.89374466 10.9255936,8.35441644 L10.9255936,10.0250926 Z" id="Shape"></path>
                    <path d="M38.2028685,16.0572729 C37.2349127,16.5742816 36.2667878,16.7621594 35.2278575,16.7621594 C32.0635813,16.7621594 29.8677679,14.5773862 29.8677679,11.5001681 C29.8677679,8.37565277 32.0635813,6.23785744 35.2750048,6.23785744 C36.951184,6.23785744 38.3441414,6.8253161 39.5469889,8.09383605 L42,5.841673 C40.3959781,3.9853413 37.9901143,3 35.0859086,3 C29.8206206,3 26,6.54349937 26,11.5001681 C26,16.4568537 29.8206206,20 35.0151032,20 C37.3765235,20 39.8773579,19.2726334 41.6931201,17.9118896 L41.6931201,11.2418403 L38.2028685,11.2418403 L38.2028685,16.0572729 Z" id="Path"></path>
                    <path d="M59,19 L55.4567053,13.8568453 C57.5102736,12.9662442 58.7063559,11.2069089 58.7063559,8.80546284 C58.7063559,5.21556113 56.0658228,3 51.8417782,3 L45,3 L45,19 L48.6558367,19 L48.6558367,14.5420188 L52.0227186,14.5420188 L55.0729952,19 L59,19 Z M55.0052436,8.80546284 C55.0052436,10.5436023 53.875296,11.5958809 51.6383618,11.5958809 L48.6558367,11.5958809 L48.6558367,6.01471739 L51.6383618,6.01471739 C53.875296,6.01471739 55.0052436,7.04414706 55.0052436,8.80546284 Z" id="Shape"></path>
                    <path d="M69.9998317,20 C75.1721353,20 79,16.4098759 79,11.5001681 C79,6.59046042 75.1721353,3 69.9998317,3 C64.8043076,3 61,6.61394935 61,11.5001681 C61,16.3864037 64.8043076,20 69.9998317,20 Z M69.9998317,16.7621594 C67.0612485,16.7621594 64.8514218,14.6243472 64.8514218,11.5001681 C64.8514218,8.37565277 67.0612485,6.23785744 69.9998317,6.23785744 C72.9385832,6.23785744 75.1485782,8.37565277 75.1485782,11.5001681 C75.1485782,14.6243472 72.9385832,16.7621594 69.9998317,16.7621594 Z" id="Shape"></path>
                    <polygon id="Path" points="102.398797 3 98.6114282 14.3372622 94.8936012 3 91.4083568 3 87.5744049 14.2458174 83.9033274 3 80 3 85.3440747 19 89.3638597 19 93.0582288 8.16567627 96.6361403 19 100.679217 19 106 3"></polygon>
                    <polygon id="Path" points="126 19 125.954254 3 122.915261 3 117.030388 12.9430516 111.055167 3 108 3 108 19 111.465573 19 111.465573 9.60594486 116.141122 17.3085895 117.805943 17.3085895 122.504202 9.40018986 122.527075 19"></polygon>
                    <path d="M137.999916,20 C143.1721,20 147,16.4098759 147,11.5001681 C147,6.59046042 143.1721,3 137.999916,3 C132.804343,3 129,6.61394935 129,11.5001681 C129,16.3864037 132.804343,20 137.999916,20 Z M137.999916,16.7621594 C135.061305,16.7621594 132.85129,14.6243472 132.85129,11.5001681 C132.85129,8.37565277 135.061305,6.23785744 137.999916,6.23785744 C140.938695,6.23785744 143.14871,8.37565277 143.14871,11.5001681 C143.14871,14.6243472 140.938695,16.7621594 137.999916,16.7621594 Z" id="Shape"></path>
                    <polygon id="Path" points="161.26397 3 161.26397 12.7144313 153.129197 3 150 3 150 19 153.73603 19 153.73603 9.28589608 161.894227 19 165 19 165 3"></polygon>
                </g>
            </g>
        </g>
    </g>
</svg>