<?xml version="1.0" encoding="utf-8"?>
<!-- Generator: Adobe Illustrator 15.0.0, SVG Export Plug-In  -->
<!DOCTYPE svg PUBLIC "-//W3C//DTD SVG 1.1//EN" "http://www.w3.org/Graphics/SVG/1.1/DTD/svg11.dtd" [
	<!ENTITY ns_flows "http://ns.adobe.com/Flows/1.0/">
]>
<svg version="1.1"
	 xmlns="http://www.w3.org/2000/svg" xmlns:xlink="http://www.w3.org/1999/xlink" xmlns:a="http://ns.adobe.com/AdobeSVGViewerExtensions/3.0/"
	 x="0px" y="0px" width="201px" height="65px" viewBox="-3.239 -3.748 201 65"
	 overflow="visible" enable-background="new -3.239 -3.748 201 65" xml:space="preserve">
<defs>
</defs>
<polygon fill-rule="evenodd" clip-rule="evenodd" fill="#ED1C24" points="21.188,25.297 0.006,25.297 0,25.304 0,56.958 
	0.006,56.964 21.188,56.964 21.194,56.958 21.194,25.304 "/>
<rect x="0.069" y="0.079" fill-rule="evenodd" clip-rule="evenodd" width="21.194" height="20.477"/>
<polygon fill-rule="evenodd" clip-rule="evenodd" fill="#ED1C24" points="86.938,0 86.938,56.959 126.552,56.963 126.539,41.076 
	108.133,41.076 108.133,35.196 123.88,35.196 123.88,20.588 108.133,20.588 108.133,14.887 126.507,14.887 126.545,0.017 "/>
<path fill-rule="evenodd" clip-rule="evenodd" fill="#ED1C24" d="M54.044,0l-25.54,0.13l0.04,56.834l26.034-0.075
	c19.834-0.742,28.11-10.802,28.395-28.242C82.24,11.994,73.96,0.735,54.044,0L54.044,0z M63.595,28.961
	c-0.253,10.387-5.718,11.58-14.425,11.58V17.025C57.97,17.025,63.188,18.532,63.595,28.961z"/>
<path fill-rule="evenodd" clip-rule="evenodd" fill="#ED1C24" d="M167.198,49.649l2.005,7.322l22.077,0.007L171.144,0.08L147.867,0
	l-18.163,56.967l21.191-0.015l2.133-7.325L167.198,49.649L167.198,49.649z M160.622,17.534l3.681,19.359l-8.598,0.006
	L160.622,17.534z"/>
</svg>
