<svg width="653" height="180" viewBox="0 0 653 180" fill="none" xmlns="http://www.w3.org/2000/svg">
<g clip-path="url(#clip0_2067_73906)">
<path d="M70.6995 35.46C70.6995 35.7857 70.3103 36.1113 69.857 36.1113C69.4693 36.1113 68.3688 37.9361 67.525 40.1524C64.9349 46.9319 39.0259 98.4944 38.9617 96.8634C38.9617 96.0156 38.5726 95.4289 37.924 95.4289C37.0174 95.4289 36.8877 95.951 37.2769 98.493C37.6646 101.427 37.4066 102.079 28.2081 120.07C23.0266 130.304 17.4559 140.994 15.838 143.863C14.1531 146.861 12.8574 150.12 12.7277 151.489C12.5338 153.835 12.7919 154.161 18.4281 159.05C21.6667 161.919 25.8119 165.504 27.6251 167.133C35.7872 174.629 39.6089 177.628 40.6452 177.432C42.199 177.171 66.2306 151.814 66.2948 150.381C66.2948 149.728 65.1288 139.82 63.7034 128.348C61.243 108.793 58.911 85.9123 59.1704 83.6959C59.3643 82.3274 58.3921 75.4173 57.6794 72.4191C57.0978 70.0723 57.3558 69.0939 62.0199 58.4039C64.7397 52.0819 68.3033 44.324 69.857 41.1953C71.3466 38.0666 72.6424 35.3281 72.6424 35.133C72.6424 34.9379 72.1891 34.8074 71.6716 34.8074C71.1528 34.8074 70.6995 35.0684 70.6995 35.46ZM55.802 84.1521C56.5148 88.7153 57.9388 99.6665 58.9751 108.467C60.9822 124.633 63.3156 142.557 63.9628 147.122C64.3519 149.403 64.0925 149.859 59.8817 154.553C52.5634 162.831 44.7904 170.979 42.1348 173.065L39.6731 175.021L27.0435 163.157C15.3833 152.336 14.4112 151.228 15.1239 149.925C15.513 149.208 18.8158 143.145 22.4436 136.496C26.0714 129.846 30.8638 120.983 33.0661 116.81C35.3326 112.573 37.4066 108.923 37.7943 108.727C38.2476 108.466 38.3773 115.05 38.2476 129.066C37.9882 149.99 38.0537 150.054 40.1264 149.598C40.3858 149.598 40.5797 139.038 40.5797 126.198V102.861L47.3819 89.1715C51.138 81.6101 54.2469 75.5478 54.3766 75.6138C54.5063 75.6784 55.1549 79.5243 55.802 84.1521ZM28.144 5.27912C23.3516 9.12508 15.9663 15.6436 10.1363 21.2497L5.53773 25.6164L6.38016 31.353C6.83346 34.4817 7.67589 40.6086 8.19336 44.9107C8.77636 49.2129 9.35937 53.2553 9.55325 53.842C9.81267 54.6239 9.55325 55.0155 8.8419 55.0155C7.61035 55.0155 7.54481 54.6884 10.9145 65.4445C11.7397 68.2092 12.5817 70.9688 13.4404 73.7231C13.5701 74.1793 14.0876 74.3744 14.6706 74.1793C15.2536 73.9182 15.5772 73.3961 15.3833 72.9413C15.1895 72.4191 15.513 71.897 16.0305 71.7019C16.7432 71.4408 16.6791 70.92 15.5772 69.0294C13.8296 66.0958 9.35937 41.0648 9.09995 32.9826C8.90607 27.246 8.90607 27.1814 11.3023 23.9222C13.6343 20.7275 19.0111 15.9032 27.3015 9.77637C29.6336 8.0176 31.9656 6.06095 32.6128 5.40966C33.5849 4.23622 34.0382 4.56187 42.199 13.2967C46.9272 18.3161 52.1743 23.4646 53.8591 24.77L56.9681 27.1155L54.5705 32.1994C53.2761 34.9379 48.029 45.4974 42.8475 55.5362C32.0298 76.6553 34.2321 74.6355 21.6667 74.8306L13.5046 74.8965L10.7848 78.0252C7.93394 81.3504 7.54618 82.5871 8.90607 84.6742C9.42491 85.3915 9.81267 86.5649 9.81267 87.2808C9.81267 88.4542 10.266 88.6507 12.8574 88.7813C14.4767 88.8458 15.9663 89.0423 16.1616 89.2374C16.3555 89.4326 16.6135 93.4736 16.8088 98.2319L17.0682 106.838L12.7277 116.222C5.53774 131.869 2.68823 139.038 2.68823 141.385C2.68823 142.623 2.94765 143.666 3.20707 143.666C3.85425 143.666 3.85425 143.602 30.2166 88.2591C42.4584 62.5768 54.053 38.3923 55.9959 34.4158C57.9388 30.4407 59.6878 26.7898 59.8176 26.2677C59.9473 25.681 55.4784 21.1837 48.3526 14.8603C41.9409 9.12508 36.3047 3.9092 35.7872 3.32248C34.2976 1.49775 32.0953 2.08584 28.144 5.27912ZM24.9053 90.6706C24.3865 92.0405 23.0266 94.9081 21.9261 97.0599C20.1116 100.709 19.9177 100.84 19.4644 99.3408C19.205 98.4284 19.0111 95.7545 18.9456 93.3431C18.8814 88.5848 18.7517 88.6507 24.1926 88.3251L25.9403 88.2591L24.9053 90.6706ZM30.3463 80.2416C27.3657 86.0428 27.2374 86.1087 19.0753 86.499C11.8853 86.8906 11.7569 86.8246 11.7569 85.4561C11.7569 84.6729 11.4975 83.6313 11.1726 83.1092C10.7848 82.5225 11.0442 81.4796 11.9508 80.0451L13.3749 77.8301H19.8521C23.4157 77.7642 27.4954 77.5031 28.9209 77.2434C30.3463 76.9823 31.5765 76.8518 31.7062 76.9164C31.8359 76.9823 31.1874 78.4814 30.3463 80.2416ZM30.0869 20.7921C28.9209 21.6399 28.5973 22.4877 28.5973 24.6394C28.5973 27.1814 28.7912 27.5716 30.5402 28.2889C32.2878 29.0061 32.7425 28.9402 34.7509 27.5716C37.4066 25.7469 37.4707 25.2907 35.5278 22.3571C33.8443 19.8152 32.1595 19.359 30.0869 20.7921Z" fill="#191919"/>
<path fill-rule="evenodd" clip-rule="evenodd" d="M68.9859 34.2371C69.4665 33.3921 70.4331 32.7463 71.6715 32.7463C72.7693 32.7463 73.6882 33.2134 74.039 33.5666C74.506 34.0365 74.6903 34.5834 74.6903 35.133C74.6903 35.2553 74.6821 35.5507 74.5279 35.9739C74.2985 36.606 73.086 39.185 71.6879 42.1173C70.1437 45.2267 66.6033 52.9379 63.8944 59.2324C61.6143 64.4634 60.4019 67.3145 59.8393 69.1489C59.4284 70.4886 59.4584 71.0808 59.6714 71.9396C60.4333 75.1411 61.4054 82.5266 61.2033 83.9364C60.948 86.1293 63.3019 108.75 65.7363 128.093C67.1781 139.698 68.3441 149.72 68.3441 150.38L68.3414 150.475C68.3291 150.727 68.2226 151.31 67.7311 152.041C67.0402 153.069 65.0932 155.359 62.5359 158.193C56.7441 164.611 47.7819 173.939 43.8674 177.509C42.9362 178.358 42.2303 178.916 41.8576 179.133C41.6003 179.29 41.3174 179.4 41.022 179.459C40.4622 179.564 39.3494 179.438 37.8134 178.445C35.7722 177.128 32.0925 174.026 26.2624 168.671C24.4506 167.043 20.3095 163.462 17.09 160.611C14.7525 158.583 13.312 157.308 12.4327 156.357C11.5084 155.359 11.0756 154.584 10.8489 153.831C10.6236 153.084 10.6032 152.334 10.6892 151.293C10.8312 149.782 12.1952 146.157 14.0561 142.843C15.67 139.985 21.2202 129.332 26.3867 119.127C30.947 110.208 33.2954 105.589 34.4505 102.832C35.3748 100.63 35.4008 99.9289 35.252 98.8063C35.0062 97.2014 34.9857 96.2176 35.1004 95.635C35.2369 94.9328 35.5387 94.4643 35.8923 94.1235C36.3647 93.6687 37.0024 93.3678 37.924 93.3678C38.1957 93.3678 38.4578 93.4008 38.7077 93.464C44.262 83.4761 63.4111 45.1759 65.6121 39.4173C66.4108 37.315 67.4594 35.537 68.0615 34.8994C68.3728 34.5696 68.6923 34.3635 68.9859 34.2371ZM53.3921 81.856C51.979 84.5913 50.5863 87.3372 49.2141 90.0935L42.629 103.347V126.198C42.629 137.879 42.4597 147.692 42.2371 149.539C42.0433 151.141 40.869 151.546 40.3475 151.636L40.5659 151.612C39.6498 151.813 38.9084 151.796 38.3172 151.546C37.6413 151.26 36.8726 150.683 36.5013 149.057C36.048 147.079 36.0425 141.909 36.2009 129.046C36.2555 123.176 36.2651 118.617 36.2227 115.328C35.7722 116.127 35.3134 116.96 34.8765 117.776C32.6714 121.953 27.8722 130.83 24.2403 137.488C20.9867 143.452 17.9925 148.944 17.1309 150.532C17.3098 150.788 17.617 151.203 17.9638 151.59C19.5544 153.359 22.6756 156.3 28.432 161.641L39.7863 172.307L40.8759 171.441C43.4933 169.384 51.1406 161.342 58.3634 153.172C59.5895 151.805 60.4715 150.808 61.0941 150.025C61.5993 149.388 61.9051 148.981 62.0157 148.569C62.1072 148.229 62.0212 147.912 61.9461 147.469L61.9365 147.413C61.288 142.846 58.9546 124.904 56.9434 108.709C55.9098 99.9371 54.4899 89.0217 53.7799 84.4722L53.7744 84.4406C53.6529 83.5681 53.5218 82.6928 53.3921 81.856ZM26.8618 3.66871C29.1461 1.82336 30.9579 0.787333 32.3779 0.420463C34.4764 -0.120912 36.0466 0.425959 37.3232 1.95802C37.8625 2.5626 43.4113 7.68092 49.707 13.3131C55.5425 18.4919 59.6263 22.4863 60.963 24.1805C61.9051 25.3731 61.8915 26.3762 61.8164 26.7142C61.8126 26.7317 61.8085 26.7491 61.8041 26.7664C61.6675 27.3133 59.8707 31.1565 57.8336 35.324C55.8907 39.2991 44.3002 63.4754 32.0625 89.1495C10.8762 133.629 6.62177 142.557 5.44074 144.355C4.76215 145.385 4.23239 145.528 3.92382 145.624C3.69114 145.696 3.44888 145.73 3.20564 145.727C2.63219 145.727 1.88944 145.524 1.33783 144.675C1.03336 144.205 0.640137 142.905 0.640137 141.385C0.640137 140.553 0.899555 139.196 1.55493 137.22C2.85884 133.284 5.78754 126.416 10.868 115.359L15.0051 106.41L14.762 98.3171C14.6542 95.8661 14.504 93.4172 14.3115 90.9715C13.7944 90.9082 13.2752 90.8642 12.755 90.8396C11.4169 90.7709 10.5485 90.6582 9.98328 90.4796C9.10263 90.2006 8.59608 89.7458 8.25337 89.2058C7.95163 88.7276 7.76457 88.1203 7.76457 87.2822C7.76457 86.8947 7.52837 86.2722 7.24984 85.8861L7.19522 85.8037C6.34733 84.5052 6.02238 83.3909 6.11659 82.2215C6.23264 80.8159 7.09965 79.1684 9.2337 76.6786L11.4278 74.1545C11.1302 73.2105 10.0679 69.7603 8.96063 66.0641C6.8334 59.2722 6.06334 56.6615 6.02238 55.675C5.97596 54.5345 6.40741 53.9643 6.80063 53.6002C6.96501 53.4499 7.15213 53.327 7.35497 53.236C7.06005 51.5391 6.60402 48.4296 6.16028 45.1594C5.60356 40.6511 5.0014 36.1486 4.35391 31.6525L3.51148 25.9173C3.46345 25.5891 3.49484 25.254 3.603 24.9407C3.71115 24.6273 3.89287 24.3448 4.13272 24.1173L8.72169 19.7588C14.5941 14.1115 22.0326 7.54627 26.8632 3.67008L26.8618 3.66871ZM21.5656 101.652C21.1424 102.039 20.73 102.193 20.3941 102.258C19.9141 102.365 19.4119 102.301 18.9742 102.075L19.1148 106.773V106.798L21.5656 101.651V101.652ZM38.5316 103.676C38.4323 103.93 38.3299 104.184 38.2243 104.436C37.8938 105.215 37.5469 105.988 37.1839 106.752C37.6304 106.601 38.0714 106.623 38.5015 106.773L38.5316 106.784V103.676ZM40.6124 98.1852L40.5687 98.2361C40.2606 98.5872 39.8476 98.8283 39.3917 98.9231C39.4491 99.4878 39.4696 100.02 39.3917 100.641L40.6124 98.1852ZM22.7617 90.5084C21.9889 90.5854 21.3499 90.6678 21.0318 90.7131C21.0126 90.8753 20.9908 91.0896 20.984 91.2738C20.9676 91.8234 20.9826 92.4953 20.9935 93.2881C21.0017 93.6124 21.0126 93.9422 21.0263 94.2706C21.6953 92.902 22.3507 91.4964 22.7617 90.5084ZM28.8867 86.2818C28.5257 86.6312 28.122 86.9327 27.6851 87.1791C27.8708 87.4828 27.9719 87.8249 27.9869 88.1712L28.3692 87.3673L28.888 86.2818H28.8867ZM28.4784 79.3883C26.5929 79.6177 23.0443 79.8321 19.8903 79.8898H14.489L13.6779 81.1539C13.4185 81.5634 13.1864 82.1157 13.0922 82.3548C13.3858 82.9649 13.637 83.8292 13.7448 84.644H13.764C14.8166 84.6605 16.4455 84.578 18.9783 84.4406C22.5692 84.2689 24.411 84.2895 25.6658 83.5942C26.1109 83.3469 26.4317 82.9718 26.7813 82.4538C27.2919 81.6967 27.8053 80.6991 28.4784 79.3883ZM34.6498 74.2081C34.1971 74.6716 33.6942 75.0827 33.1507 75.4338C33.3637 75.6275 33.5603 75.8913 33.6736 76.2513L34.6485 74.2081H34.6498ZM55.4593 69.9183C54.8175 71.2003 54.1745 72.4823 53.5341 73.7492C54.3533 73.3878 55.1616 73.7038 55.2927 73.7698C55.4006 73.8247 55.7132 73.9759 55.9986 74.3538C55.9059 73.8736 55.804 73.3954 55.6927 72.9193C55.4401 71.9011 55.2981 71.0835 55.4606 69.9183H55.4593ZM33.4961 7.39237C32.4612 8.3171 30.4951 9.9426 28.5139 11.4376C20.4638 17.3872 15.2181 22.0397 12.9488 25.1478C12.1378 26.2512 11.6244 26.9038 11.3418 27.6224C10.9104 28.7244 11.0455 29.9377 11.1466 32.9153C11.3268 38.5008 13.5523 52.2783 15.457 61.0365C16.2148 64.5183 16.8538 67.1634 17.3453 67.9878C18.0662 69.2244 18.398 70.0489 18.4949 70.5834C18.6151 71.2484 18.5168 71.7651 18.3338 72.1869C18.2401 72.4076 18.116 72.6139 17.9652 72.7997L21.6352 72.7709C24.1257 72.731 26.0317 72.7818 27.5718 72.7173C28.7966 72.6664 29.7386 72.5661 30.5579 72.1745C31.5273 71.7128 32.2782 70.8444 33.2176 69.4017C35.0103 66.6495 37.1826 62.0986 41.0302 54.5854C46.1967 44.5754 51.4301 34.0434 52.7204 31.3173L54.3997 27.7544L52.6098 26.4023C50.8921 25.0736 45.5345 19.8316 40.7079 14.7092C37.1525 10.9044 34.5365 8.37756 33.4961 7.39237ZM17.303 72.2199L17.3016 72.2171L17.2661 72.1292L17.303 72.2212V72.2199ZM15.2508 69.7974L15.3314 69.7644C15.3042 69.7746 15.2774 69.7856 15.2508 69.7974ZM72.7406 35.6057L72.7379 35.6359L72.7392 35.6235L72.7406 35.6057ZM72.7447 35.5576L72.7474 35.46L72.7447 35.5576ZM28.888 19.1226C27.1936 20.3537 26.5492 21.5134 26.5492 24.638C26.5492 26.9244 26.8932 27.9976 27.5432 28.7643C27.9978 29.3015 28.6641 29.7453 29.7687 30.1974C30.7818 30.6137 31.5082 30.7979 32.1854 30.802C33.1889 30.8089 34.1747 30.453 35.8991 29.2782C37.9404 27.8766 38.7282 26.7705 38.8893 25.685C39.0408 24.6628 38.6326 23.3286 37.2317 21.2139C36.0411 19.4166 34.7673 18.4576 33.5084 18.1003C32.0939 17.6991 30.5729 17.956 28.9263 19.0937L28.888 19.1212V19.1226ZM34.7085 25.0104C34.5338 24.6779 34.1965 24.0623 33.8238 23.5003C33.2777 22.6773 32.8817 22.085 32.2905 22.0493C31.9628 22.0287 31.6447 22.217 31.2747 22.4725C30.6452 22.9356 30.6452 23.4632 30.6452 24.638C30.6452 25.2124 30.6999 25.8527 30.7244 26.1014C30.861 26.1728 31.1095 26.2965 31.3129 26.3803C31.6993 26.5383 31.9546 26.6771 32.214 26.6799C32.3287 26.6799 32.4216 26.6015 32.5622 26.5246C32.8558 26.3666 33.1903 26.1467 33.5958 25.8705C34.0204 25.5779 34.4587 25.222 34.7085 25.0104ZM26.8673 3.66733L26.8605 3.67146L26.8673 3.66733Z" fill="#191919"/>
</g>
<path d="M110.279 127.033V128.287C110.591 129.646 111.215 131.005 111.631 131.632C112.982 133.513 114.126 133.931 116.206 133.513C116.83 133.199 117.661 132.781 118.285 132.154C119.325 133.199 120.677 134.036 121.821 134.349L128.371 132.99C129.515 133.304 131.802 131.945 133.986 131.632C136.585 130.587 145.215 129.541 147.815 129.019C155.509 128.601 162.164 127.138 170.17 127.033C170.586 126.719 171.834 125.465 172.146 125.047C172.769 122.957 171.418 120.971 169.546 120.344C162.892 119.09 158.94 118.776 152.494 119.09C147.919 119.508 141.264 119.403 137.313 120.344C137.001 120.553 135.857 120.448 135.338 120.448C134.61 120.448 133.57 120.448 132.322 120.553L124.212 120.971C122.964 121.076 121.925 121.076 121.197 121.076H120.053C120.053 118.254 120.053 115.432 120.157 114.387C120.469 113.446 120.365 110.833 121.509 110.415C123.068 110.519 125.044 111.46 126.707 111.147C126.811 111.147 126.915 111.042 127.123 110.938L128.267 109.997C128.475 109.892 128.579 109.788 128.683 109.788C132.01 107.802 134.194 107.384 138.561 105.816C147.503 102.681 156.133 99.9633 165.595 101.218C166.843 101.322 169.754 102.994 170.794 102.472C172.249 101.949 173.809 100.59 173.497 98.9182C174.225 96.4098 171.106 94.3195 169.546 93.2743C165.595 92.0201 159.98 92.6472 155.717 92.6472C149.167 92.8562 140.744 96.0962 133.986 97.873H129.411C128.371 97.873 123.796 98.2911 122.756 98.6046C122.652 97.873 122.028 96.6188 122.132 95.9917V95.2601C122.132 93.9014 122.756 87.4214 122.756 85.9582L123.484 85.3311C127.227 81.9865 133.05 80.7324 137.937 78.7465C144.28 76.5517 150.518 76.4472 156.965 76.7607C159.148 76.4472 160.5 79.6872 162.268 80.7324C163.723 81.1504 166.219 80.5233 166.843 79.3736V72.7891C166.531 71.0124 163.307 68.922 162.268 68.0859C161.748 68.0859 155.613 66.7272 153.742 66.8317C147.711 66.9362 144.592 68.2949 139.289 69.4446C133.258 71.5349 128.267 73.9388 122.132 74.0433C120.261 74.3569 118.701 73.8343 116.83 73.4162C115.478 73.9388 112.359 74.3569 111.631 76.0291C111.319 78.433 111.319 81.2549 111.631 83.3453C111.631 83.9724 113.086 87.4214 113.606 87.944V97.873C113.606 98.1866 112.982 100.277 112.878 100.59C112.878 101.218 112.255 105.398 112.255 106.443V108.429C112.255 108.743 112.151 109.474 112.047 110.519L111.111 117.627C111.007 118.672 110.903 119.403 110.903 119.717C110.903 120.762 110.279 125.779 110.279 127.033Z" fill="#191919"/>
<path d="M180.238 130.587C179.614 133.199 180.966 135.917 182.213 138.007C183.357 138.843 184.085 139.679 185.541 139.47C186.892 139.679 187.62 138.948 188.764 138.007C191.259 135.917 193.547 132.781 196.042 130.168C199.058 127.347 201.657 123.793 205.712 122.225C206.128 122.33 206.856 122.121 207.168 122.33C211.223 125.152 214.862 129.541 219.021 132.154C221.309 133.408 223.804 132.677 226.3 132.886C228.275 132.259 229.627 131.423 229.627 129.123C229.939 127.66 229.003 126.197 228.275 124.943C227.444 124.002 225.052 123.898 223.7 123.584C222.973 123.27 221.309 122.643 220.997 122.33L215.07 116.372C214.966 115.954 214.966 115.432 215.07 115.014C221.725 107.802 228.691 105.085 238.153 100.486C240.025 99.9633 242 98.9182 243.352 97.7685C244.496 96.7233 243.976 95.1556 244.08 93.7969C243.664 93.0653 242.936 91.2885 241.792 91.8111C235.034 92.2291 228.691 94.9465 222.973 98.5001C218.813 100.277 213.719 104.667 209.871 107.07C209.767 107.07 209.04 107.175 208.728 107.175C208.416 107.175 207.896 107.07 207.896 107.07C203.737 103.83 201.553 99.0227 198.018 95.1556C197.29 94.424 195.73 92.6472 195.419 92.5427C194.691 92.3336 193.755 91.8111 192.923 91.8111C192.403 91.8111 191.883 92.0201 191.467 92.5427C190.532 93.4833 189.076 94.633 188.764 95.7827V100.486C189.804 102.472 192.923 105.816 194.691 107.698C196.562 109.788 198.642 111.356 199.994 113.655C198.122 117.418 193.963 119.508 191.259 122.539C189.18 123.793 187.204 125.361 184.813 126.197C183.461 127.242 181.174 128.914 180.238 130.168V130.587Z" fill="#191919"/>
<path d="M238 112.61C237.584 116.686 238.208 121.285 240.599 124.525C244.238 129.228 250.061 132.468 255.78 134.349C260.875 135.917 265.762 136.648 270.96 137.589C274.704 138.634 277.615 139.366 281.462 138.948C283.438 138.321 286.245 136.335 286.765 134.349C286.973 133.408 285.621 131.214 284.789 130.482L272.208 127.765C266.905 126.824 261.395 125.988 256.3 124.002C253.492 122.957 251.205 120.971 249.229 118.567C246.734 117.313 248.605 112.61 248.501 111.251C251.621 106.861 254.948 102.054 260.355 100.695C262.954 100.59 265.346 100.172 267.737 101.74C268.881 102.367 270.441 106.548 270.96 107.907C271.792 110.206 274.392 109.161 276.159 109.265C277.407 109.161 278.343 107.593 278.863 106.652C279.071 103.308 278.967 99.5453 276.887 96.7233C273.872 93.6924 270.337 89.8253 265.658 90.0343C258.899 88.7801 251.829 92.1246 247.254 97.3504C241.847 101.949 239.039 105.816 238 112.61Z" fill="#191919"/>
<path d="M330.95 117.94C335.006 122.33 339.061 128.078 343.428 131.841L343.844 132.05C346.755 133.618 348.211 135.081 351.33 134.349C352.89 133.931 354.969 133.199 355.905 131.841C356.113 131.109 356.841 129.855 356.633 129.123C356.321 128.81 355.593 127.974 355.281 127.869C352.994 127.556 351.954 125.779 349.354 123.898C348.523 122.852 344.883 120.239 344.052 119.194C340.932 114.073 337.709 107.802 334.902 102.054C334.07 100.799 332.406 100.068 330.95 99.4407C330.639 99.1272 329.703 98.3956 329.599 98.082C330.431 96.0962 327.519 95.5736 326.375 94.7375C323.256 94.424 319.825 93.9014 316.498 93.9014C312.235 93.9014 308.075 94.633 304.644 97.4549C298.821 102.367 291.127 108.325 290.815 116.581C289.671 121.285 292.167 125.047 294.766 129.123C297.47 132.363 302.565 134.245 306.828 133.722C315.978 133.827 323.256 126.824 328.975 120.553C329.391 119.821 330.223 118.463 330.95 117.94ZM300.693 121.18C299.549 119.09 298.51 116.581 300.069 114.596C303.604 109.579 307.867 103.517 313.794 102.681C317.953 101.74 321.696 102.158 325.752 101.218C325.856 102.576 325.128 105.398 325.024 106.652C324.608 110.206 322.424 113.864 320.449 116.581C317.537 119.821 315.874 121.389 311.195 123.166C309.635 123.584 307.971 124.002 306.308 124.002C304.124 124.002 302.045 123.27 300.693 121.18Z" fill="#191919"/>
<path d="M365.782 114.491C365.99 121.285 364.846 128.81 369.837 134.245C370.669 134.767 372.125 135.081 373.58 135.081C374.932 135.081 376.18 134.767 377.012 134.245C377.843 133.199 377.843 132.677 377.739 131.632C374.204 125.779 374.516 120.03 373.788 111.878C374.308 94.633 375.972 74.7749 376.388 56.3801C376.388 55.8575 376.388 55.0214 376.284 53.8717L375.868 46.3466C375.764 45.1969 375.764 44.3607 375.764 43.8382C374.724 41.9569 372.748 40.4937 370.981 40.4937C369.629 40.4937 368.485 41.2253 367.862 43.2111C368.381 55.2304 367.03 71.0124 367.238 82.8227C366.822 94.3195 365.886 103.412 365.782 114.491Z" fill="#191919"/>
<path d="M386.65 74.7749C385.402 77.1788 386.338 80.1053 388.625 81.464C391.849 82.9272 396.32 86.0627 400.167 85.4356H402.454C403.702 84.3904 403.39 81.9865 402.454 80.7324C402.246 80.5233 398.711 76.6562 398.503 76.1336C396.944 74.0433 395.072 71.0124 392.264 71.4304C389.977 71.2214 387.482 72.5801 386.65 74.7749ZM393.304 127.765C393.512 129.123 394.76 131.423 395.28 132.363C396.528 133.618 398.087 133.931 399.855 133.618C401.311 132.781 401.415 130.587 401.83 129.123C401.83 128.601 402.558 123.061 402.454 121.18C401.103 115.223 399.335 110.31 399.231 103.935C398.711 102.681 397.775 100.59 396.528 99.9633C394.448 99.5452 392.368 100.172 391.329 101.949C391.225 103.83 391.225 106.234 391.329 107.907C391.641 110.833 392.784 124.943 393.304 127.765Z" fill="#191919"/>
<path d="M408.563 115.118C408.355 119.821 407.939 125.361 410.539 129.541C410.85 129.959 412.618 131.841 413.138 132.259C415.425 134.349 418.337 134.976 421.248 134.976C423.848 134.976 426.551 134.454 428.943 134.14C434.245 132.363 438.924 128.287 442.771 124.316C444.435 122.748 448.282 116.372 450.674 115.014C452.753 120.762 454.833 127.869 459.2 132.259C460.24 132.886 461.487 134.036 462.631 134.036C463.047 134.036 463.463 133.931 463.775 133.408C465.335 132.154 465.231 130.691 465.127 128.914C463.047 123.898 460.656 119.299 459.2 113.759L457.224 107.07C457.224 107.07 457.12 106.966 457.12 106.757L456.6 105.503C456.6 105.294 456.496 105.189 456.496 105.189V98.5001C457.224 93.9014 459.928 90.3478 460.448 85.9582C460.76 83.3453 461.799 73.8343 461.799 70.8033C461.799 69.2356 460.967 64.1143 461.175 62.8601C460.967 59.8291 461.695 57.2162 460.448 54.2898C460.136 52.4085 456.496 51.0498 454.625 50.9453C452.753 51.5724 451.61 52.8266 451.298 54.9169C450.882 57.6343 449.634 64.1143 449.322 67.4588C447.866 71.8485 447.762 76.2382 447.346 80.7324C447.346 81.464 447.346 83.0317 447.242 84.913L446.827 97.664C446.723 99.5453 446.723 101.008 446.723 101.845C442.771 110.938 437.157 119.717 428.319 124.316C427.071 124.943 425.719 125.152 424.264 125.152C420.104 125.152 415.945 122.643 417.089 117.731C416.985 111.251 422.288 106.548 427.591 103.83C431.23 103.412 433.933 103.935 437.469 105.189C438.82 104.876 441.42 106.13 441.42 103.83C441.524 98.7091 436.429 94.7375 431.542 94.5285C420 92.6472 409.915 103.935 408.563 114.387V115.118Z" fill="#191919"/>
<path d="M470.88 104.98C469.737 111.042 469.529 122.016 469.529 128.705C470.152 130.587 471.608 133.408 473.48 134.558C474.415 135.29 475.455 135.812 476.495 135.812C477.327 135.812 478.159 135.394 478.783 134.558C480.55 131.527 482.734 128.287 480.758 124.734C479.302 119.194 480.342 113.655 480.03 108.011C481.07 104.98 482.838 102.785 484.709 100.277C484.813 100.172 485.229 99.6498 485.333 99.6498C488.868 97.664 492.715 98.3956 496.459 98.2911C500.618 98.6046 503.529 101.008 507.48 103.203C509.248 104.039 512.367 104.562 514.239 104.248C515.59 103.935 514.863 100.904 514.967 99.6498C512.055 96.7233 505.713 92.4382 502.385 90.3478C499.266 88.6756 494.795 87.8395 490.428 87.8395C486.789 87.8395 483.254 88.4665 480.758 89.7207C475.975 94.1104 472.024 98.1865 470.88 104.98Z" fill="#191919"/>
<path d="M554.238 117.94C558.293 122.33 562.348 128.078 566.715 131.841L567.131 132.05C570.042 133.618 571.498 135.081 574.617 134.349C576.177 133.931 578.256 133.199 579.192 131.841C579.4 131.109 580.128 129.855 579.92 129.123C579.608 128.81 578.88 127.974 578.568 127.869C576.281 127.556 575.241 125.779 572.641 123.898C571.81 122.852 568.17 120.239 567.339 119.194C564.219 114.073 560.996 107.802 558.189 102.054C557.357 100.799 555.693 100.068 554.238 99.4407C553.926 99.1272 552.99 98.3956 552.886 98.082C553.718 96.0962 550.806 95.5736 549.663 94.7375C546.543 94.424 543.112 93.9014 539.785 93.9014C535.522 93.9014 531.363 94.633 527.931 97.4549C522.109 102.367 514.414 108.325 514.102 116.581C512.959 121.285 515.454 125.047 518.053 129.123C520.757 132.363 525.852 134.245 530.115 133.722C539.265 133.827 546.543 126.824 552.262 120.553C552.678 119.821 553.51 118.463 554.238 117.94ZM523.98 121.18C522.836 119.09 521.797 116.581 523.356 114.596C526.892 109.579 531.155 103.517 537.081 102.681C541.24 101.74 544.984 102.158 549.039 101.218C549.143 102.576 548.415 105.398 548.311 106.652C547.895 110.206 545.711 113.864 543.736 116.581C540.824 119.821 539.161 121.389 534.482 123.166C532.922 123.584 531.259 124.002 529.595 124.002C527.411 124.002 525.332 123.27 523.98 121.18Z" fill="#191919"/>
<path d="M583.558 102.89C583.558 103.308 584.182 105.921 584.182 106.234V109.161C584.494 115.014 583.454 120.344 584.91 126.092C585.742 128.914 587.197 132.468 589.485 133.931C590.733 134.976 593.228 134.558 594.788 134.558C599.675 132.468 602.274 127.242 606.537 124.734L607.265 125.361C608.721 128.601 611.216 131.527 614.44 132.677C617.247 132.677 621.094 131.318 623.278 129.228C627.749 124.838 631.908 120.135 635.547 114.805C641.266 108.011 646.049 101.845 651.247 95.0511C652.079 92.7517 652.807 89.9298 650.624 88.362C648.856 88.5711 646.88 87.7349 645.321 89.0936C644.489 89.9298 640.642 93.4833 640.122 94.3195C639.602 95.0511 636.483 99.3362 635.547 100.904C630.348 107.384 625.877 114.282 619.742 119.508H617.767C617.455 119.194 616.519 118.463 616.415 118.149C616.415 117.208 615.375 112.296 615.167 111.565C614.024 109.788 612.88 106.757 610.592 106.861C608.305 107.175 604.978 107.802 603.314 109.579C602.378 110.519 602.482 112.296 601.962 113.55L601.338 114.805C599.155 117.208 596.867 121.389 594.372 122.852C594.06 122.852 593.54 122.434 593.436 122.121C593.332 119.821 593.332 116.163 593.436 114.178C593.748 111.565 594.476 107.07 596.036 104.876C597.595 102.681 595.932 98.5001 596.036 95.6782C594.684 94.424 593.228 92.0201 591.149 92.3336C589.069 92.7517 586.574 93.5878 584.91 95.0511C583.662 96.2007 583.87 99.8588 583.558 102.89Z" fill="#191919"/>
<defs>
<clipPath id="clip0_2067_73906">
<rect width="75.0947" height="180" fill="white" transform="translate(0.525391)"/>
</clipPath>
</defs>
</svg>
