<?xml version="1.0" encoding="UTF-8"?>
<svg width="81px" height="15px" viewBox="0 0 81 15" version="1.1" xmlns="http://www.w3.org/2000/svg" xmlns:xlink="http://www.w3.org/1999/xlink">
    <title>logo</title>
    <g id="Playground" stroke="none" stroke-width="1" fill="none" fill-rule="evenodd">
        <g id="LP" transform="translate(-1172.000000, -529.000000)">
            <g id="Group-8" transform="translate(188.000000, 517.000000)">
                <g id="logo" transform="translate(984.558140, 12.000000)">
                    <path d="M1.34311576,0 L2.76584764,0 C2.50001344,0.362561342 2.20652967,0.704022488 1.88802207,1.02132848 C1.33350758,1.57606288 0.706006649,2.0527012 0.022817404,2.43810169 L0.022817404,1.33142543 C0.0212387149,0.59988155 0.611447014,0.00469772668 1.34311576,0 L1.34311576,0 Z M4.28532529,0 C3.86594267,0.700239829 3.36128657,1.34575268 2.78292043,1.9217476 C1.97972196,2.72249201 1.04521554,3.37969828 0.0199751125,3.86483214 L0.0199751125,7.12796241 C1.86136541,6.48734585 3.5346895,5.44007498 4.91559551,4.06397697 C6.08269539,2.90130242 7.0166553,1.52621698 7.66715897,0.0128021676 L4.28532529,0 Z M9.04151797,0.0156470937 C8.32406635,1.87167302 7.22586692,3.55694041 5.81760753,4.96297363 C4.19252486,6.58084886 2.19993783,7.7814461 0.0100159894,8.46223276 L0.0100159894,11.5518225 C2.99772888,10.7933018 5.72586018,9.24400026 7.90760066,7.06679649 C9.88449924,5.10062185 11.3532632,2.68308696 12.1871782,0.022759409 L9.04151797,0.0156470937 Z M13.5003597,0.0426738919 C12.6306378,3.03774427 11.0152592,5.76330293 8.80534448,7.96437069 C6.38266134,10.3820572 3.33316974,12.0757349 2.82618676e-05,12.8547987 L2.82618676e-05,13.2473985 C-0.00469064414,13.9784085 0.582125391,14.5759197 1.31323839,14.5845138 L13.2641862,14.6086957 C13.9956259,14.6039965 14.5854257,14.008583 14.5830586,13.2772702 L14.6086818,1.36129715 C14.6116329,0.70985776 14.1426987,0.151937492 13.5003597,0.0426738919 Z" id="Shape" fill="#434B69"></path>
                    <path d="M1.34311576,0 L2.76584764,0 C2.50001344,0.362561342 2.20652967,0.704022488 1.88802207,1.02132848 C1.33350758,1.57606288 0.706006649,2.0527012 0.022817404,2.43810169 L0.022817404,1.33142543 C0.0212387149,0.59988155 0.611447014,0.00469772668 1.34311576,0 L1.34311576,0 Z M4.28532529,0 C3.86594267,0.700239829 3.36128657,1.34575268 2.78292043,1.9217476 C1.97972196,2.72249201 1.04521554,3.37969828 0.0199751125,3.86483214 L0.0199751125,7.12796241 C1.86136541,6.48734585 3.5346895,5.44007498 4.91559551,4.06397697 C6.08269539,2.90130242 7.0166553,1.52621698 7.66715897,0.0128021676 L4.28532529,0 Z M9.04151797,0.0156470937 C8.32406635,1.87167302 7.22586692,3.55694041 5.81760753,4.96297363 C4.19252486,6.58084886 2.19993783,7.7814461 0.0100159894,8.46223276 L0.0100159894,11.5518225 C2.99772888,10.7933018 5.72586018,9.24400026 7.90760066,7.06679649 C9.88418355,5.10037337 11.3528972,2.6829214 12.1871782,0.022759409 L9.04151797,0.0156470937 Z M13.5003597,0.0426738919 C12.6306378,3.03774427 11.0152592,5.76330293 8.80534448,7.96437069 C6.38266134,10.3820572 3.33316974,12.0757349 2.82618676e-05,12.8547987 L2.82618676e-05,13.2473985 C-0.00469064414,13.9784085 0.582125391,14.5759197 1.31323839,14.5845138 L13.2641862,14.6086957 C13.9956259,14.6039965 14.5854257,14.008583 14.5830586,13.2772702 L14.6086818,1.36129715 C14.6116329,0.70985776 14.1426987,0.151937492 13.5003597,0.0426738919 Z" id="Shape"></path>
                    <polygon id="Path" fill="#434B69" points="17.4153692 3 20.0223937 3.00579635 23.2323761 8.72823964 23.2430716 3.01304178 25.7391304 3.01738904 25.7137287 14.1304348 23.2216806 14.1202912 20.0116982 8.38335701 20.0010027 14.117393 17.3913043 14.1115967"></polygon>
                    <polygon id="Path" points="17.4153692 3 20.0223937 3.00579635 23.2323761 8.72823964 23.2430716 3.01304178 25.7391304 3.01738904 25.7137287 14.1304348 23.2216806 14.1202912 20.0116982 8.38335701 20.0010027 14.117393 17.3913043 14.1115967"></polygon>
                    <path d="M29.0967237,3.00022024 L34.0869565,3.01181723 L34.0790439,5.12391968 L34.0790439,5.72261447 L29.7864414,5.70376936 L29.7864414,7.34329432 L33.3827323,7.35199206 L33.3827323,9.7511201 L29.7864414,9.7511201 L29.7864414,11.413839 L34.0803627,11.4239864 L34.0737688,14.1304348 L29.0756233,14.1115897 C28.0011625,14.1052207 27.1325927,13.1472326 27.1304348,11.9661459 L27.1436225,5.09927607 C27.1477836,4.53566567 27.3562901,3.99715998 27.7229224,3.6031294 C28.0895546,3.20909882 28.5840247,2.99209469 29.0967237,3.00022024 Z" id="Path" fill="#434B69"></path>
                    <path d="M29.0957775,3.00022024 L34.0869565,3.01181723 L34.0790424,5.12391968 L34.0790424,5.72261447 L29.785626,5.70376936 L29.785626,7.34329432 L33.3825988,7.35199206 L33.3825988,9.7511201 L29.785626,9.7511201 L29.785626,11.413839 L34.0803614,11.4239864 L34.0737663,14.1304348 L29.0746731,14.1115897 C28.0002235,14.1052163 27.1318692,13.1469977 27.1304348,11.9661459 L27.142306,5.09927607 C27.1464679,4.53566567 27.3550139,3.99715998 27.7217157,3.6031294 C28.0884174,3.20909882 28.5829813,2.99209469 29.0957775,3.00022024 Z" id="Path"></path>
                    <path d="M38.5540783,3 L39.3765509,3 C41.4517684,3.0111759 43.1289728,4.81841457 43.1304348,7.04492395 L43.1304348,10.1029271 C43.1200182,12.329409 41.435561,14.1288662 39.3603179,14.1304348 L38.5378453,14.1304348 C36.4626263,14.1200579 34.7848184,12.3134686 34.7826087,10.0869622 L34.7826087,7.0275077 C34.7930284,4.80045998 36.4783074,3.00077046 38.5540783,3 L38.5540783,3 Z M38.9599036,5.56018868 C38.0633792,5.56018868 37.3366025,6.33994073 37.3366025,7.30181363 L37.3366025,9.82862116 C37.3366025,10.7904941 38.0633792,11.5702461 38.9599036,11.5702461 C39.8564281,11.5702461 40.5832048,10.7904941 40.5832048,9.82862116 L40.5832048,7.30181363 C40.5832048,6.33994073 39.8564281,5.56018868 38.9599036,5.56018868 Z" id="Shape" fill="#434B69"></path>
                    <path d="M38.5540783,3 L39.3765509,3 C41.4517684,3.0111759 43.1289728,4.81841457 43.1304348,7.04492395 L43.1304348,10.1029271 C43.1200182,12.329409 41.435561,14.1288662 39.3603179,14.1304348 L38.5378453,14.1304348 C36.4626263,14.1200579 34.7848184,12.3134686 34.7826087,10.0869622 L34.7826087,7.0275077 C34.7930284,4.80045998 36.4783074,3.00077046 38.5540783,3 L38.5540783,3 Z M38.9599036,5.56018868 C38.0633792,5.56018868 37.3366025,6.33994073 37.3366025,7.30181363 L37.3366025,9.82862116 C37.3366025,10.7904941 38.0633792,11.5702461 38.9599036,11.5702461 C39.8564281,11.5702461 40.5832048,10.7904941 40.5832048,9.82862116 L40.5832048,7.30181363 C40.5832048,6.33994073 39.8564281,5.56018868 38.9599036,5.56018868 Z" id="Shape"></path>
                    <path d="M65.6818076,3 L66.5029274,3 C68.5671277,3.01023455 70.240423,4.79721889 70.2581641,7.01037949 L67.6879373,7.01037949 C67.5502251,6.1149864 66.7939822,5.48330617 65.9505611,5.55917103 C65.1071401,5.63503589 64.4596272,6.39298252 64.462979,7.30046118 L64.462979,9.82562237 C64.450091,10.7405119 65.1000977,11.5098865 65.9505017,11.5863154 C66.8009057,11.6627442 67.5612997,11.0201273 67.6906428,10.1157041 L70.2608696,10.1157041 C70.2445333,12.3369997 68.5611973,14.1289115 66.4893999,14.1304348 L65.6682801,14.1304348 C63.5931512,14.1184791 61.9159876,12.3131124 61.9130435,10.0881463 L61.9130435,7.0292348 C61.9212313,4.80306836 63.6055164,3.00237729 65.6818076,3 L65.6818076,3 Z" id="Path" fill="#434B69"></path>
                    <path d="M65.6818076,3 L66.5029274,3 C68.5671277,3.01023455 70.240423,4.79721889 70.2581641,7.01037949 L67.6879373,7.01037949 C67.5502251,6.1149864 66.7939822,5.48330617 65.9505611,5.55917103 C65.1071401,5.63503589 64.4596272,6.39298252 64.462979,7.30046118 L64.462979,9.82562237 C64.450091,10.7405119 65.1000977,11.5098865 65.9505017,11.5863154 C66.8009057,11.6627442 67.5612997,11.0201273 67.6906428,10.1157041 L70.2608696,10.1157041 C70.2445333,12.3369997 68.5611973,14.1289115 66.4893999,14.1304348 L65.6682801,14.1304348 C63.5931512,14.1184791 61.9159876,12.3131124 61.9130435,10.0881463 L61.9130435,7.0292348 C61.9212313,4.80306836 63.6055164,3.00237729 65.6818076,3 L65.6818076,3 Z" id="Path"></path>
                    <polygon id="Path" fill="#434B69" points="43.8302066 3 52.173913 3.01883813 52.1684201 5.63009232 49.4178533 5.62284689 49.4013747 14.1304348 46.461303 14.1231893 46.4791549 5.61705054 43.826087 5.6112542"></polygon>
                    <polygon id="Path" points="43.8302066 3 52.173913 3.01883813 52.1684201 5.63009232 49.4178533 5.62284689 49.4013747 14.1304348 46.461303 14.1231893 46.4791549 5.61705054 43.826087 5.6112542"></polygon>
                    <path d="M57.6508569,12.2797135 L54.2779548,12.2797135 L53.8095357,14.1144803 L50.7826087,14.1144803 L54.4060937,3 L57.6366193,3 L61.2173913,14.1304348 L58.1178522,14.1304348 L57.6508569,12.2797135 Z M57.0357899,9.87348585 L55.9836267,5.87180882 L54.9229209,9.86768422 L57.0357899,9.87348585 Z" id="Shape" fill="#434B69" fill-rule="nonzero"></path>
                    <path d="M57.6508569,12.2797135 L54.2779548,12.2797135 L53.8095357,14.1144803 L50.7826087,14.1144803 L54.4060937,3 L57.6366193,3 L61.2173913,14.1304348 L58.1178522,14.1304348 L57.6508569,12.2797135 Z M57.0357899,9.87348585 L55.9836267,5.87180882 L54.9229209,9.86768422 L57.0357899,9.87348585 Z" id="Shape"></path>
                    <polygon id="Path" fill="#434B69" points="71.6521739 14.1115967 71.6563801 11.4061518 76.5817938 5.71558844 71.6689986 5.70544483 71.6732047 3 80 3.01738904 79.9943918 5.72283387 74.986257 11.4133973 79.9831754 11.42499 79.9775671 14.1304348"></polygon>
                    <polygon id="Path" points="71.6521739 14.1115967 71.6563801 11.4061518 76.5817938 5.71558844 71.6689986 5.70544483 71.6732047 3 80 3.01738904 79.9943918 5.72283387 74.986257 11.4133973 79.9831754 11.42499 79.9775671 14.1304348"></polygon>
                </g>
            </g>
        </g>
    </g>
</svg>