<?xml version="1.0" encoding="UTF-8"?>
<svg width="72px" height="40px" viewBox="0 0 72 40" version="1.1" xmlns="http://www.w3.org/2000/svg" xmlns:xlink="http://www.w3.org/1999/xlink">
    <title>Logo_svislé_křivky</title>
    <g id="Playground" stroke="none" stroke-width="1" fill="none" fill-rule="evenodd">
        <g id="LP" transform="translate(-372.000000, -517.000000)" fill="#434B69">
            <g id="Group-8" transform="translate(188.000000, 517.000000)">
                <g id="Logo_svislé_křivky" transform="translate(184.000000, 0.000000)">
                    <path d="M42.2608696,21.9130435 L41.0486398,21.9130435 L41.0486398,16.8427189 L35.646853,12.277538 L30.1686763,16.845727 L30.1686763,21.9130435 L28.9565217,21.9130435 L28.9565217,16.5934699 C28.9565217,16.4344627 29.0296755,16.2809118 29.1576945,16.1739509 L35.2451095,11.101178 C35.4763867,10.9064937 35.8277053,10.909222 36.0577784,11.1039062 L42.0625567,16.1766792 C42.1888447,16.2836401 42.2608696,16.4344627 42.2608696,16.5934699 L42.2608696,21.9130435 Z" id="Path"></path>
                    <path d="M27.9303491,23.4782609 L26.6086957,23.4782609 L26.6185303,15.0609753 C26.6188175,14.871617 26.7009408,14.6906955 26.8439386,14.5634951 L35.2077342,7.20903876 C35.4575497,6.98829143 35.8309809,6.98829143 36.0800067,7.20903876 L44.3847223,14.5634951 C44.5273613,14.6906955 44.608982,14.871617 44.6086957,15.0637875 L44.5988602,23.4782609 L43.2772068,23.4782609 L43.2867543,15.3605882 L35.641322,8.59120999 L27.9398966,15.363112 L27.9303491,23.4782609 Z" id="Path"></path>
                    <path d="M46.2419035,25.0434783 L46.2322911,13.9733381 L35.9946156,4.89893574 L25.7580965,13.9502976 L25.7677089,25.0434783 L24.2707711,25.0434783 L24.2608696,13.6051307 C24.2608696,13.3865398 24.3543198,13.1763138 24.5178034,13.0324943 L35.5033696,3.31703115 C35.7855271,3.06679988 36.2056555,3.06967627 36.4872347,3.31703115 L47.4728732,13.0558283 C47.6354173,13.1996478 47.7289398,13.4095802 47.7289398,13.6281712 L47.7391304,25.0434783 L46.2419035,25.0434783 Z" id="Path"></path>
                    <path d="M50.0869565,26.6086957 L48.414647,26.6086957 L48.414647,12.8524968 L35.6276587,1.92927109 L22.8024537,12.8467756 L22.8024537,26.6086957 L21.1304348,26.6086957 L21.1304348,12.4636009 C21.1304348,12.2194727 21.2375289,11.9892492 21.423454,11.8305767 L35.0856494,0.197395717 C35.3986489,-0.066316734 35.8597201,-0.066316734 36.172429,0.200518472 L49.7947365,11.8362255 C49.9801531,11.9951876 50.0869565,12.2251215 50.0869565,12.4692496 L50.0869565,26.6086957 Z" id="Path"></path>
                    <path d="M1.06360612,32.2061431 L4.59404023,37.6698636 L4.59404023,32.2061431 L5.48797414,32.2061431 L5.48797414,39.0112482 L4.49235205,39.0112482 L0.905271146,33.4720083 L0.905271146,39.0112482 L0,39.0112482 L0,32.2061431 L1.06360612,32.2061431 Z M7.76222103,32.2061431 L12.1414899,32.2061431 L12.1414899,32.9417144 L8.65640064,32.9417144 L8.65640064,35.2245003 L11.9378533,35.2245003 L11.9378533,35.9495693 L8.65640064,35.9495693 L8.65640064,38.2648292 L12.1414899,38.2648292 L12.1414899,39.0112482 L7.76222103,39.0112482 L7.76222103,32.2061431 Z M15.4116696,32.2061431 L17.8105047,36.8151058 L20.1867216,32.2061431 L21.4426487,32.2061431 L21.4426487,39.0112482 L20.5486859,39.0112482 L20.5486859,33.4178389 L18.104831,38.1564903 L17.5049054,38.1564903 L15.0270148,33.341974 L15.0270148,39.0112482 L14.1327629,39.0112482 L14.1327629,32.2061431 L15.4116696,32.2061431 Z M26.240319,32.0869565 C27.1608745,32.0869565 27.9058315,32.3881358 28.4751899,32.9904945 C29.0447651,33.5927841 29.3294082,34.4691682 29.3294082,35.6193706 C29.3294082,36.7698494 29.0467885,37.6427789 28.4808264,38.2377445 C27.9151534,38.8327792 27.1682453,39.1304348 26.240319,39.1304348 C25.3123927,39.1304348 24.5677248,38.8292555 24.0057371,38.2269659 C23.4437495,37.6246072 23.1625028,36.7536124 23.1625028,35.6139813 C23.1625028,34.4673027 23.4437495,33.5927841 24.0057371,32.9904945 C24.5677248,32.3881358 25.3123927,32.0869565 26.240319,32.0869565 Z M26.240319,32.8553473 C25.5766576,32.8553473 25.0523912,33.0930986 24.6677364,33.5692231 C24.2827926,34.0453476 24.0904291,34.7305496 24.0904291,35.624829 C24.0904291,36.5193848 24.2827926,37.1972629 24.6677364,37.6590159 C25.0523912,38.1204925 25.5766576,38.3512654 26.240319,38.3512654 C26.9042694,38.3512654 27.4305592,38.1204925 27.8188994,37.6590159 C28.2074563,37.1972629 28.4014819,36.5193848 28.4014819,35.624829 C28.4014819,34.7305496 28.2074563,34.0453476 27.8188994,33.5692231 C27.4305592,33.0930986 26.9042694,32.8553473 26.240319,32.8553473 Z M38.6874378,34.1534101 C38.6874378,34.7161781 38.5308444,35.1706072 38.217802,35.5167665 C37.904832,35.8628567 37.442856,36.0865821 36.8315852,36.187597 L38.8684561,39.0112482 L37.7142027,39.0112482 L35.8699844,36.2306424 L34.6251136,36.2306424 L34.6251136,39.0112482 L33.7311507,39.0112482 L33.7311507,32.2061431 L36.2093304,32.2061431 C37.008918,32.2061431 37.6218509,32.3900705 38.0482013,32.7578561 C38.4741904,33.1256417 38.6874378,33.5909185 38.6874378,34.1534101 Z M36.1416202,35.6356767 C36.6769428,35.6356767 37.0825538,35.5113081 37.357875,35.2624327 C37.6331962,35.0135573 37.7708568,34.6852932 37.7708568,34.277986 C37.7708568,33.8704024 37.6368816,33.5459386 37.3692203,33.3043871 C37.1012699,33.0624901 36.7148808,32.9417144 36.2093304,32.9417144 L34.6251136,32.9417144 L34.6251136,35.6356767 L36.1416202,35.6356767 Z M40.6563095,32.2061431 L45.0353615,32.2061431 L45.0353615,32.9417144 L41.5502723,32.9417144 L41.5502723,35.2245003 L44.831725,35.2245003 L44.831725,35.9495693 L41.5502723,35.9495693 L41.5502723,38.2648292 L45.0353615,38.2648292 L45.0353615,39.0112482 L40.6563095,39.0112482 L40.6563095,32.2061431 Z M49.3011055,32.2061431 C50.0857347,32.2061431 50.6837092,32.3954598 51.0946676,32.7740931 C51.5059873,33.1527264 51.7115749,33.6629141 51.7115749,34.3050708 C51.7115749,34.946951 51.5059873,35.453684 51.0946676,35.8249243 C50.6837092,36.1965101 50.0857347,36.382303 49.3011055,36.382303 L47.8981959,36.382303 L47.8981959,39.0112482 L47.0042331,39.0112482 L47.0042331,32.2061431 L49.3011055,32.2061431 Z M49.3011055,35.6464553 C49.7916975,35.6464553 50.1630559,35.5276142 50.4160479,35.2895174 C50.6686785,35.0514897 50.7949939,34.7250912 50.7949939,34.3104601 C50.7949939,33.8955525 50.6686785,33.5638338 50.4160479,33.3148893 C50.1630559,33.0662903 49.7916975,32.9417144 49.3011055,32.9417144 L47.8981959,32.9417144 L47.8981959,35.6464553 L49.3011055,35.6464553 Z M55.8077182,32.0869565 C56.7279847,32.0869565 57.4729416,32.3881358 58.0425169,32.9904945 C58.6121643,33.5927841 58.8968074,34.4691682 58.8968074,35.6193706 C58.8968074,36.7698494 58.6138264,37.6427789 58.0482256,38.2377445 C57.4822635,38.8327792 56.7356445,39.1304348 55.8077182,39.1304348 C54.8797919,39.1304348 54.1348349,38.8292555 53.5728473,38.2269659 C53.0108597,37.6246072 52.729902,36.7536124 52.729902,35.6139813 C52.729902,34.4673027 53.0108597,33.5927841 53.5728473,32.9904945 C54.1348349,32.3881358 54.8797919,32.0869565 55.8077182,32.0869565 Z M55.8077182,32.8553473 C55.1437678,32.8553473 54.6194291,33.0930986 54.2347743,33.5692231 C53.8501196,34.0453476 53.6578283,34.7305496 53.6578283,35.624829 C53.6578283,36.5193848 53.8501196,37.1972629 54.2347743,37.6590159 C54.6194291,38.1204925 55.1437678,38.3512654 55.8077182,38.3512654 C56.4715963,38.3512654 56.9975971,38.1204925 57.3862263,37.6590159 C57.7745665,37.1972629 57.9688811,36.5193848 57.9688811,35.624829 C57.9688811,34.7305496 57.7745665,34.0453476 57.3862263,33.5692231 C56.9975971,33.0930986 56.4715963,32.8553473 55.8077182,32.8553473 Z M65.5616756,34.1534101 C65.5616756,34.7161781 65.4050822,35.1706072 65.0920398,35.5167665 C64.7790697,35.8628567 64.3168047,36.0865821 63.705823,36.187597 L65.7426939,39.0112482 L64.5884405,39.0112482 L62.7439331,36.2306424 L61.4993513,36.2306424 L61.4993513,39.0112482 L60.6053885,39.0112482 L60.6053885,32.2061431 L63.0835682,32.2061431 C63.8831558,32.2061431 64.4960887,32.3900705 64.9223668,32.7578561 C65.3484282,33.1256417 65.5616756,33.5909185 65.5616756,34.1534101 Z M63.0155689,35.6356767 C63.5511806,35.6356767 63.9567916,35.5113081 64.2321128,35.2624327 C64.507434,35.0135573 64.6450945,34.6852932 64.6450945,34.277986 C64.6450945,33.8704024 64.5111194,33.5459386 64.243458,33.3043871 C63.9755076,33.0624901 63.5888295,32.9417144 63.0835682,32.9417144 L61.4993513,32.9417144 L61.4993513,35.6356767 L63.0155689,35.6356767 Z M66.4666946,32.2061431 L72,32.2061431 L72,32.9417144 L69.6804371,32.9417144 L69.6804371,39.0112482 L68.7864743,39.0112482 L68.7864743,32.9417144 L66.4666946,32.9417144 L66.4666946,32.2061431 Z" id="Shape" fill-rule="nonzero"></path>
                </g>
            </g>
        </g>
    </g>
</svg>