<?xml version="1.0" encoding="UTF-8" standalone="no"?><!DOCTYPE svg PUBLIC "-//W3C//DTD SVG 1.1//EN" "http://www.w3.org/Graphics/SVG/1.1/DTD/svg11.dtd"><svg width="100%" height="100%" viewBox="0 0 551 124" version="1.1" xmlns="http://www.w3.org/2000/svg" xmlns:xlink="http://www.w3.org/1999/xlink" xml:space="preserve" xmlns:serif="http://www.serif.com/" style="fill-rule:evenodd;clip-rule:evenodd;stroke-linejoin:round;stroke-miterlimit:2;"><g id="Vrstva-1" serif:id="Vrstva 1"><path d="M164.422,67.918l0,-26.072c0,-2.879 0.521,-5.641 1.563,-8.283c1.042,-2.643 2.438,-4.915 4.189,-6.816c1.751,-1.902 3.835,-3.417 6.252,-4.545c2.417,-1.128 4.958,-1.691 7.622,-1.691c2.943,0 5.715,0.677 8.314,2.03c2.6,1.354 4.823,3.212 6.671,5.575c1.848,-2.363 4.072,-4.221 6.671,-5.575c2.599,-1.353 5.371,-2.03 8.315,-2.03c2.663,0 5.204,0.563 7.621,1.691c2.417,1.128 4.501,2.643 6.252,4.545c1.751,1.901 3.147,4.173 4.19,6.816c1.042,2.642 1.563,5.404 1.563,8.283l0,26.072c0,1.269 -0.457,2.358 -1.37,3.271c-0.914,0.914 -2.003,1.37 -3.271,1.37c-1.268,0 -2.358,-0.456 -3.271,-1.37c-0.914,-0.913 -1.37,-2.002 -1.37,-3.271l0,-26.072c0,-3.33 -1.01,-6.172 -3.029,-8.525c-2.019,-2.352 -4.458,-3.529 -7.315,-3.529c-2.858,0 -5.297,1.177 -7.316,3.529c-2.019,2.353 -3.029,5.195 -3.029,8.525l0,26.072c0,1.269 -0.457,2.358 -1.37,3.271c-0.913,0.914 -2.003,1.37 -3.271,1.37c-1.268,0 -2.358,-0.456 -3.271,-1.37c-0.913,-0.913 -1.369,-2.002 -1.369,-3.271l0,-26.072c0,-3.33 -1.011,-6.172 -3.03,-8.525c-2.019,-2.352 -4.458,-3.529 -7.315,-3.529c-2.857,0 -5.296,1.177 -7.315,3.529c-2.02,2.353 -3.03,5.195 -3.03,8.525l0,26.072c0,1.269 -0.456,2.358 -1.369,3.271c-0.914,0.914 -2.004,1.37 -3.271,1.37c-1.268,0 -2.358,-0.456 -3.271,-1.37c-0.914,-0.913 -1.37,-2.002 -1.37,-3.271" style="fill:#009fe3;fill-rule:nonzero;"/><path d="M240.315,25.312c0.085,-1.289 0.612,-2.342 1.579,-3.158c0.859,-0.731 1.826,-1.096 2.9,-1.096c0.151,0 0.301,0.011 0.452,0.032c1.267,0.108 2.308,0.645 3.125,1.612l13.922,16.339l13.89,-16.339c0.817,-0.967 1.858,-1.504 3.125,-1.612c0.151,-0.021 0.301,-0.032 0.451,-0.032c1.096,0 2.075,0.365 2.934,1.096c0.967,0.816 1.492,1.869 1.578,3.158c0.022,0.129 0.033,0.258 0.033,0.387c0,1.117 -0.365,2.106 -1.095,2.965l-16.307,19.175l0,20.111c0,1.268 -0.451,2.352 -1.354,3.255c-0.902,0.902 -1.988,1.353 -3.255,1.353c-1.268,0 -2.352,-0.451 -3.254,-1.353c-0.903,-0.903 -1.354,-1.987 -1.354,-3.255l0,-20.111l-16.307,-19.175c-0.73,-0.859 -1.095,-1.848 -1.095,-2.965c0,-0.129 0.011,-0.258 0.032,-0.387" style="fill:#009fe3;fill-rule:nonzero;"/><path d="M302.061,63.342l7.445,0c2.663,0 5.123,-0.736 7.379,-2.208c2.255,-1.471 4.038,-3.48 5.349,-6.026c1.31,-2.546 1.968,-5.313 1.968,-8.299c0,-2.987 -0.658,-5.753 -1.968,-8.299c-1.31,-2.546 -3.094,-4.555 -5.349,-6.026c-2.257,-1.472 -4.716,-2.208 -7.38,-2.208l-7.445,0l0,33.066Zm-9.216,4.608l0,-42.283c0,-1.267 0.45,-2.352 1.353,-3.255c0.902,-0.902 1.988,-1.353 3.256,-1.353l12.053,0c3.244,0 6.338,0.681 9.281,2.046c2.944,1.365 5.483,3.196 7.622,5.495c2.135,2.3 3.839,5.039 5.106,8.219c1.269,3.179 1.903,6.509 1.903,9.99c0,3.48 -0.635,6.811 -1.903,9.991c-1.267,3.18 -2.971,5.919 -5.106,8.218c-2.139,2.3 -4.678,4.131 -7.622,5.495c-2.943,1.364 -6.037,2.046 -9.281,2.046l-12.053,-0.001c-1.267,0.001 -2.353,-0.451 -3.255,-1.353c-0.904,-0.903 -1.354,-1.986 -1.354,-3.255" style="fill:#009fe3;fill-rule:nonzero;"/><path d="M341.99,67.95l0,-42.283c0,-1.268 0.451,-2.353 1.354,-3.255c0.902,-0.902 1.988,-1.354 3.255,-1.354c1.268,0 2.352,0.452 3.254,1.354c0.903,0.902 1.354,1.987 1.354,3.255l0,37.675l17.982,0c1.268,0 2.354,0.451 3.256,1.353c0.902,0.902 1.354,1.987 1.354,3.255c0,1.269 -0.452,2.353 -1.354,3.255c-0.902,0.902 -1.988,1.353 -3.256,1.353l-22.59,0c-1.267,0 -2.353,-0.451 -3.255,-1.353c-0.903,-0.902 -1.354,-1.986 -1.354,-3.255" style="fill:#009fe3;fill-rule:nonzero;"/><path d="M381.693,67.95l0,-42.283c0,-1.268 0.451,-2.353 1.354,-3.255c0.902,-0.902 1.988,-1.354 3.255,-1.354c1.268,0 2.352,0.452 3.254,1.354c0.903,0.902 1.354,1.987 1.354,3.255l0,42.283c0,1.269 -0.451,2.353 -1.354,3.255c-0.902,0.902 -1.986,1.353 -3.254,1.353c-1.267,0 -2.353,-0.451 -3.255,-1.353c-0.903,-0.902 -1.354,-1.986 -1.354,-3.255" style="fill:#009fe3;fill-rule:nonzero;"/><path d="M400.16,67.95l0,-26.266c0,-2.857 0.596,-5.587 1.787,-8.186c1.193,-2.599 2.805,-4.845 4.834,-6.736c2.031,-1.89 4.443,-3.394 7.236,-4.511c2.793,-1.117 5.725,-1.676 8.797,-1.676c4.104,0 7.897,0.945 11.377,2.836c3.481,1.891 6.235,4.453 8.266,7.686c2.029,3.234 3.045,6.763 3.045,10.587l0,26.266c0,1.269 -0.451,2.353 -1.354,3.255c-0.902,0.902 -1.986,1.353 -3.254,1.353c-1.267,0 -2.359,-0.451 -3.271,-1.353c-0.914,-0.902 -1.369,-1.986 -1.369,-3.255l0,-26.266c0,-3.287 -1.311,-6.091 -3.932,-8.412c-2.621,-2.32 -5.791,-3.48 -9.508,-3.48c-3.717,0 -6.884,1.16 -9.506,3.48c-2.621,2.321 -3.931,5.125 -3.931,8.412l0,26.266c0,1.269 -0.451,2.353 -1.354,3.255c-0.902,0.902 -1.988,1.353 -3.256,1.353c-1.267,0 -2.351,-0.451 -3.253,-1.353c-0.903,-0.902 -1.354,-1.986 -1.354,-3.255" style="fill:#009fe3;fill-rule:nonzero;"/><path d="M455.459,67.95l0,-42.283c0,-1.268 0.451,-2.353 1.354,-3.255c0.902,-0.902 1.988,-1.354 3.255,-1.354c1.268,0 2.352,0.452 3.254,1.354c0.903,0.902 1.354,1.987 1.354,3.255l0,17.854l13.857,0l9.862,-19.884c0.558,-1.139 1.439,-1.913 2.642,-2.321c0.516,-0.172 1.022,-0.258 1.516,-0.258c0.687,0 1.353,0.162 1.998,0.484c1.138,0.58 1.912,1.471 2.32,2.675c0.172,0.515 0.258,1.02 0.258,1.514c0,0.689 -0.162,1.354 -0.484,1.998l-10.022,20.304l9.764,17.693c0.386,0.709 0.58,1.43 0.58,2.16c0,0.408 -0.065,0.849 -0.194,1.321c-0.343,1.204 -1.084,2.127 -2.222,2.771c-0.709,0.387 -1.451,0.58 -2.225,0.58c-0.816,0 -1.59,-0.209 -2.32,-0.628c-0.731,-0.418 -1.299,-1.003 -1.707,-1.756l-9.604,-17.436l-14.019,0l0,15.212c0,1.269 -0.451,2.353 -1.354,3.255c-0.902,0.902 -1.986,1.353 -3.254,1.353c-1.267,0 -2.353,-0.451 -3.255,-1.353c-0.903,-0.902 -1.354,-1.986 -1.354,-3.255" style="fill:#009fe3;fill-rule:nonzero;"/><path d="M514.371,51.191l26.877,0l0,-9.507c0,-3.265 -1.316,-6.064 -3.949,-8.395c-2.631,-2.331 -5.795,-3.497 -9.49,-3.497c-3.717,0 -6.885,1.16 -9.506,3.48c-2.621,2.32 -3.932,5.125 -3.932,8.412l0,9.507Zm-9.217,16.759l0,-26.266c0,-2.857 0.596,-5.587 1.787,-8.186c1.194,-2.599 2.805,-4.845 4.834,-6.736c2.032,-1.89 4.444,-3.394 7.237,-4.511c2.793,-1.118 5.724,-1.676 8.797,-1.676c4.103,0 7.896,0.945 11.376,2.836c3.481,1.89 6.235,4.453 8.266,7.686c2.029,3.234 3.045,6.763 3.045,10.587l0,26.266c0,1.268 -0.451,2.352 -1.354,3.255c-0.902,0.902 -1.986,1.353 -3.253,1.353c-1.268,0 -2.36,-0.451 -3.272,-1.353c-0.914,-0.903 -1.369,-1.987 -1.369,-3.255l0,-7.541l-26.877,0l0,7.541c0,1.268 -0.451,2.352 -1.354,3.255c-0.902,0.902 -1.988,1.353 -3.255,1.353c-1.268,0 -2.352,-0.451 -3.254,-1.353c-0.903,-0.903 -1.354,-1.987 -1.354,-3.255" style="fill:#009fe3;fill-rule:nonzero;"/><path d="M168.914,102.727l10.149,0c0.901,0 1.538,-0.194 1.908,-0.583c0.371,-0.389 0.557,-0.98 0.557,-1.775l0,-1.007c0,-0.795 -0.186,-1.387 -0.557,-1.776c-0.37,-0.388 -1.007,-0.583 -1.908,-0.583l-9.805,0c-0.23,0 -0.344,0.106 -0.344,0.318l0,5.406Zm10.971,-9.381c2.031,0 3.488,0.459 4.372,1.378c0.884,0.918 1.325,2.279 1.325,4.081l0,1.961c0,1.802 -0.441,3.163 -1.325,4.081c-0.884,0.919 -2.341,1.378 -4.372,1.378l-10.971,0l0,5.089c0,0.389 -0.195,0.583 -0.583,0.583l-2.862,0c-0.407,0 -0.61,-0.194 -0.61,-0.583l0,-17.173c0,-0.53 0.265,-0.795 0.795,-0.795l14.231,0Z" style="fill:#007bc4;fill-rule:nonzero;"/><path d="M220.085,102.807l10.149,0c0.901,0 1.538,-0.194 1.908,-0.583c0.371,-0.389 0.557,-0.98 0.557,-1.776l0,-1.113c0,-0.795 -0.186,-1.386 -0.557,-1.775c-0.37,-0.389 -1.007,-0.583 -1.908,-0.583l-9.805,0c-0.23,0 -0.344,0.105 -0.344,0.317l0,5.513Zm10.971,-9.461c2.031,0 3.488,0.459 4.372,1.378c0.884,0.918 1.325,2.279 1.325,4.081l0,1.511c0,1.519 -0.309,2.72 -0.927,3.603c-0.619,0.884 -1.626,1.45 -3.021,1.697l4.531,5.618c0.088,0.089 0.115,0.221 0.08,0.397c-0.036,0.177 -0.177,0.266 -0.424,0.266l-3.419,0c-0.23,0 -0.388,-0.027 -0.477,-0.08c-0.088,-0.053 -0.177,-0.141 -0.265,-0.265l-4.187,-5.513l-8.559,0l0,5.275c0,0.389 -0.195,0.583 -0.583,0.583l-2.862,0c-0.407,0 -0.61,-0.194 -0.61,-0.583l0,-17.173c0,-0.53 0.265,-0.795 0.795,-0.795l14.231,0Z" style="fill:#007bc4;fill-rule:nonzero;"/><path d="M282.36,87.622c0.193,0 0.335,0.045 0.424,0.133c0.088,0.089 0.07,0.212 -0.054,0.371l-2.702,3.895c-0.106,0.177 -0.217,0.305 -0.332,0.384c-0.115,0.08 -0.27,0.119 -0.464,0.119l-2.014,0c-0.194,0 -0.336,-0.044 -0.423,-0.131c-0.089,-0.089 -0.081,-0.212 0.026,-0.372l2.358,-3.895c0.195,-0.336 0.468,-0.504 0.822,-0.504l2.359,0Zm-7.897,17.437l9.116,0l-4.214,-7.764c-0.07,-0.123 -0.168,-0.186 -0.292,-0.186l-0.158,0c-0.124,0 -0.221,0.063 -0.292,0.186l-4.16,7.764Zm5.14,-11.712c0.672,0 1.236,0.136 1.696,0.41c0.459,0.274 0.911,0.808 1.352,1.603l8.772,15.928c0.087,0.177 0.11,0.322 0.066,0.437c-0.045,0.115 -0.173,0.172 -0.385,0.172l-3.365,0c-0.301,0 -0.503,-0.115 -0.609,-0.344l-1.882,-3.419l-12.455,0l-1.829,3.419c-0.124,0.229 -0.327,0.344 -0.609,0.344l-3.445,0c-0.23,0 -0.367,-0.057 -0.41,-0.172c-0.045,-0.115 -0.024,-0.26 0.066,-0.437l8.691,-15.928c0.442,-0.795 0.875,-1.329 1.299,-1.603c0.424,-0.274 0.918,-0.41 1.485,-0.41l1.562,0Z" style="fill:#007bc4;fill-rule:nonzero;"/><path d="M325.555,107.869c0,0.229 0.114,0.345 0.345,0.345l8.691,0c0.777,0 1.432,-0.071 1.961,-0.212c0.53,-0.142 0.958,-0.371 1.285,-0.69c0.327,-0.317 0.561,-0.742 0.702,-1.272c0.142,-0.53 0.213,-1.184 0.213,-1.961l0,-2.915c0,-0.777 -0.071,-1.431 -0.213,-1.961c-0.141,-0.53 -0.375,-0.954 -0.702,-1.272c-0.327,-0.318 -0.755,-0.547 -1.285,-0.689c-0.529,-0.142 -1.184,-0.212 -1.961,-0.212l-8.691,0c-0.231,0 -0.345,0.124 -0.345,0.371l0,10.468Zm9.143,-14.522c1.43,0 2.658,0.145 3.683,0.436c1.025,0.292 1.863,0.742 2.518,1.352c0.653,0.609 1.135,1.387 1.443,2.333c0.31,0.945 0.464,2.062 0.464,3.351l0,3.605c0,1.29 -0.154,2.408 -0.464,3.352c-0.308,0.946 -0.79,1.723 -1.443,2.332c-0.655,0.61 -1.493,1.061 -2.518,1.352c-1.025,0.292 -2.253,0.437 -3.683,0.437l-12.403,0c-0.53,0 -0.795,-0.265 -0.795,-0.795l0,-16.961c0,-0.53 0.265,-0.794 0.795,-0.794l12.403,0Z" style="fill:#007bc4;fill-rule:nonzero;"/><path d="M392.812,93.346c0.406,0 0.609,0.194 0.609,0.583l0,2.518c0,0.388 -0.203,0.583 -0.609,0.583l-11.581,0c-0.689,0 -1.259,0.057 -1.709,0.171c-0.45,0.116 -0.813,0.31 -1.086,0.583c-0.274,0.275 -0.464,0.646 -0.57,1.114c-0.106,0.469 -0.159,1.047 -0.159,1.735l0,0.266l14.972,0c0.389,0 0.583,0.194 0.583,0.583l0,2.093c0,0.389 -0.194,0.584 -0.583,0.584l-14.972,0l0,0.45c0,0.688 0.053,1.267 0.159,1.736c0.106,0.468 0.296,0.839 0.57,1.112c0.273,0.275 0.636,0.469 1.086,0.583c0.45,0.116 1.02,0.173 1.709,0.173l11.581,0c0.406,0 0.609,0.195 0.609,0.583l0,2.518c0,0.388 -0.203,0.583 -0.609,0.583l-11.66,0c-1.343,0 -2.483,-0.124 -3.419,-0.371c-0.937,-0.247 -1.7,-0.65 -2.292,-1.206c-0.592,-0.557 -1.025,-1.281 -1.299,-2.173c-0.273,-0.892 -0.41,-1.975 -0.41,-3.247l0,-4.558c0,-1.272 0.137,-2.35 0.41,-3.233c0.274,-0.884 0.707,-1.604 1.299,-2.16c0.592,-0.557 1.355,-0.963 2.292,-1.219c0.936,-0.256 2.076,-0.384 3.419,-0.384l11.66,0Z" style="fill:#007bc4;fill-rule:nonzero;"/><path d="M427.712,93.346c0.388,0 0.583,0.194 0.583,0.583l0,10.573c0,0.707 0.057,1.295 0.172,1.763c0.114,0.469 0.305,0.84 0.569,1.113c0.266,0.275 0.623,0.469 1.073,0.583c0.452,0.115 1.021,0.172 1.71,0.172l10.733,0c0.388,0 0.583,0.195 0.583,0.583l0,2.598c0,0.388 -0.195,0.583 -0.583,0.583l-10.892,0c-1.343,0 -2.482,-0.124 -3.419,-0.371c-0.936,-0.247 -1.7,-0.65 -2.292,-1.206c-0.591,-0.557 -1.024,-1.281 -1.299,-2.173c-0.273,-0.892 -0.41,-1.975 -0.41,-3.247l0,-10.971c0,-0.389 0.202,-0.583 0.61,-0.583l2.862,0Z" style="fill:#007bc4;fill-rule:nonzero;"/><path d="M478.06,93.346c0.424,0 0.777,0.018 1.061,0.053c0.282,0.035 0.529,0.11 0.741,0.224c0.213,0.116 0.415,0.275 0.61,0.478c0.193,0.203 0.414,0.473 0.662,0.808l9.859,12.933c0.07,0.124 0.185,0.186 0.344,0.186l0.24,0c0.139,0 0.212,-0.088 0.212,-0.265l0,-13.834c0,-0.389 0.192,-0.583 0.582,-0.583l2.783,0c0.387,0 0.582,0.194 0.582,0.583l0,15.212c0,1.077 -0.195,1.807 -0.582,2.185c-0.389,0.381 -0.99,0.571 -1.803,0.571l-2.279,0c-0.406,0 -0.747,-0.018 -1.021,-0.054c-0.272,-0.035 -0.515,-0.105 -0.728,-0.212c-0.212,-0.105 -0.419,-0.26 -0.623,-0.463c-0.202,-0.203 -0.437,-0.481 -0.702,-0.835l-9.885,-12.932c-0.106,-0.123 -0.221,-0.186 -0.344,-0.186l-0.238,0c-0.143,0 -0.213,0.089 -0.213,0.265l0,13.834c0,0.388 -0.195,0.583 -0.582,0.583l-2.782,0c-0.408,0 -0.611,-0.195 -0.611,-0.583l0,-15.212c0,-1.078 0.195,-1.807 0.583,-2.187c0.389,-0.38 0.989,-0.569 1.802,-0.569l2.332,0Z" style="fill:#007bc4;fill-rule:nonzero;"/><path d="M533.711,105.059l9.116,0l-4.214,-7.765c-0.07,-0.123 -0.168,-0.185 -0.291,-0.185l-0.159,0c-0.124,0 -0.222,0.062 -0.292,0.185l-4.16,7.765Zm5.141,-11.713c0.671,0 1.236,0.137 1.696,0.41c0.459,0.275 0.91,0.809 1.351,1.604l8.772,15.928c0.088,0.176 0.11,0.322 0.066,0.436c-0.045,0.115 -0.172,0.173 -0.384,0.173l-3.366,0c-0.3,0 -0.503,-0.115 -0.609,-0.345l-1.882,-3.419l-12.455,0l-1.828,3.419c-0.124,0.23 -0.327,0.345 -0.609,0.345l-3.446,0c-0.229,0 -0.366,-0.058 -0.41,-0.173c-0.045,-0.114 -0.022,-0.26 0.066,-0.436l8.692,-15.928c0.441,-0.795 0.875,-1.329 1.299,-1.604c0.424,-0.273 0.918,-0.41 1.483,-0.41l1.564,0Z" style="fill:#007bc4;fill-rule:nonzero;"/><path d="M55.444,38.044c-1.229,0.699 -2.069,2.005 -2.069,3.52c0,1.736 1.094,3.207 2.626,3.788c0.122,1.486 0.247,2.959 0.378,4.413c-3.061,0.131 -5.504,2.645 -5.504,5.738c0,3.176 2.574,5.75 5.75,5.75c0.3,0 0.593,-0.03 0.881,-0.075c1.242,11.48 2.679,21.732 4.081,30.452l-0.024,0c-5.075,0 -9.189,4.112 -9.189,9.187c0,5.074 4.114,9.189 9.189,9.189c1.125,0 2.197,-0.213 3.193,-0.583c1.811,9.2 3.119,14.333 3.119,14.333l62.25,-13.001c0,0 0,-39.001 13.249,-93.254c-8.624,-1.625 -37.874,-7.501 -89.374,-17.501c0.071,13.398 0.613,26.158 1.444,38.044Zm5.181,-18.418l0,-11.876l21.625,4.001l-0.375,10.624l-21.25,-2.749Zm6.875,49.94c-0.75,-18.563 11.625,-31.44 27,-30.689c15.375,0.75 31.5,12.501 29.25,30.689c-1.751,17.689 -14.821,30.688 -29.25,30.688c-14.429,0 -26.25,-12.125 -27,-30.688Z" style="fill:url(#_Radial1);fill-rule:nonzero;"/><path d="M25.5,26.939c0,-1.002 -0.812,-1.813 -1.812,-1.813c-1.001,0 -1.813,0.811 -1.813,1.813c0,1.001 0.812,1.812 1.813,1.812c1,0 1.812,-0.811 1.812,-1.812" style="fill:#24b4e9;fill-rule:nonzero;"/><path d="M27.687,36.752c1.415,0 2.563,-1.147 2.563,-2.563c0,-1.415 -1.148,-2.562 -2.563,-2.562c-1.415,0 -2.563,1.147 -2.563,2.562c0,1.416 1.148,2.563 2.563,2.563" style="fill:#24b4e9;fill-rule:nonzero;"/><path d="M40.5,36.127c1.864,0 3.375,-1.512 3.375,-3.375c0,-1.864 -1.511,-3.375 -3.375,-3.375c-1.864,0 -3.375,1.511 -3.375,3.375c0,1.863 1.511,3.375 3.375,3.375" style="fill:#007bc4;fill-rule:nonzero;"/><path d="M44.75,50.253c3.176,0 5.75,-2.574 5.75,-5.751c0,-3.176 -2.574,-5.75 -5.75,-5.75c-3.176,0 -5.75,2.574 -5.75,5.75c0,3.177 2.574,5.751 5.75,5.751" style="fill:#24b4e9;fill-rule:nonzero;"/><path d="M20.125,57.878c0,-1.934 -1.567,-3.5 -3.5,-3.5c-1.933,0 -3.5,1.566 -3.5,3.5c0,1.934 1.567,3.5 3.5,3.5c1.933,0 3.5,-1.566 3.5,-3.5" style="fill:#24b4e9;fill-rule:nonzero;"/><path d="M2.25,45.377c-1.243,0 -2.25,1.008 -2.25,2.251c0,1.242 1.007,2.25 2.25,2.25c1.243,0 2.25,-1.008 2.25,-2.25c0,-1.243 -1.007,-2.251 -2.25,-2.251" style="fill:#24b4e9;fill-rule:nonzero;"/><path d="M10.688,47.003c-1.209,0 -2.189,0.979 -2.189,2.188c0,1.208 0.98,2.187 2.188,2.187c1.208,0 2.188,-0.979 2.188,-2.187c0,-1.209 -0.98,-2.188 -2.188,-2.188" style="fill:#24b4e9;fill-rule:nonzero;"/><path d="M32.687,44.752c1.691,0 3.063,-1.371 3.063,-3.063c0,-1.691 -1.372,-3.062 -3.063,-3.062c-1.691,0 -3.063,1.371 -3.063,3.062c0,1.692 1.372,3.063 3.063,3.063" style="fill:#24b4e9;fill-rule:nonzero;"/><path d="M49.688,36.252c2.52,0 4.562,-2.043 4.562,-4.562c0,-2.521 -2.042,-4.563 -4.562,-4.563c-2.52,0 -4.562,2.042 -4.562,4.563c0,2.519 2.042,4.562 4.562,4.562" style="fill:#007bc4;fill-rule:nonzero;"/><path d="M29.5,60.69c0,-1.691 -1.371,-3.063 -3.063,-3.063c-1.691,0 -3.062,1.372 -3.062,3.063c0,1.691 1.371,3.063 3.062,3.063c1.692,0 3.063,-1.372 3.063,-3.063" style="fill:#007bc4;fill-rule:nonzero;"/><path d="M18.25,66.003c-1.795,0 -3.25,1.456 -3.25,3.251c0,1.795 1.455,3.25 3.25,3.25c1.795,0 3.25,-1.455 3.25,-3.25c0,-1.795 -1.455,-3.251 -3.25,-3.251" style="fill:#24b4e9;fill-rule:nonzero;"/><path d="M38,71.754c0,-3.452 -2.798,-6.251 -6.25,-6.251c-3.452,0 -6.25,2.799 -6.25,6.251c0,3.451 2.798,6.25 6.25,6.25c3.452,0 6.25,-2.799 6.25,-6.25" style="fill:#24b4e9;fill-rule:nonzero;"/><path d="M49.937,90.63c5.143,0 9.313,-4.17 9.313,-9.313c0,-5.144 -4.17,-9.313 -9.313,-9.313c-5.143,0 -9.313,4.169 -9.313,9.313c0,5.143 4.17,9.313 9.313,9.313" style="fill:#007bc4;fill-rule:nonzero;"/><path d="M33.188,81.504c-3.003,0 -5.437,2.435 -5.437,5.438c0,3.003 2.434,5.438 5.437,5.438c3.003,0 5.437,-2.435 5.437,-5.438c0,-3.003 -2.434,-5.438 -5.437,-5.438" style="fill:#24b4e9;fill-rule:nonzero;"/><path d="M46.562,56.128c-1.554,0 -2.813,1.259 -2.813,2.813c0,1.553 1.259,2.812 2.813,2.812c1.554,0 2.813,-1.259 2.813,-2.812c0,-1.554 -1.259,-2.813 -2.813,-2.813" style="fill:#007bc4;fill-rule:nonzero;"/><path d="M52.75,71.129c2.416,0 4.375,-1.959 4.375,-4.375c0,-2.417 -1.959,-4.376 -4.375,-4.376c-2.416,0 -4.375,1.959 -4.375,4.376c0,2.416 1.959,4.375 4.375,4.375" style="fill:#24b4e9;fill-rule:nonzero;"/><path d="M46.375,67.691c0,-1.968 -1.595,-3.563 -3.563,-3.563c-1.967,0 -3.562,1.595 -3.562,3.563c0,1.967 1.595,3.563 3.562,3.563c1.968,0 3.563,-1.596 3.563,-3.563" style="fill:#007bc4;fill-rule:nonzero;"/><path d="M46.5,92.88c-2.14,0 -3.875,1.734 -3.875,3.875c0,2.141 1.735,3.875 3.875,3.875c2.14,0 3.875,-1.734 3.875,-3.875c0,-2.141 -1.735,-3.875 -3.875,-3.875" style="fill:#24b4e9;fill-rule:nonzero;"/><path d="M104.375,68.879c0,-8.768 -6.432,-15.876 -14.366,-15.876c-0.732,0 -1.446,0.079 -2.149,0.196c5.779,2.009 9.985,8.126 9.985,15.365c0,7.748 -4.817,14.212 -11.226,15.727c1.089,0.292 2.22,0.463 3.39,0.463c7.934,0 14.366,-7.108 14.366,-15.875" style="fill:#148ece;fill-rule:nonzero;"/><path d="M94.29,43.977c-1.112,0.045 -2.192,0.213 -3.253,0.439c8.908,2.813 17.261,12.185 17.713,23.575c0.484,12.192 -8.012,22.656 -17.657,25.425c1.672,0.394 3.402,0.595 5.18,0.525c12.059,-0.479 21.39,-12.053 20.842,-25.849c-0.548,-13.796 -10.767,-24.594 -22.825,-24.115" style="fill:#148ece;fill-rule:nonzero;"/><path d="M116.837,48.771c5.159,5.243 8.23,12.418 7.163,21.045c-1.75,17.688 -14.822,30.688 -29.25,30.688c-3.786,0 -7.388,-0.841 -10.661,-2.408c-9.473,14.785 -16.214,25.659 -16.214,25.659l62.25,-13c0,0 0,-39.002 13.25,-93.255c-3.14,-0.591 -13.998,13.33 -26.538,31.271" style="fill:#007bc4;fill-rule:nonzero;"/></g><defs><radialGradient id="_Radial1" cx="0" cy="0" r="1" gradientUnits="userSpaceOnUse" gradientTransform="matrix(54.6257,0,0,54.6257,97.125,61.8777)"><stop offset="0" style="stop-color:#31a9e1;stop-opacity:1"/><stop offset="0.49" style="stop-color:#29a7df;stop-opacity:1"/><stop offset="1" style="stop-color:#007bc4;stop-opacity:1"/></radialGradient></defs></svg>