<?xml version="1.0" encoding="UTF-8"?>
<svg width="56px" height="50px" viewBox="0 0 56 50" version="1.1" xmlns="http://www.w3.org/2000/svg" xmlns:xlink="http://www.w3.org/1999/xlink">
    <title>Sketch_Logo</title>
    <g id="Playground" stroke="none" stroke-width="1" fill="none" fill-rule="evenodd">
        <g id="LP" transform="translate(-772.000000, -2746.000000)" fill-rule="nonzero">
            <g id="Sketch_Logo" transform="translate(772.000000, 2746.000000)">
                <polygon id="Path" fill="#FDB300" points="12.1925134 1.64620536 27.9411765 0 43.6898396 1.64620536 55.8823529 17.8292411 27.9411765 50 0 17.8292411"></polygon>
                <g id="Group" transform="translate(0.000000, 17.647059)">
                    <polygon id="Path" fill="#EA6C00" points="11.3175824 0 27.9412143 32.3529412 0 0"></polygon>
                    <polygon id="Path" fill="#EA6C00" transform="translate(41.911746, 16.176471) scale(-1, 1) translate(-41.911746, -16.176471) " points="39.2587211 0 55.8823529 32.3529412 27.9411387 0"></polygon>
                    <polygon id="Path" fill="#FDAD00" points="11.3175824 0 44.5648461 0 27.9412143 32.3529412"></polygon>
                </g>
                <g id="Group">
                    <polygon id="Path" fill="#FDD231" points="27.9411787 0 12.1924575 1.62936369 11.317568 17.6470588"></polygon>
                    <polygon id="Path" fill="#FDD231" transform="translate(36.252898, 8.823529) scale(-1, 1) translate(-36.252898, -8.823529) " points="44.5647036 0 28.8159824 1.62936369 27.9410929 17.6470588"></polygon>
                    <polygon id="Path" fill="#FDAD00" transform="translate(49.786053, 9.638211) scale(-1, 1) translate(-49.786053, -9.638211) " points="43.6897533 17.6470588 55.8823529 1.62936369 55.0073213 17.6470588"></polygon>
                    <polygon id="Path" fill="#FDAD00" points="0 17.6470588 12.1924575 1.62936369 11.317568 17.6470588"></polygon>
                    <polygon id="Path" fill="#FEEEB7" points="27.9411787 0 11.317568 17.6470588 44.5647895 17.6470588"></polygon>
                </g>
            </g>
        </g>
    </g>
</svg>