<?xml version="1.0" encoding="UTF-8" standalone="no"?><!DOCTYPE svg PUBLIC "-//W3C//DTD SVG 1.1//EN" "http://www.w3.org/Graphics/SVG/1.1/DTD/svg11.dtd"><svg width="100%" height="100%" viewBox="0 0 853 205" version="1.1" xmlns="http://www.w3.org/2000/svg" xmlns:xlink="http://www.w3.org/1999/xlink" xml:space="preserve" xmlns:serif="http://www.serif.com/" style="fill-rule:evenodd;clip-rule:evenodd;stroke-linejoin:round;stroke-miterlimit:2;"><rect id="Artboard1" x="0" y="0" width="852.326" height="204.589" style="fill:none;"/><path d="M62.247,91.926c-3.284,-0.151 -6.548,0.596 -9.44,2.16c-2.31,1.325 -3.691,3.84 -3.57,6.5c0,3.067 1.87,5.533 5.61,7.4c3.74,1.867 9.71,3.91 17.91,6.13c8.367,2.366 16.588,5.221 24.62,8.55c6.603,2.832 12.433,7.204 17,12.75c4.76,5.713 7.14,13.157 7.14,22.33c0,13.947 -5.4,24.877 -16.2,32.79c-10.8,7.913 -24.903,11.86 -42.31,11.84c-11.411,0.041 -22.763,-1.644 -33.67,-5c-10.332,-3.106 -20.015,-8.059 -28.58,-14.62l14.29,-29.38c7.586,5.324 15.871,9.574 24.62,12.63c7.813,2.841 16.048,4.352 24.36,4.47c4.43,0 7.95,-0.73 10.59,-2.18c2.447,-1.103 4.02,-3.557 4,-6.24c0,-3.407 -1.913,-6.043 -5.74,-7.91c-3.826,-1.867 -9.826,-3.91 -18,-6.13c-8.174,-2.333 -16.191,-5.189 -24,-8.55c-6.388,-2.877 -12.023,-7.197 -16.46,-12.62c-4.666,-5.62 -7,-12.937 -7,-21.95c0,-13.94 5.274,-24.867 15.82,-32.78c10.547,-7.913 24.154,-11.87 40.82,-11.87c20.239,0.042 40.085,5.621 57.38,16.13l-15.31,29.6c-17.86,-9.373 -32.486,-14.057 -43.88,-14.05Z" style="fill:#022e3c;fill-rule:nonzero;"/><path d="M363.757,74.826c9.02,9.533 13.53,22.377 13.53,38.53l0,87l-45.43,0l0,-73.98c0,-7.82 -2.04,-13.987 -6.12,-18.5c-4.08,-4.513 -9.61,-6.767 -16.59,-6.76c-8,0.173 -14.333,3.107 -19,8.8c-4.666,5.693 -7,13.133 -7,22.32l0,68.14l-45.39,0l0,-74c0,-7.82 -2.04,-13.987 -6.12,-18.5c-4.08,-4.513 -9.61,-6.767 -16.59,-6.76c-8,0.173 -14.376,3.107 -19.13,8.8c-4.753,5.693 -7.14,13.13 -7.16,22.31l0,68.15l-45.2,0l0,-138l45.2,0l0,22.7c4.399,-7.641 10.79,-13.946 18.49,-18.24c7.567,-4.167 16.37,-6.253 26.41,-6.26c11.22,0 20.83,2.723 28.83,8.17c8.007,5.477 14.004,13.427 17.07,22.63c4.42,-10.213 10.754,-17.913 19,-23.1c8.247,-5.187 17.98,-7.77 29.2,-7.75c14.974,0 26.974,4.767 36,14.3Z" style="fill:#022e3c;fill-rule:nonzero;"/><path d="M444.447,7.086c4.5,4.513 6.754,10.34 6.76,17.48c0.196,6.458 -2.246,12.726 -6.76,17.35c-4.513,4.58 -10.256,6.873 -17.23,6.88c-6.973,0.007 -12.713,-2.287 -17.22,-6.88c-4.506,-4.6 -6.76,-10.383 -6.76,-17.35c0,-7.14 2.254,-12.967 6.76,-17.48c4.507,-4.513 10.247,-6.75 17.22,-6.71c6.98,0 12.724,2.237 17.23,6.71Zm-39.42,56.77l45.16,0l0,138l-45.16,0l0,-138Z" style="fill:#0096ff;fill-rule:nonzero;"/><path d="M465.317,62.556l153.34,0l0,38.53l-53.58,0l0,99.29l-46.7,0l0,-99.29l-53.06,0l0,-38.53Z" style="fill:#022e3c;fill-rule:nonzero;"/><path d="M656.237,0.376c7.014,0 12.754,2.237 17.22,6.71c4.467,4.473 6.72,10.3 6.76,17.48c0,6.967 -2.253,12.75 -6.76,17.35c-4.506,4.6 -10.246,6.893 -17.22,6.88c-6.98,0 -12.723,-2.293 -17.23,-6.88c-4.513,-4.624 -6.955,-10.892 -6.76,-17.35c0,-7.14 2.254,-12.967 6.76,-17.48c4.507,-4.513 10.25,-6.75 17.23,-6.71Zm22.19,201.56l-45.16,0l0,-138l45.16,0l0,138Z" style="fill:#0096ff;fill-rule:nonzero;"/><path d="M814.757,69.596c11.048,5.537 20.271,14.142 26.56,24.78c6.294,10.667 9.44,22.96 9.44,36.88c0,14.08 -3.146,26.453 -9.44,37.12c-6.304,10.608 -15.525,19.186 -26.56,24.71c-11.393,5.86 -24.576,8.793 -39.55,8.8c-14.973,0.007 -28.153,-2.927 -39.54,-8.8c-11.003,-5.506 -20.173,-14.092 -26.39,-24.71c-6.213,-10.62 -9.316,-22.99 -9.31,-37.11c0,-13.953 3.104,-26.247 9.31,-36.88c6.213,-10.636 15.392,-19.235 26.41,-24.74c11.394,-5.873 24.574,-8.81 39.54,-8.81c14.967,0 28.144,2.92 39.53,8.76Zm-61,37.37c-5.44,6.3 -8.16,14.55 -8.16,24.75c0,10.387 2.72,18.72 8.16,25c5.44,6.28 12.584,9.427 21.43,9.44c9.02,0 16.25,-3.147 21.69,-9.44c5.44,-6.293 8.164,-14.627 8.17,-25c0,-10.2 -2.763,-18.45 -8.29,-24.75c-5.526,-6.3 -12.716,-9.447 -21.57,-9.44c-8.813,0 -15.956,3.147 -21.43,9.44Z" style="fill:#022e3c;fill-rule:nonzero;"/></svg>