<?xml version="1.0" encoding="UTF-8" standalone="no"?><!DOCTYPE svg PUBLIC "-//W3C//DTD SVG 1.1//EN" "http://www.w3.org/Graphics/SVG/1.1/DTD/svg11.dtd"><svg width="100%" height="100%" viewBox="0 0 209 70" version="1.1" xmlns="http://www.w3.org/2000/svg" xmlns:xlink="http://www.w3.org/1999/xlink" xml:space="preserve" xmlns:serif="http://www.serif.com/" style="fill-rule:evenodd;clip-rule:evenodd;stroke-linejoin:round;stroke-miterlimit:2;"><rect id="Rectangle_3" x="0" y="68.006" width="208.193" height="1.661"/><g id="Group_5"><rect id="Rectangle_4" x="0" y="9.373" width="61.955" height="1.661"/><rect id="Rectangle_5" x="146.238" y="9.373" width="61.955" height="1.661"/></g><path id="Path_36" d="M26.101,48.548c0,2.373 -1.566,3.2 -4.6,3.2c-3.034,0 -4.817,-1.092 -4.817,-3.3l0,-0.712l-6.576,0l0,0.712c0,5.956 4.366,8.993 11.366,8.993c7.024,0 11.366,-3.037 11.366,-9.4c0,-4.6 -2.8,-7.474 -8.115,-8.424l-4.864,-0.854c-1.78,-0.285 -2.99,-1.353 -2.99,-2.919c0,-2.278 1.566,-3.18 4.6,-3.18c3.034,0 4.817,1.092 4.817,3.3l0,0.712l6.549,0l0,-0.712c0,-5.956 -4.366,-8.993 -11.366,-8.993c-7.024,0 -11.366,3.037 -11.366,9.349c0,4.651 3.037,7.569 8.115,8.447l4.864,0.854c1.78,0.332 3.014,1.305 3.014,2.919l0.003,0.008Zm18.128,8.495l7.617,0l9.681,-29.589l-6.477,0l-6.716,21.425l-6.691,-21.427l-7.095,0l9.681,29.589l0,0.002Zm36.447,-10.322c0,3.346 -2.064,5.03 -5.291,5.03c-3.132,0 -5.2,-1.685 -5.2,-5.03l0,-8.969c0,-3.346 2.064,-5.03 5.291,-5.03c3.132,0 5.2,1.685 5.2,5.03l0,8.969Zm6.549,-8.946c0,-7.095 -4.651,-10.749 -11.746,-10.749c-7.19,0 -11.84,3.63 -11.84,10.749l0,8.969c0,7.095 4.651,10.749 11.746,10.749c7.19,0 11.84,-3.63 11.84,-10.749l0,-8.969Zm4.651,19.267l6.549,0l0,-9.847l4.176,0l4.817,9.847l7.617,0l-5.527,-10.701c3.2,-1.305 5.125,-4.224 5.125,-9.041c0,-6.976 -4.01,-9.847 -10.156,-9.847l-12.6,0l0,29.589l-0.001,0Zm6.549,-23.895l5.837,0c2.159,0 3.583,0.973 3.583,4.152c0,3.179 -1.4,4.176 -3.583,4.176l-5.837,0l0,-8.329l0,0.001Zm35.597,-5.695l-8.024,0l-9.681,29.589l6.478,0l1.9,-6.264l10.013,0l1.9,6.264l7.095,0l-9.681,-29.589Zm-4.346,6.976l3.251,10.654l-6.5,0l3.251,-10.654l-0.002,0Zm40.148,3.749c0,-7.095 -4.651,-10.749 -11.746,-10.749l-11.84,0l0,29.591l11.746,0c7.19,0 11.84,-3.63 11.84,-10.749l0,-8.093Zm-6.549,8.139c0,3.346 -2.064,5.03 -5.291,5.03l-5.2,0l0,-18.174l5.291,0c3.132,0 5.2,1.685 5.2,5.03l0,8.115l0,-0.001Zm26.389,-18.864l-8.047,0l-9.681,29.589l6.478,0l1.9,-6.264l10.013,0l1.9,6.264l7.095,0l-9.658,-29.589Zm-4.369,6.976l3.251,10.654l-6.5,0l3.249,-10.654Z"/><path id="Path_37" d="M84.615,19.884l2.824,0l-8.187,-11.057l7.641,-8.542l-2.824,0l-8.661,9.681l0,-9.681l-2.325,0l0,19.6l2.325,0l0,-6.692l2.325,-2.586l6.881,9.278l0.001,-0.001Zm16.112,-6.763c0,3.18 -1.969,5.007 -5.291,5.007c-3.274,0 -5.244,-1.827 -5.244,-5.007l0,-6.1c0,-3.18 1.969,-5.007 5.291,-5.007c3.275,0 5.244,1.827 5.244,5.007l0,6.1Zm2.3,-6.1c0,-4.532 -2.895,-7.024 -7.569,-7.024c-4.722,0 -7.617,2.491 -7.617,7.024l0,6.1c0,4.508 2.895,7.024 7.569,7.024c4.722,0 7.617,-2.515 7.617,-7.024l0,-6.1Zm3.656,12.863l12.647,0l0,-2.017l-10.322,0l0,-17.582l-2.325,0l0,19.6l0,-0.001Zm23.277,-19.599l-2.824,0l-7.261,19.6l2.3,0l1.851,-5.03l8.827,0l1.851,5.03l2.491,0l-7.235,-19.6Zm-1.519,2.468l3.773,10.061l-7.569,0l3.796,-10.061Z"/></svg>