<?xml version="1.0" encoding="UTF-8"?>
<svg width="72px" height="25px" viewBox="0 0 72 25" version="1.1" xmlns="http://www.w3.org/2000/svg" xmlns:xlink="http://www.w3.org/1999/xlink">
    <title>Svorada</title>
    <g id="Playground" stroke="none" stroke-width="1" fill="none" fill-rule="evenodd">
        <g id="LP" transform="translate(-492.000000, -524.000000)" fill="#434B69" fill-rule="nonzero">
            <g id="Group-8" transform="translate(188.000000, 517.000000)">
                <g id="Svorada" transform="translate(304.000000, 7.000000)">
                    <rect id="rect139" x="0" y="23.4782609" width="72" height="1"></rect>
                    <rect id="rect149" x="0.782608696" y="3.13043478" width="21.1304348" height="1"></rect>
                    <rect id="rect159" x="50.8695652" y="3.13043478" width="21.1304348" height="1"></rect>
                    <path d="M9.46846295,17.3602484 C9.46846295,18.1475155 8.92133831,18.4301242 7.86917553,18.4301242 C6.81701275,18.4301242 6.18571508,18.0667702 6.18571508,17.3400621 L6.18571508,17.0978261 L3.91304348,17.0978261 L3.91304348,17.3400621 C3.91304348,19.318323 5.42815788,20.3478261 7.86917553,20.3478261 C10.3101932,20.3478261 11.8253076,19.3385093 11.8253076,17.2189441 C11.8253076,15.6847826 10.8573178,14.7158385 9.00551133,14.4130435 L7.32205088,14.1304348 C6.71179647,14.0295031 6.2698881,13.6863354 6.2698881,13.1614907 C6.2698881,12.3944099 6.81701275,12.1118012 7.86917553,12.1118012 C8.92133831,12.1118012 9.55263597,12.4751553 9.55263597,13.2018634 L9.55263597,13.4440994 L11.8253076,13.4440994 L11.8253076,13.2018634 C11.8253076,11.2236025 10.3101932,10.1940994 7.86917553,10.1940994 C5.42815788,10.1940994 3.91304348,11.2034161 3.91304348,13.302795 C3.91304348,14.8571429 4.96520626,15.826087 6.73283973,16.128882 L8.41630017,16.4114907 C9.04759784,16.492236 9.46846295,16.8152174 9.46846295,17.3602484 M15.7814396,20.1863354 L18.4328898,20.1863354 L21.7998107,10.3152174 L19.5481824,10.3152174 L17.212381,17.4611801 L14.8765796,10.3152174 L12.4145187,10.3152174 L15.7814396,20.1863354 Z M28.4494795,16.7546584 C28.4494795,17.8649068 27.7340088,18.4301242 26.6187163,18.4301242 C25.524467,18.4301242 24.8089963,17.8649068 24.8089963,16.7546584 L24.8089963,13.7468944 C24.8089963,12.636646 25.524467,12.0714286 26.6397595,12.0714286 C27.7340088,12.0714286 28.4494795,12.636646 28.4494795,13.7468944 L28.4494795,16.7546584 Z M30.7221511,13.7468944 C30.7221511,11.3850932 29.1018204,10.173913 26.6397595,10.173913 C24.1356121,10.173913 22.5363247,11.3850932 22.5363247,13.7468944 L22.5363247,16.734472 C22.5363247,19.0962733 24.1566553,20.3074534 26.6187163,20.3074534 C29.1228637,20.3074534 30.7221511,19.0962733 30.7221511,16.734472 L30.7221511,13.7468944 Z M32.3424818,20.1863354 L34.6151534,20.1863354 L34.6151534,16.8959627 L36.067138,16.8959627 L37.7505985,20.1863354 L40.4020487,20.1863354 L38.4871124,16.613354 C39.6024049,16.1692547 40.2547459,15.2003106 40.2547459,13.6055901 C40.2547459,11.2841615 38.865891,10.3152174 36.7194789,10.3152174 L32.3424818,10.3152174 L32.3424818,20.1863354 Z M34.6151534,12.2127329 L36.6353059,12.2127329 C37.3928631,12.2127329 37.876858,12.5357143 37.876858,13.5854037 C37.876858,14.6350932 37.3928631,14.9782609 36.6353059,14.9782609 L34.6151534,14.9782609 L34.6151534,12.2127329 Z M46.9885877,10.3152174 L44.1898347,10.3152174 L40.8229138,20.1863354 L43.0745421,20.1863354 L43.726883,18.1071429 L47.1990202,18.1071429 L47.8513611,20.1863354 L50.313422,20.1863354 L46.9885877,10.3152174 Z M45.4734733,12.636646 L46.6098091,16.189441 L44.3371374,16.189441 L45.4734733,12.636646 Z M59.4251517,13.8881988 C59.4251517,11.5263975 57.804821,10.3152174 55.3427601,10.3152174 L51.2393253,10.3152174 L51.2393253,20.1863354 L55.3217169,20.1863354 C57.8258643,20.1863354 59.4251517,18.9751553 59.4251517,16.613354 L59.4251517,13.8881988 Z M57.1524801,16.613354 C57.1524801,17.7236025 56.4370094,18.2888199 55.3217169,18.2888199 L53.5119969,18.2888199 L53.5119969,12.2329193 L55.3427601,12.2329193 C56.4370094,12.2329193 57.1524801,12.7981366 57.1524801,13.9083851 L57.1524801,16.613354 Z M66.3273395,10.3152174 L63.5285865,10.3152174 L60.1616656,20.1863354 L62.413294,20.1863354 L63.0656349,18.1071429 L66.5377721,18.1071429 L67.190113,20.1863354 L69.6521739,20.1863354 L66.3273395,10.3152174 Z M64.8122251,12.636646 L65.9485609,16.189441 L63.6758893,16.189441 L64.8122251,12.636646 Z" id="path175"></path>
                    <path d="M29.7576056,6.93772033 L30.7301392,6.93772033 L27.9366917,3.06698002 L30.5439093,0.0846063455 L29.5713758,0.0846063455 L26.6123907,3.46886016 L26.6123907,0.0846063455 L25.826087,0.0846063455 L25.826087,6.93772033 L26.6123907,6.93772033 L26.6123907,4.61104583 L27.3986944,3.70152761 L29.7576056,6.93772033 Z M35.2617317,4.58989424 C35.2617317,5.71092832 34.5995812,6.34547591 33.46151,6.34547591 C32.3441311,6.34547591 31.6819805,5.71092832 31.6819805,4.58989424 L31.6819805,2.45358402 C31.6819805,1.33254994 32.3441311,0.69800235 33.4822022,0.69800235 C34.5995812,0.69800235 35.2617317,1.33254994 35.2617317,2.45358402 L35.2617317,4.58989424 Z M36.0480355,2.45358402 C36.0480355,0.867215041 35.0548097,0 33.46151,0 C31.8475182,0 30.8542924,0.867215041 30.8542924,2.45358402 L30.8542924,4.58989424 C30.8542924,6.15511163 31.8475182,7.04347826 33.4408178,7.04347826 C35.0548097,7.04347826 36.0480355,6.15511163 36.0480355,4.58989424 L36.0480355,2.45358402 Z M41.6142382,6.93772033 L41.6142382,6.23971798 L38.0758714,6.23971798 L38.0758714,0.105757932 L37.2895677,0.105757932 L37.2895677,6.93772033 L41.6142382,6.93772033 Z M45.256066,0.0846063455 L44.2835325,0.0846063455 L41.800468,6.93772033 L42.5867718,6.93772033 L43.2282301,5.18213866 L46.2492918,5.18213866 L46.8907501,6.93772033 L47.7391304,6.93772033 L45.256066,0.0846063455 Z M44.7180687,0.951821387 L46.0009853,4.46298472 L43.4144599,4.46298472 L44.7180687,0.951821387 Z" id="path185"></path>
                </g>
            </g>
        </g>
    </g>
</svg>