<?xml version="1.0" encoding="UTF-8"?>
<svg width="73px" height="20px" viewBox="0 0 73 20" version="1.1" xmlns="http://www.w3.org/2000/svg" xmlns:xlink="http://www.w3.org/1999/xlink">
    <title>tycko-logo</title>
    <g id="Playground" stroke="none" stroke-width="1" fill="none" fill-rule="evenodd">
        <g id="LP" transform="translate(-884.000000, -527.000000)" fill-rule="nonzero">
            <g id="Group-8" transform="translate(188.000000, 517.000000)">
                <g id="tycko-logo" transform="translate(696.558140, 10.000000)">
                    <path d="M0,2.55085714 C0,1.14205795 1.1420563,0 2.55085617,0 L17.3777071,0 C18.7865124,0 19.9285714,1.14205795 19.9285714,2.55085714 L19.9285714,17.3777143 C19.9285714,18.7865027 18.7865124,19.9285714 17.3777071,19.9285714 L2.55085617,19.9285714 C1.1420563,19.9285714 0,18.7865027 0,17.3777143 L0,2.55085714 Z" id="Path" fill="#434B69"></path>
                    <path d="M6.75486407,3.85714286 L13.1737309,3.85714286 C13.455815,3.85714286 13.6044749,4.18497546 13.4155253,4.39041759 L11.4810569,6.49350349 C11.3461372,6.64018499 11.2714546,6.83071689 11.2714546,7.02826375 L11.2714546,14.2063315 C11.2714546,14.3681433 11.2213183,14.5261313 11.127704,14.6593881 L10.2325285,15.9333053 C10.1027721,16.1179227 9.82446862,16.1173725 9.69550217,15.9322325 L8.80819835,14.6584802 C8.71576911,14.5257737 8.66630987,14.3688311 8.66630987,14.2081196 L8.66630987,7.0292541 C8.66630987,6.83110203 8.59117584,6.64004745 8.45552267,6.49320089 L6.51352105,4.39091277 C6.32389438,4.18563569 6.47241317,3.85714286 6.75486407,3.85714286 Z" id="Path" fill="#FFFFFF"></path>
                    <polygon id="Path" fill="#434B69" points="32.7515019 16.0714286 32.7515019 6.11524494 36.6428571 6.11524494 36.6428571 3.85714286 26.3571429 3.85714286 26.3571429 6.11524494 30.248636 6.11524494 30.248636 16.0714286"></polygon>
                    <path d="M40.8459928,6.04136365 L43.1480197,3.21428571 L40.3454939,3.21428571 L38.9440968,6.04136365 L40.8459928,6.04136365 Z M40.1117488,19.2857143 L45,7.18930709 L42.5809664,7.18930709 L40.3285869,13.2032558 L40.1619329,13.2032558 L37.9098217,7.18930709 L35.3571429,7.18930709 L38.9274582,16.0131719 L37.6095224,19.2857143 L40.1117488,19.2857143 Z" id="Shape" fill="#434B69"></path>
                    <path d="M51.022753,6.52306823 L52.9048289,3.85714286 L50.7662314,3.85714286 L49.5854613,5.25761295 L48.439096,3.85714286 L46.249029,3.85714286 L48.1481697,6.52306823 L51.022753,6.52306823 Z M49.7395945,16.7142857 C51.8269978,16.7142857 53.7946726,15.5838181 54,13.2722083 L51.7243341,13.2722083 C51.484602,14.402703 50.5950335,14.8582593 49.7222545,14.8582593 C48.3705618,14.8582593 47.4295238,13.9471467 47.4295238,12.1248672 C47.4295238,10.3025877 48.3705618,9.39144801 49.7222545,9.39144801 C50.5950335,9.39144801 51.484602,9.83015798 51.7243341,10.977499 L54,10.977499 C53.7946726,8.64904287 51.8269978,7.53544874 49.7395945,7.53544874 C47.0018043,7.53544874 45,9.020259 45,12.1248672 C45,15.2294754 47.0018043,16.7142857 49.7395945,16.7142857 Z" id="Shape" fill="#434B69"></path>
                    <polygon id="Path" fill="#434B69" points="56.9659288 16.0714286 56.9659288 12.1026356 57.1331685 12.1026356 60.1249299 16.0714286 63 16.0714286 59.2892694 11.2301827 62.9497206 7.24428223 60.1752094 7.24428223 57.1331685 10.699879 56.9659288 10.699879 56.9659288 3.85714286 54.6428571 3.85714286 54.6428571 16.0714286"></polygon>
                    <path d="M67.1787089,16.0714286 C69.9997005,16.0714286 72,14.6155478 72,11.5714286 C72,8.52730936 69.9997005,7.07142857 67.1787089,7.07142857 C64.3918212,7.07142857 62.3571429,8.52730936 62.3571429,11.5714286 C62.3571429,14.6155478 64.3918212,16.0714286 67.1787089,16.0714286 Z M67.1957609,14.2515643 C65.7424978,14.2515643 64.7851153,13.3747482 64.7851153,11.5714286 C64.7851153,9.75156429 65.7254459,8.89126626 67.161382,8.89126626 C68.5975932,8.89126626 69.5723026,9.75156429 69.5723026,11.5714286 C69.5723026,13.3747482 68.6146451,14.2515643 67.1957609,14.2515643 Z" id="Shape" fill="#434B69"></path>
                </g>
            </g>
        </g>
    </g>
</svg>