<?xml version="1.0" encoding="UTF-8"?>
<svg width="59px" height="40px" viewBox="0 0 59 40" version="1.1" xmlns="http://www.w3.org/2000/svg" xmlns:xlink="http://www.w3.org/1999/xlink">
    <title>webflow-logo-blue</title>
    <g id="Playground" stroke="none" stroke-width="1" fill="none" fill-rule="evenodd">
        <g id="LP" transform="translate(-940.000000, -2751.000000)" fill="#4353FF" fill-rule="nonzero">
            <g id="Group-12" transform="translate(772.000000, 2746.000000)">
                <g id="webflow-logo-blue" transform="translate(168.669238, 5.000000)">
                    <path d="M43.021021,11.7157712 C43.021021,11.7157712 38.3183183,26.4124783 37.9351351,27.6256499 C37.7957958,26.3778163 34.3471471,0 34.3471471,0 C26.3351351,0 22.0504505,5.68457539 19.7861862,11.6811092 C19.7861862,11.6811092 14.0732733,26.4124783 13.5855856,27.660312 C13.5507508,26.5164645 12.7147147,11.8544194 12.7147147,11.8544194 C12.227027,4.50606586 5.46906907,0.0346620451 0,0.0346620451 L6.61861862,40 C15.0138138,39.965338 19.5423423,34.3154246 21.9111111,28.3188908 C21.9111111,28.3188908 26.9621622,15.3206239 27.1711712,14.7313692 C27.206006,15.2859619 30.793994,40 30.793994,40 C39.224024,40 43.7525526,34.6967071 46.190991,28.9081456 L58,0.0346620451 C49.6744745,0.0346620451 45.2852853,5.68457539 43.021021,11.7157712 Z" id="Shape"></path>
                </g>
            </g>
        </g>
    </g>
</svg>