<?xml version="1.0" encoding="UTF-8"?>
<svg width="59px" height="34px" viewBox="0 0 59 34" version="1.1" xmlns="http://www.w3.org/2000/svg" xmlns:xlink="http://www.w3.org/1999/xlink">
    <title>WORKSPACE15 logo</title>
    <g id="Playground" stroke="none" stroke-width="1" fill="none" fill-rule="evenodd">
        <g id="LP" transform="translate(-779.000000, -520.000000)" fill="#434B69" fill-rule="nonzero">
            <g id="Group-8" transform="translate(188.000000, 517.000000)">
                <g id="WORKSPACE15-logo" transform="translate(592.000000, 4.000000)">
                    <path d="M0.542565679,31.4573333 L42.382778,31.4573333 L56.0155739,17.8 L56.0155739,0.542666667 L14.1760281,0.542666667 L0.542565679,14.2 L0.542565679,31.4573333 Z M42.6074028,32 L0,32 L0,13.9746667 L13.9507367,0 L56.5581395,0 L56.5581395,18.0253333 L56.478821,18.1046667 L42.6074028,32 Z" id="Path_151" stroke="#434B69"></path>
                    <polygon id="Path_140" points="15.215119 6.69767442 13.9400769 11.5938741 12.4145562 6.69767442 10.6505481 6.69767442 9.1250274 11.5938741 7.85065141 6.69767442 5.20930233 6.69767442 7.87396723 14.8837209 10.2648378 14.8837209 11.5392138 10.4529617 12.8049296 14.8837209 15.1958002 14.8837209 17.8604651 6.69767442"></polygon>
                    <path d="M22.3251805,5.95502729 C21.1325282,5.92296798 19.9798548,6.39299953 19.1400719,7.2538354 C18.2993528,8.08275455 17.8361177,9.22965652 17.8614524,10.4195093 C17.8373188,11.6125423 18.3001169,12.7625685 19.1400719,13.596804 C19.9889131,14.4497992 21.1436881,14.9139657 22.3372938,14.8819405 C23.5243639,14.9163289 24.6727356,14.4513105 25.5109621,13.596804 C26.3517147,12.7681902 26.8149736,11.621477 26.7895816,10.4318138 C26.8165624,9.23824505 26.3533184,8.08711086 25.5109621,7.25451898 C24.6712245,6.39361368 23.5185202,5.92356954 22.3258535,5.95571087 M23.7390646,11.8898967 C23.3673174,12.273995 22.8559926,12.4852169 22.3258535,12.4736768 C21.7988678,12.4841709 21.2910575,12.2728916 20.9227367,11.8898967 C20.5395554,11.5008118 20.331592,10.9682415 20.3480309,10.4181421 C20.331592,9.86804264 20.5395554,9.33547238 20.9227367,8.94638743 C21.2910116,8.56332337 21.7988528,8.35203124 22.3258535,8.36260737 C22.8475968,8.35008341 23.351239,8.55714554 23.7175299,8.93476652 C24.1023798,9.32834509 24.3138452,9.86350634 24.303676,10.4181421 C24.3220964,10.9663522 24.1185203,11.4982757 23.7404105,11.8898967" id="Path_141"></path>
                    <path d="M34.3095717,10.9304258 C34.5664111,10.4870786 34.6973957,9.99003799 34.6901174,9.48638845 C34.7170926,8.73896708 34.411518,8.01431003 33.8455424,7.4835151 C33.1637945,6.92342261 32.2679931,6.64322968 31.3612119,6.70645463 L27.5348837,6.70645463 L27.5348837,14.8837209 L30.0073874,14.8837209 L30.0073874,12.3278395 L30.7684789,12.3278395 L32.1598709,14.8837209 L34.9767442,14.8837209 L33.1818484,11.9295961 C33.6600846,11.712198 34.0544505,11.3625393 34.3109631,10.9284832 M31.9212472,10.1209878 C31.7485622,10.2725943 31.516019,10.3506852 31.2791198,10.3366221 L30.0073874,10.3366221 L30.0073874,8.79868993 L31.3382539,8.79868993 C31.5596283,8.78709895 31.7758674,8.86360672 31.933074,9.00914381 C32.0802441,9.16011741 32.1572736,9.35915116 32.1473484,9.56279939 C32.156137,9.76985271 32.0745871,9.97141314 31.9212472,10.1216354" id="Path_142"></path>
                    <polygon id="Path_143" points="42.3087593 6.69767442 39.5317923 6.69767442 37.2597284 9.77748967 37.2597284 6.69767442 34.9767442 6.69767442 34.9767442 14.8837209 37.2597284 14.8837209 37.2597284 13.1211409 38.0607642 12.1131189 39.630075 14.8824244 42.4186047 14.8824244 39.5754735 10.2520055"></polygon>
                    <path d="M52.5475508,19.9434348 C51.7702397,19.4032845 50.8347563,19.1350468 49.8877527,19.180772 L49.5825414,19.1925586 L49.5825414,18.6053083 L52.836735,18.6053083 L52.836735,16.372093 L46.8837209,16.372093 L46.8837209,21.5027335 C47.6217249,21.2772651 48.3896487,21.1636718 49.1616564,21.1657752 C50.1337335,21.1657752 50.6730795,21.5027335 50.6730795,22.067104 C50.6730795,22.6661409 50.2006292,22.9684327 49.2424887,22.9684327 C48.4160434,22.960816 47.6048373,22.7462166 46.8837209,22.3444359 L46.8837209,24.7814901 C47.6820977,25.1295118 48.5465833,25.301919 49.4180897,25.2869275 C50.7573052,25.4002966 52.0725766,24.8829888 52.9719199,23.8891747 C53.3823855,23.3715147 53.5971865,22.7269127 53.5788584,22.0677973 C53.6165995,21.2343039 53.2312998,20.4376243 52.5531254,19.9469014" id="Path_144"></path>
                    <polygon id="Path_145" points="38.5592406 21.4324991 41.3989179 21.4324991 41.3989179 19.4444592 38.5592406 19.4444592 38.5592406 18.5348985 42.3967347 18.5348985 42.3967347 16.372093 35.7209302 16.372093 35.7209302 24.5581395 42.4186047 24.5581395 42.4186047 22.3953341 38.5619744 22.3953341"></polygon>
                    <polygon id="Path_146" points="43.1627907 24.5581395 46.1395349 24.5581395 46.1395349 16.372093 43.1627907 17.8663714"></polygon>
                    <path d="M10.2858318,20.1388766 C10.0190681,20.0220774 9.50685657,19.8395786 8.74919711,19.5913803 C8.58177067,19.5441726 8.42144313,19.4713497 8.27307461,19.3751193 C8.17549431,19.3079447 8.11796584,19.1900828 8.12175376,19.0650996 C8.12618341,18.9329141 8.19988976,18.8150024 8.31169625,18.7612392 C8.4854266,18.6724313 8.67700448,18.6321921 8.86886087,18.6442119 C9.21152455,18.6560129 9.5506289,18.7231392 9.8749229,18.8433636 C10.2068721,18.9426702 10.5213508,19.1006076 10.8056411,19.3107885 L11.8009397,17.4280859 C10.9461755,16.7356834 9.90468841,16.3658815 8.83657065,16.3755244 C8.02725949,16.3375554 7.23234057,16.6157083 6.59714875,17.1591284 C6.03456017,17.6330341 5.71016822,18.3647145 5.72088075,19.1355897 C5.68703222,20.1229687 6.22088467,21.0303411 7.06250784,21.4159115 C7.46599449,21.6111639 7.88173687,21.7753651 8.30663112,21.9072894 C8.46491652,21.952914 8.63079962,22.0074355 8.80428043,22.0708539 C9.20822478,22.2268903 9.41019695,22.4061953 9.41019695,22.6087689 C9.41019695,22.9130855 9.15398565,23.0650157 8.64156303,23.0645595 C7.77313073,23.0427599 6.94049655,22.6862049 6.29387392,22.0592196 L5.20930233,23.8700633 C6.12020172,24.8163377 7.34309545,25.3300445 8.6061071,25.2969753 C9.46841396,25.3454048 10.3189313,25.0638375 11.0082464,24.5017371 C11.5859315,24.0129921 11.9184466,23.2599589 11.9066744,22.4671043 C11.9183788,21.3828003 11.251528,20.4265992 10.2839324,20.1402453" id="Path_147"></path>
                    <path d="M18.5544764,17.2245469 C17.8974672,16.6151451 17.0066085,16.3090391 16.105166,16.3829446 L12.6511628,16.3829446 L12.6511628,24.5581395 L14.9987488,24.5581395 L14.9987488,22.1246142 L15.9466346,22.1246142 C16.8771409,22.2026155 17.8018311,21.9205111 18.5227701,21.3386872 C19.0793475,20.8053599 19.3787489,20.0655343 19.3464729,19.3033045 C19.3736534,18.5344472 19.0885945,17.7864092 18.5538159,17.2232521 M16.6970166,19.8451669 C16.5233433,20.0000469 16.293346,20.0798522 16.0589277,20.066573 L15.0020516,20.066573 L15.0020516,18.4843607 L16.0853496,18.4843607 C16.3114884,18.4759266 16.5314601,18.5576776 16.695035,18.710946 C16.8522737,18.8597351 16.9383474,19.0665194 16.9321716,19.280646 C16.9392806,19.4920761 16.8553843,19.6966982 16.7009799,19.8445195" id="Path_148"></path>
                    <path d="M21.5899707,16.372093 L18.6046512,24.5581395 L21.022667,24.5581395 L21.4424983,23.2175675 L23.9741078,23.2175675 L24.3726818,24.5581395 L26.7906977,24.5581395 L23.8957216,16.372093 L21.5899707,16.372093 Z M22.0098021,21.2339357 L22.7365354,18.9741512 L23.4406829,21.2339357 L22.0098021,21.2339357 Z" id="Path_149"></path>
                    <path d="M31.3529709,22.9834023 C30.8011221,22.9942808 30.269374,22.7739857 29.8836907,22.3747017 C29.4932047,21.9684066 29.2806818,21.4203908 29.2939473,20.8539775 C29.2761162,20.2831109 29.4890673,19.7295405 29.8836907,19.3209286 C30.2715295,18.9165106 30.8074577,18.6922446 31.3644814,18.7012728 C32.1352318,18.7299812 32.8580539,19.0868764 33.3544421,19.6838209 L34.8582538,18.0343726 C34.4373918,17.5100676 33.9004359,17.0932635 33.2907959,16.8176563 C32.6349293,16.5171766 31.9219753,16.3655037 31.2019804,16.3732843 C30.0281195,16.3454501 28.8944741,16.8063845 28.0663874,17.6482004 C27.2146012,18.4977246 26.7530414,19.668822 26.7934625,20.8779421 C26.750775,22.0724368 27.2039641,23.2305643 28.0433664,24.0720792 C28.88666,24.8923803 30.0208628,25.3350747 31.1904699,25.3004355 C31.9522349,25.3097711 32.7054451,25.1373548 33.3889736,24.7971792 C34.0141238,24.5057831 34.5592417,24.064079 34.9767442,23.5106232 L33.3916819,21.9542944 C32.9020184,22.5913655 32.1528166,22.9691719 31.3550022,22.9813482" id="Path_150"></path>
                </g>
            </g>
        </g>
    </g>
</svg>